M48
;Layer_Color=9474304
;FILE_FORMAT=2:5
INCH,LZ
;TYPE=PLATED
T1F00S00C0.00984
T2F00S00C0.00984
T3F00S00C0.01575
;TYPE=NON_PLATED
T5F00S00C0.02953
%
T01
X002874Y0044882
X0032283
X0042126
X0047244
X0057087
X0057874Y0040158
X0063779Y0036713
X0062598Y0044882
X0085058Y0047622
X0090158Y0050787
X0093701
X0097244
X009685Y003622
X0098032Y0031496
X0099213Y002874
X0098819Y0025591
X0082677
X0083858Y0022441
X0084252Y0014697
X0077953Y0012992
X0071752Y0005512
X0068898Y0019685
X0051272Y0026075
Y002874
X0043701Y0036614
X0040157
X011063Y0040551
X0107874Y0044882
X0131496Y0042126
X0131799Y0037008
X0127953Y0027165
X0116929Y0018504
X0108268Y0004331
X0134646Y0048425
T02
X0007874Y0003937
X0015748
X0007874Y0015748
X0011811Y0019685
X0003937
Y0027559
X0011811
X0007874Y0031496
X0011811Y0035433
X0003937
X0007874Y003937
Y0023622
X0019685Y0049213
X0025591
X0031496Y003937
X0033465Y0032677
X0035433Y0027559
Y0003937
X0043307
X0051181Y0011811
X0059055Y0003937
X0066929
X0074803
X0069488Y001378
X0062992Y0019685
X0066929Y0043307
X0082677Y0035433
X0098425Y0019685
X0102362Y0003937
X0114173
T03
X0019016Y0014862
Y0018209
Y0021555
Y0024902
Y0028248
Y0031594
Y0034941
Y0038287
X0024331
Y0034941
Y0031594
Y0028248
Y0024902
Y0021555
Y0018209
Y0014862
T05
X0129921Y0001476
Y0012303
M30
