G04*
G04 #@! TF.GenerationSoftware,Altium Limited,Altium Designer,20.2.6 (244)*
G04*
G04 Layer_Color=16711935*
%FSLAX25Y25*%
%MOIN*%
G70*
G04*
G04 #@! TF.SameCoordinates,1F00D8FF-E811-4F8C-9FFC-250B1BB78CBF*
G04*
G04*
G04 #@! TF.FilePolarity,Negative*
G04*
G01*
G75*
%ADD36R,0.10049X0.03592*%
%ADD40C,0.05362*%
%ADD41O,0.10049X0.04143*%
%ADD42C,0.02953*%
%ADD43O,0.07293X0.04143*%
%ADD44C,0.00394*%
%ADD55C,0.00023*%
%ADD56C,0.06899*%
D36*
X106102Y36575D02*
D03*
X90748D02*
D03*
X106102Y31575D02*
D03*
Y26575D02*
D03*
Y21575D02*
D03*
Y16575D02*
D03*
X90748Y31575D02*
D03*
Y26575D02*
D03*
Y21575D02*
D03*
Y16575D02*
D03*
D40*
X142520Y48819D02*
D03*
X28740Y3937D02*
D03*
X9892Y49213D02*
D03*
D41*
X20472Y9547D02*
D03*
Y43602D02*
D03*
D42*
X24331Y14862D02*
D03*
Y18209D02*
D03*
Y21555D02*
D03*
Y24902D02*
D03*
Y28248D02*
D03*
Y31594D02*
D03*
Y34941D02*
D03*
Y38287D02*
D03*
X19016Y14862D02*
D03*
Y18209D02*
D03*
Y21555D02*
D03*
Y24902D02*
D03*
Y28248D02*
D03*
Y31594D02*
D03*
Y34941D02*
D03*
Y38287D02*
D03*
D43*
X7165Y9547D02*
D03*
Y43602D02*
D03*
D44*
X129921Y1476D02*
D03*
Y12303D02*
D03*
D55*
X43257Y39939D02*
X50924D01*
X43212Y39917D02*
X51288D01*
X43189Y39894D02*
X51538D01*
X43189Y39871D02*
X51766D01*
X43166Y39848D02*
X51948D01*
X43166Y39825D02*
X52130D01*
X43166Y39803D02*
X52289D01*
X43166Y39780D02*
X52426D01*
X43166Y39757D02*
X52562D01*
X43189Y39735D02*
X52676D01*
X43189Y39712D02*
X52812D01*
X43212Y39689D02*
X52926D01*
X43212Y39666D02*
X53040D01*
X43235Y39643D02*
X53131D01*
X43235Y39621D02*
X53245D01*
X43257Y39598D02*
X53336D01*
X43280Y39575D02*
X53427D01*
X43280Y39553D02*
X53518D01*
X43303Y39530D02*
X53609D01*
X43303Y39507D02*
X53700D01*
X43326Y39484D02*
X53791D01*
X43326Y39461D02*
X53882D01*
X43348Y39439D02*
X53950D01*
X43371Y39416D02*
X54041D01*
X43371Y39393D02*
X54109D01*
X43394Y39371D02*
X54177D01*
X43394Y39348D02*
X54268D01*
X43417Y39325D02*
X54337D01*
X43417Y39302D02*
X54405D01*
X43439Y39279D02*
X54473D01*
X43462Y39257D02*
X54541D01*
X43462Y39234D02*
X54610D01*
X43485Y39211D02*
X54678D01*
X43485Y39189D02*
X54746D01*
X43508Y39166D02*
X54792D01*
X43508Y39143D02*
X54860D01*
X43530Y39120D02*
X54928D01*
X43553Y39097D02*
X54996D01*
X43553Y39075D02*
X55042D01*
X43576Y39052D02*
X55110D01*
X43576Y39029D02*
X55178D01*
X43599Y39007D02*
X55224D01*
X43621Y38984D02*
X55292D01*
X43621Y38961D02*
X55338D01*
X43644Y38938D02*
X55383D01*
X43644Y38916D02*
X55451D01*
X43667Y38893D02*
X55497D01*
X43667Y38870D02*
X55565D01*
X43690Y38847D02*
X55611D01*
X43712Y38824D02*
X55656D01*
X43712Y38802D02*
X55724D01*
X43735Y38779D02*
X55770D01*
X43735Y38756D02*
X55815D01*
X43758Y38734D02*
X55861D01*
X43758Y38711D02*
X55906D01*
X43781Y38688D02*
X55975D01*
X43803Y38665D02*
X56020D01*
X43803Y38642D02*
X56066D01*
X43826Y38620D02*
X56111D01*
X43826Y38597D02*
X56157D01*
X43849Y38574D02*
X56202D01*
X43872Y38552D02*
X56248D01*
X43872Y38529D02*
X56293D01*
X43894Y38506D02*
X56339D01*
X43894Y38483D02*
X56384D01*
X43917Y38460D02*
X56430D01*
X43917Y38438D02*
X56475D01*
X43940Y38415D02*
X56521D01*
X43963Y38392D02*
X56566D01*
X43963Y38370D02*
X56589D01*
X43985Y38347D02*
X56634D01*
X43985Y38324D02*
X56680D01*
X44008Y38301D02*
X56725D01*
X44008Y38278D02*
X56771D01*
X44031Y38256D02*
X56816D01*
X44054Y38233D02*
X56839D01*
X44054Y38210D02*
X56885D01*
X44076Y38188D02*
X56930D01*
X44076Y38165D02*
X56976D01*
X44099Y38142D02*
X56998D01*
X44099Y38119D02*
X57044D01*
X44122Y38096D02*
X57089D01*
X44145Y38074D02*
X57135D01*
X44145Y38051D02*
X57158D01*
X44167Y38028D02*
X57203D01*
X44167Y38006D02*
X57249D01*
X44190Y37983D02*
X57271D01*
X44213Y37960D02*
X57317D01*
X44213Y37937D02*
X57340D01*
X44236Y37914D02*
X57385D01*
X44236Y37892D02*
X57431D01*
X44258Y37869D02*
X57453D01*
X44258Y37846D02*
X57499D01*
X44281Y37824D02*
X57522D01*
X44304Y37801D02*
X57567D01*
X44304Y37778D02*
X57590D01*
X44327Y37755D02*
X57635D01*
X44327Y37732D02*
X57681D01*
X44349Y37710D02*
X57704D01*
X44349Y37687D02*
X57749D01*
X44372Y37664D02*
X57772D01*
X44395Y37642D02*
X57817D01*
X44395Y37619D02*
X57840D01*
X44418Y37596D02*
X57863D01*
X44418Y37573D02*
X57908D01*
X44440Y37551D02*
X57931D01*
X44440Y37528D02*
X57977D01*
X44463Y37505D02*
X57999D01*
X44486Y37482D02*
X58045D01*
X44486Y37459D02*
X58068D01*
X44509Y37437D02*
X58090D01*
X44509Y37414D02*
X58136D01*
X44531Y37391D02*
X58159D01*
X44554Y37369D02*
X58204D01*
X44554Y37346D02*
X58227D01*
X44577Y37323D02*
X58250D01*
X44577Y37300D02*
X58295D01*
X44600Y37277D02*
X58318D01*
X44600Y37255D02*
X58341D01*
X44622Y37232D02*
X58386D01*
X44645Y37209D02*
X58409D01*
X44645Y37187D02*
X58432D01*
X44668Y37164D02*
X58477D01*
X44668Y37141D02*
X58500D01*
X44691Y37118D02*
X58523D01*
X44691Y37095D02*
X58568D01*
X44713Y37073D02*
X58591D01*
X44736Y37050D02*
X58614D01*
X44736Y37027D02*
X58636D01*
X44759Y37005D02*
X58682D01*
X44759Y36982D02*
X58705D01*
X44782Y36959D02*
X58727D01*
X44782Y36936D02*
X58750D01*
X44804Y36913D02*
X58796D01*
X44827Y36891D02*
X58818D01*
X44827Y36868D02*
X58841D01*
X44850Y36845D02*
X58864D01*
X44850Y36823D02*
X58887D01*
X44873Y36800D02*
X58932D01*
X44895Y36777D02*
X58955D01*
X44895Y36754D02*
X58978D01*
X44918Y36731D02*
X59000D01*
X44918Y36709D02*
X59023D01*
X44941Y36686D02*
X59069D01*
X44941Y36663D02*
X59091D01*
X44964Y36641D02*
X59114D01*
X44986Y36618D02*
X59137D01*
X44986Y36595D02*
X59160D01*
X45009Y36572D02*
X59182D01*
X45009Y36549D02*
X59205D01*
X45032Y36527D02*
X59251D01*
X45032Y36504D02*
X59273D01*
X45055Y36481D02*
X59296D01*
X45077Y36459D02*
X59319D01*
X45077Y36436D02*
X59342D01*
X45100Y36413D02*
X59364D01*
X45100Y36390D02*
X59387D01*
X45123Y36367D02*
X59410D01*
X45146Y36345D02*
X59433D01*
X45146Y36322D02*
X59455D01*
X45168Y36299D02*
X59478D01*
X45168Y36277D02*
X59524D01*
X45191Y36254D02*
X59546D01*
X45191Y36231D02*
X59569D01*
X45214Y36208D02*
X59592D01*
X45237Y36186D02*
X59615D01*
X45237Y36163D02*
X59637D01*
X45259Y36140D02*
X59660D01*
X45259Y36117D02*
X59683D01*
X45282Y36094D02*
X59706D01*
X45282Y36072D02*
X59728D01*
X45305Y36049D02*
X59751D01*
X45328Y36026D02*
X59774D01*
X45328Y36004D02*
X59797D01*
X45350Y35981D02*
X59819D01*
X45350Y35958D02*
X59842D01*
X45373Y35935D02*
X59865D01*
X45373Y35912D02*
X59888D01*
X45396Y35890D02*
X59910D01*
X45419Y35867D02*
X59933D01*
X45419Y35844D02*
X59956D01*
X45441Y35822D02*
X59979D01*
X45441Y35799D02*
X60001D01*
X45464Y35776D02*
X60024D01*
X45487Y35753D02*
X60047D01*
X45487Y35730D02*
X60070D01*
X45510Y35708D02*
X60070D01*
X45510Y35685D02*
X60092D01*
X45532Y35662D02*
X60115D01*
X45532Y35640D02*
X60138D01*
X45555Y35617D02*
X60161D01*
X45578Y35594D02*
X60183D01*
X45578Y35571D02*
X60206D01*
X45601Y35548D02*
X60229D01*
X45601Y35526D02*
X60252D01*
X45623Y35503D02*
X60274D01*
X45623Y35480D02*
X60297D01*
X45646Y35458D02*
X60320D01*
X45669Y35435D02*
X60320D01*
X45669Y35412D02*
X60343D01*
X45692Y35389D02*
X60365D01*
X45692Y35366D02*
X60388D01*
X45714Y35344D02*
X60411D01*
X45714Y35321D02*
X60434D01*
X45737Y35298D02*
X60456D01*
X45760Y35276D02*
X60479D01*
X45760Y35253D02*
X60479D01*
X45783Y35230D02*
X60502D01*
X45783Y35207D02*
X60525D01*
X45805Y35184D02*
X60547D01*
X45828Y35162D02*
X60570D01*
X45828Y35139D02*
X60593D01*
X45851Y35116D02*
X60593D01*
X45851Y35094D02*
X60616D01*
X45874Y35071D02*
X60638D01*
X45874Y35048D02*
X60661D01*
X45896Y35025D02*
X60684D01*
X45919Y35002D02*
X60707D01*
X45919Y34980D02*
X60707D01*
X45942Y34957D02*
X60729D01*
X45942Y34934D02*
X60752D01*
X45965Y34912D02*
X60775D01*
X45965Y34889D02*
X60798D01*
X45987Y34866D02*
X60798D01*
X46010Y34843D02*
X60820D01*
X46010Y34821D02*
X60843D01*
X46033Y34798D02*
X60866D01*
X46033Y34775D02*
X60889D01*
X46056Y34752D02*
X60889D01*
X46056Y34729D02*
X60911D01*
X46078Y34707D02*
X60934D01*
X46101Y34684D02*
X60957D01*
X46101Y34661D02*
X60957D01*
X46124Y34639D02*
X60980D01*
X46124Y34616D02*
X61002D01*
X46147Y34593D02*
X61025D01*
X46169Y34570D02*
X61025D01*
X46169Y34547D02*
X61048D01*
X46192Y34525D02*
X61071D01*
X46192Y34502D02*
X61093D01*
X46215Y34479D02*
X61093D01*
X46215Y34457D02*
X61116D01*
X46238Y34434D02*
X61139D01*
X46260Y34411D02*
X61162D01*
X46283Y34388D02*
X61162D01*
X46351Y34365D02*
X61184D01*
X50810Y34343D02*
X61207D01*
X51061Y34320D02*
X61230D01*
X51265Y34297D02*
X61230D01*
X51425Y34275D02*
X61253D01*
X51561Y34252D02*
X61275D01*
X51675Y34229D02*
X61275D01*
X51789Y34206D02*
X61298D01*
X51902Y34183D02*
X61321D01*
X51993Y34161D02*
X61321D01*
X52107Y34138D02*
X61344D01*
X52198Y34115D02*
X61366D01*
X52266Y34093D02*
X61366D01*
X52357Y34070D02*
X61389D01*
X52426Y34047D02*
X61412D01*
X52517Y34024D02*
X61435D01*
X52585Y34001D02*
X61435D01*
X52653Y33979D02*
X61457D01*
X52721Y33956D02*
X61480D01*
X52790Y33933D02*
X61480D01*
X52858Y33911D02*
X61503D01*
X52926Y33888D02*
X61526D01*
X52972Y33865D02*
X61526D01*
X53040Y33842D02*
X61548D01*
X53108Y33819D02*
X61548D01*
X53154Y33797D02*
X61571D01*
X53222Y33774D02*
X61594D01*
X53267Y33751D02*
X61594D01*
X53313Y33729D02*
X61617D01*
X53381Y33706D02*
X61639D01*
X53427Y33683D02*
X61639D01*
X53472Y33660D02*
X61662D01*
X53518Y33637D02*
X61685D01*
X53563Y33615D02*
X61685D01*
X53631Y33592D02*
X61708D01*
X53677Y33569D02*
X61708D01*
X53722Y33547D02*
X61730D01*
X53768Y33524D02*
X61753D01*
X53813Y33501D02*
X61753D01*
X53859Y33478D02*
X61776D01*
X53882Y33456D02*
X61799D01*
X53927Y33433D02*
X61799D01*
X53973Y33410D02*
X61821D01*
X54018Y33387D02*
X61821D01*
X54064Y33364D02*
X61844D01*
X54109Y33342D02*
X61844D01*
X54132Y33319D02*
X61867D01*
X54177Y33296D02*
X61890D01*
X54223Y33274D02*
X61890D01*
X54268Y33251D02*
X61912D01*
X54291Y33228D02*
X61912D01*
X54337Y33205D02*
X61935D01*
X54382Y33182D02*
X61958D01*
X54405Y33160D02*
X61958D01*
X54450Y33137D02*
X61981D01*
X54473Y33114D02*
X61981D01*
X54519Y33092D02*
X62003D01*
X54541Y33069D02*
X62003D01*
X54587Y33046D02*
X62026D01*
X54610Y33023D02*
X62026D01*
X54655Y33000D02*
X62049D01*
X54678Y32978D02*
X62072D01*
X54723Y32955D02*
X62072D01*
X54746Y32932D02*
X62094D01*
X54792Y32910D02*
X62094D01*
X54814Y32887D02*
X62117D01*
X54837Y32864D02*
X62117D01*
X54883Y32841D02*
X62140D01*
X54905Y32818D02*
X62140D01*
X54951Y32796D02*
X62163D01*
X54974Y32773D02*
X62163D01*
X54996Y32750D02*
X62185D01*
X55019Y32728D02*
X62185D01*
X55065Y32705D02*
X62208D01*
X55087Y32682D02*
X62231D01*
X55110Y32659D02*
X62231D01*
X55156Y32636D02*
X62254D01*
X55178Y32614D02*
X62254D01*
X55201Y32591D02*
X62276D01*
X55224Y32568D02*
X62276D01*
X55269Y32546D02*
X62299D01*
X55292Y32523D02*
X62299D01*
X55315Y32500D02*
X62322D01*
X55338Y32477D02*
X62322D01*
X55360Y32454D02*
X62345D01*
X55383Y32432D02*
X62345D01*
X55429Y32409D02*
X62367D01*
X55451Y32386D02*
X62367D01*
X55474Y32364D02*
X62367D01*
X55497Y32341D02*
X62390D01*
X55520Y32318D02*
X62390D01*
X55542Y32295D02*
X62413D01*
X55565Y32272D02*
X62413D01*
X55588Y32250D02*
X62436D01*
X55611Y32227D02*
X62436D01*
X55656Y32204D02*
X62458D01*
X55679Y32182D02*
X62458D01*
X55702Y32159D02*
X62481D01*
X36705D02*
X45373D01*
X55724Y32136D02*
X62481D01*
X36660D02*
X45419D01*
X55747Y32113D02*
X62504D01*
X36637D02*
X45441D01*
X55770Y32090D02*
X62504D01*
X36614D02*
X45464D01*
X55793Y32068D02*
X62527D01*
X36614D02*
X45464D01*
X55815Y32045D02*
X62527D01*
X36592D02*
X45487D01*
X55838Y32022D02*
X62527D01*
X36592D02*
X45487D01*
X55861Y31999D02*
X62549D01*
X36592D02*
X45510D01*
X55884Y31977D02*
X62549D01*
X36592D02*
X45532D01*
X55906Y31954D02*
X62572D01*
X36592D02*
X45532D01*
X55929Y31931D02*
X62572D01*
X36592D02*
X45555D01*
X55952Y31909D02*
X62595D01*
X36592D02*
X45555D01*
X55975Y31886D02*
X62595D01*
X36592D02*
X45578D01*
X55997Y31863D02*
X62618D01*
X36592D02*
X45578D01*
X55997Y31840D02*
X62618D01*
X36592D02*
X45601D01*
X56020Y31817D02*
X62618D01*
X36592D02*
X45623D01*
X56043Y31795D02*
X62640D01*
X36592D02*
X45623D01*
X56066Y31772D02*
X62640D01*
X36592D02*
X45646D01*
X56088Y31749D02*
X62663D01*
X36592D02*
X45646D01*
X56111Y31727D02*
X62663D01*
X36592D02*
X45669D01*
X56134Y31704D02*
X62663D01*
X36592D02*
X45669D01*
X56157Y31681D02*
X62686D01*
X36592D02*
X45692D01*
X56179Y31658D02*
X62686D01*
X36592D02*
X45714D01*
X56202Y31635D02*
X62709D01*
X36592D02*
X45714D01*
X56202Y31613D02*
X62709D01*
X36592D02*
X45737D01*
X56225Y31590D02*
X62731D01*
X36592D02*
X45737D01*
X56248Y31567D02*
X62731D01*
X36592D02*
X45760D01*
X56270Y31545D02*
X62731D01*
X36592D02*
X45783D01*
X56293Y31522D02*
X62754D01*
X36592D02*
X45783D01*
X56316Y31499D02*
X62754D01*
X36592D02*
X45805D01*
X56339Y31476D02*
X62777D01*
X36592D02*
X45805D01*
X56339Y31453D02*
X62777D01*
X36592D02*
X45828D01*
X56361Y31431D02*
X62777D01*
X36592D02*
X45828D01*
X56384Y31408D02*
X62800D01*
X36592D02*
X45851D01*
X56407Y31385D02*
X62800D01*
X36592D02*
X45874D01*
X56430Y31363D02*
X62800D01*
X36592D02*
X45874D01*
X56430Y31340D02*
X62822D01*
X36592D02*
X45896D01*
X56452Y31317D02*
X62822D01*
X36592D02*
X45896D01*
X56475Y31294D02*
X62845D01*
X36592D02*
X45919D01*
X56498Y31271D02*
X62845D01*
X36592D02*
X45919D01*
X56521Y31249D02*
X62845D01*
X36592D02*
X45942D01*
X56521Y31226D02*
X62868D01*
X36592D02*
X45965D01*
X56543Y31203D02*
X62868D01*
X36592D02*
X45965D01*
X56566Y31181D02*
X62868D01*
X36592D02*
X45987D01*
X56589Y31158D02*
X62891D01*
X36592D02*
X45987D01*
X56589Y31135D02*
X62891D01*
X36592D02*
X46010D01*
X56612Y31112D02*
X62913D01*
X36592D02*
X46033D01*
X56634Y31089D02*
X62913D01*
X36592D02*
X46033D01*
X56657Y31067D02*
X62913D01*
X36592D02*
X46056D01*
X56657Y31044D02*
X62936D01*
X36592D02*
X46056D01*
X56680Y31021D02*
X62936D01*
X36592D02*
X46078D01*
X56703Y30999D02*
X62936D01*
X36592D02*
X46078D01*
X56703Y30976D02*
X62959D01*
X36592D02*
X46101D01*
X56725Y30953D02*
X62959D01*
X36592D02*
X46124D01*
X56748Y30930D02*
X62959D01*
X36592D02*
X46124D01*
X56748Y30907D02*
X62982D01*
X36592D02*
X46147D01*
X56771Y30885D02*
X62982D01*
X36592D02*
X46147D01*
X56794Y30862D02*
X62982D01*
X36592D02*
X46169D01*
X56816Y30839D02*
X63004D01*
X36592D02*
X46169D01*
X56816Y30817D02*
X63004D01*
X36592D02*
X46192D01*
X56839Y30794D02*
X63004D01*
X36592D02*
X46215D01*
X56862Y30771D02*
X63027D01*
X36592D02*
X46215D01*
X56862Y30748D02*
X63027D01*
X36592D02*
X46238D01*
X56885Y30725D02*
X63027D01*
X36592D02*
X46238D01*
X56885Y30703D02*
X63050D01*
X36592D02*
X46260D01*
X56907Y30680D02*
X63050D01*
X36592D02*
X46260D01*
X56930Y30657D02*
X63050D01*
X36592D02*
X46283D01*
X56930Y30634D02*
X63073D01*
X36592D02*
X46306D01*
X56953Y30612D02*
X63073D01*
X36592D02*
X46306D01*
X56976Y30589D02*
X63073D01*
X36592D02*
X46329D01*
X56976Y30566D02*
X63095D01*
X36592D02*
X46329D01*
X56998Y30544D02*
X63095D01*
X36592D02*
X46351D01*
X56998Y30521D02*
X63095D01*
X36592D02*
X46374D01*
X57021Y30498D02*
X63118D01*
X36592D02*
X46374D01*
X57044Y30475D02*
X63118D01*
X36592D02*
X46397D01*
X57044Y30452D02*
X63118D01*
X36592D02*
X46397D01*
X57067Y30430D02*
X63118D01*
X36592D02*
X46420D01*
X57067Y30407D02*
X63141D01*
X36592D02*
X46420D01*
X57089Y30384D02*
X63141D01*
X36592D02*
X46442D01*
X57089Y30362D02*
X63141D01*
X36592D02*
X46465D01*
X57112Y30339D02*
X63164D01*
X36592D02*
X46465D01*
X57135Y30316D02*
X63164D01*
X36592D02*
X46488D01*
X57135Y30293D02*
X63164D01*
X36592D02*
X46488D01*
X57158Y30270D02*
X63186D01*
X36592D02*
X46511D01*
X57158Y30248D02*
X63186D01*
X36592D02*
X46511D01*
X57180Y30225D02*
X63186D01*
X36592D02*
X46533D01*
X57180Y30202D02*
X63186D01*
X36592D02*
X46556D01*
X57203Y30180D02*
X63209D01*
X36592D02*
X46556D01*
X57203Y30157D02*
X63209D01*
X36592D02*
X46579D01*
X57226Y30134D02*
X63209D01*
X36592D02*
X46579D01*
X57226Y30111D02*
X63209D01*
X36592D02*
X46602D01*
X57249Y30088D02*
X63232D01*
X36592D02*
X46602D01*
X57249Y30066D02*
X63232D01*
X36592D02*
X46624D01*
X57271Y30043D02*
X63232D01*
X36592D02*
X46647D01*
X57271Y30020D02*
X63255D01*
X36592D02*
X46647D01*
X57294Y29998D02*
X63255D01*
X36592D02*
X46670D01*
X57294Y29975D02*
X63255D01*
X36592D02*
X46670D01*
X57317Y29952D02*
X63255D01*
X36592D02*
X46693D01*
X57317Y29929D02*
X63277D01*
X36592D02*
X46715D01*
X57340Y29906D02*
X63277D01*
X36592D02*
X46715D01*
X57340Y29884D02*
X63277D01*
X36592D02*
X46738D01*
X57362Y29861D02*
X63277D01*
X36592D02*
X46738D01*
X57362Y29838D02*
X63300D01*
X36592D02*
X46761D01*
X57385Y29816D02*
X63300D01*
X36592D02*
X46761D01*
X57385Y29793D02*
X63300D01*
X36592D02*
X46784D01*
X57408Y29770D02*
X63300D01*
X36592D02*
X46806D01*
X57408Y29747D02*
X63323D01*
X36592D02*
X46806D01*
X57431Y29724D02*
X63323D01*
X36592D02*
X46829D01*
X57431Y29702D02*
X63323D01*
X36592D02*
X46829D01*
X57453Y29679D02*
X63323D01*
X36592D02*
X46852D01*
X57453Y29656D02*
X63346D01*
X36592D02*
X46852D01*
X57453Y29634D02*
X63346D01*
X36592D02*
X46875D01*
X57476Y29611D02*
X63346D01*
X36592D02*
X46897D01*
X57476Y29588D02*
X63346D01*
X36592D02*
X46897D01*
X57499Y29565D02*
X63346D01*
X36592D02*
X46920D01*
X57499Y29542D02*
X63368D01*
X36592D02*
X46920D01*
X57522Y29520D02*
X63368D01*
X36592D02*
X46943D01*
X57522Y29497D02*
X63368D01*
X36592D02*
X46943D01*
X57522Y29474D02*
X63368D01*
X36592D02*
X46966D01*
X57544Y29452D02*
X63391D01*
X36592D02*
X46988D01*
X57544Y29429D02*
X63391D01*
X36592D02*
X46988D01*
X57567Y29406D02*
X63391D01*
X36592D02*
X47011D01*
X57567Y29383D02*
X63391D01*
X36592D02*
X47011D01*
X57567Y29360D02*
X63391D01*
X36592D02*
X47034D01*
X57590Y29338D02*
X63414D01*
X36592D02*
X47057D01*
X57590Y29315D02*
X63414D01*
X36592D02*
X47057D01*
X57613Y29292D02*
X63414D01*
X36592D02*
X47079D01*
X57613Y29269D02*
X63414D01*
X36592D02*
X47079D01*
X57613Y29247D02*
X63414D01*
X36592D02*
X47102D01*
X57635Y29224D02*
X63437D01*
X36592D02*
X47102D01*
X57635Y29201D02*
X63437D01*
X36592D02*
X47125D01*
X57635Y29179D02*
X63437D01*
X36592D02*
X47148D01*
X57658Y29156D02*
X63437D01*
X36592D02*
X47148D01*
X57658Y29133D02*
X63437D01*
X36592D02*
X47170D01*
X57681Y29110D02*
X63459D01*
X36592D02*
X47170D01*
X57681Y29087D02*
X63459D01*
X36592D02*
X47193D01*
X57681Y29065D02*
X63459D01*
X36592D02*
X47193D01*
X57704Y29042D02*
X63459D01*
X36592D02*
X47216D01*
X57704Y29019D02*
X63459D01*
X36592D02*
X47239D01*
X57704Y28997D02*
X63482D01*
X36592D02*
X47239D01*
X57726Y28974D02*
X63482D01*
X36592D02*
X47261D01*
X57726Y28951D02*
X63482D01*
X36592D02*
X47261D01*
X57726Y28928D02*
X63482D01*
X36592D02*
X47284D01*
X57749Y28905D02*
X63482D01*
X36592D02*
X47307D01*
X57749Y28883D02*
X63482D01*
X36592D02*
X47307D01*
X57749Y28860D02*
X63505D01*
X36592D02*
X47330D01*
X57772Y28837D02*
X63505D01*
X36592D02*
X47330D01*
X57772Y28815D02*
X63505D01*
X36592D02*
X47352D01*
X57772Y28792D02*
X63505D01*
X36592D02*
X47352D01*
X57772Y28769D02*
X63505D01*
X36592D02*
X47375D01*
X57795Y28746D02*
X63505D01*
X36592D02*
X47398D01*
X57795Y28723D02*
X63528D01*
X36592D02*
X47398D01*
X57795Y28701D02*
X63528D01*
X36592D02*
X47421D01*
X57817Y28678D02*
X63528D01*
X36592D02*
X47421D01*
X57817Y28655D02*
X63528D01*
X36592D02*
X47443D01*
X57817Y28633D02*
X63528D01*
X36592D02*
X47443D01*
X57817Y28610D02*
X63528D01*
X36592D02*
X47466D01*
X57840Y28587D02*
X63550D01*
X36592D02*
X47489D01*
X57840Y28564D02*
X63550D01*
X36592D02*
X47489D01*
X57840Y28541D02*
X63550D01*
X36592D02*
X47512D01*
X57840Y28519D02*
X63550D01*
X36592D02*
X47512D01*
X57863Y28496D02*
X63550D01*
X36592D02*
X47534D01*
X57863Y28473D02*
X63550D01*
X36592D02*
X47534D01*
X57863Y28451D02*
X63550D01*
X36592D02*
X47557D01*
X57886Y28428D02*
X63573D01*
X36592D02*
X47580D01*
X57886Y28405D02*
X63573D01*
X36592D02*
X47580D01*
X57886Y28382D02*
X63573D01*
X36592D02*
X47603D01*
X57886Y28359D02*
X63573D01*
X36592D02*
X47603D01*
X57886Y28337D02*
X63573D01*
X36592D02*
X47625D01*
X57908Y28314D02*
X63573D01*
X36592D02*
X47648D01*
X57908Y28291D02*
X63573D01*
X36592D02*
X47648D01*
X57908Y28269D02*
X63573D01*
X36592D02*
X47671D01*
X57908Y28246D02*
X63596D01*
X36592D02*
X47671D01*
X57931Y28223D02*
X63596D01*
X36592D02*
X47694D01*
X57931Y28200D02*
X63596D01*
X36592D02*
X47694D01*
X57931Y28177D02*
X63596D01*
X36592D02*
X47716D01*
X57931Y28155D02*
X63596D01*
X36592D02*
X47739D01*
X57931Y28132D02*
X63596D01*
X36592D02*
X47739D01*
X57954Y28109D02*
X63596D01*
X36592D02*
X47762D01*
X57954Y28087D02*
X63596D01*
X36592D02*
X47762D01*
X57954Y28064D02*
X63619D01*
X36592D02*
X47785D01*
X57954Y28041D02*
X63619D01*
X36592D02*
X47785D01*
X57954Y28018D02*
X63619D01*
X36592D02*
X47807D01*
X57977Y27995D02*
X63619D01*
X36592D02*
X47830D01*
X57977Y27973D02*
X63619D01*
X36592D02*
X47830D01*
X57977Y27950D02*
X63619D01*
X36592D02*
X47853D01*
X57977Y27927D02*
X63619D01*
X36592D02*
X47853D01*
X57977Y27904D02*
X63619D01*
X36592D02*
X47876D01*
X57999Y27882D02*
X63619D01*
X36592D02*
X47876D01*
X57999Y27859D02*
X63619D01*
X36592D02*
X47898D01*
X57999Y27836D02*
X63641D01*
X36592D02*
X47921D01*
X57999Y27814D02*
X63641D01*
X36592D02*
X47921D01*
X57999Y27791D02*
X63641D01*
X36592D02*
X47944D01*
X57999Y27768D02*
X63641D01*
X36592D02*
X47944D01*
X57999Y27745D02*
X63641D01*
X36592D02*
X47967D01*
X58022Y27722D02*
X63641D01*
X36592D02*
X47989D01*
X58022Y27700D02*
X63641D01*
X36592D02*
X47989D01*
X58022Y27677D02*
X63641D01*
X36592D02*
X48012D01*
X58022Y27654D02*
X63641D01*
X36592D02*
X48012D01*
X58022Y27632D02*
X63641D01*
X36592D02*
X48035D01*
X58022Y27609D02*
X63641D01*
X36592D02*
X48035D01*
X58022Y27586D02*
X63641D01*
X36592D02*
X48058D01*
X58045Y27563D02*
X63664D01*
X36592D02*
X48080D01*
X58045Y27540D02*
X63664D01*
X36592D02*
X48080D01*
X58045Y27518D02*
X63664D01*
X36592D02*
X48103D01*
X58045Y27495D02*
X63664D01*
X36592D02*
X48103D01*
X58045Y27472D02*
X63664D01*
X36592D02*
X48126D01*
X58045Y27450D02*
X63664D01*
X36592D02*
X48126D01*
X58045Y27427D02*
X63664D01*
X36592D02*
X48149D01*
X58045Y27404D02*
X63664D01*
X36592D02*
X48171D01*
X58045Y27381D02*
X63664D01*
X36592D02*
X48171D01*
X58068Y27358D02*
X63664D01*
X36592D02*
X48194D01*
X58068Y27336D02*
X63664D01*
X36592D02*
X48194D01*
X58068Y27313D02*
X63664D01*
X36592D02*
X48217D01*
X58068Y27290D02*
X63664D01*
X36592D02*
X48240D01*
X58068Y27268D02*
X63664D01*
X36592D02*
X48240D01*
X58068Y27245D02*
X63664D01*
X36592D02*
X48262D01*
X58068Y27222D02*
X63664D01*
X36592D02*
X48262D01*
X58068Y27199D02*
X63664D01*
X36592D02*
X48285D01*
X58068Y27176D02*
X63687D01*
X36592D02*
X48285D01*
X58068Y27154D02*
X63687D01*
X36592D02*
X48308D01*
X58068Y27131D02*
X63687D01*
X36592D02*
X48331D01*
X58090Y27108D02*
X63687D01*
X36592D02*
X48331D01*
X58090Y27086D02*
X63687D01*
X36592D02*
X48353D01*
X58090Y27063D02*
X63687D01*
X36592D02*
X48353D01*
X58090Y27040D02*
X63687D01*
X36592D02*
X48376D01*
X58090Y27017D02*
X63687D01*
X36592D02*
X48376D01*
X58090Y26994D02*
X63687D01*
X36592D02*
X48399D01*
X58090Y26972D02*
X63687D01*
X36592D02*
X48422D01*
X58090Y26949D02*
X63687D01*
X36592D02*
X48422D01*
X58090Y26926D02*
X63687D01*
X36592D02*
X48444D01*
X58090Y26904D02*
X63687D01*
X36592D02*
X48444D01*
X58090Y26881D02*
X63687D01*
X36592D02*
X48467D01*
X58090Y26858D02*
X63687D01*
X36592D02*
X48467D01*
X58090Y26835D02*
X63687D01*
X36592D02*
X48490D01*
X58090Y26812D02*
X63687D01*
X36592D02*
X48513D01*
X58090Y26790D02*
X63687D01*
X36592D02*
X48513D01*
X58090Y26767D02*
X63687D01*
X36592D02*
X48513D01*
X58090Y26744D02*
X63687D01*
X36592D02*
X48513D01*
X58090Y26722D02*
X63687D01*
X36592D02*
X48513D01*
X58090Y26699D02*
X63687D01*
X36592D02*
X48513D01*
X58090Y26676D02*
X63687D01*
X36592D02*
X48513D01*
X58090Y26653D02*
X63687D01*
X36592D02*
X48513D01*
X58090Y26630D02*
X63687D01*
X36592D02*
X48490D01*
X58090Y26608D02*
X63687D01*
X36592D02*
X48467D01*
X58090Y26585D02*
X63687D01*
X36592D02*
X48422D01*
X58090Y26562D02*
X63687D01*
X36592D02*
X42302D01*
X58090Y26539D02*
X63687D01*
X36592D02*
X42256D01*
X58090Y26517D02*
X63687D01*
X36592D02*
X42234D01*
X58090Y26494D02*
X63687D01*
X36592D02*
X42211D01*
X58090Y26471D02*
X63687D01*
X36592D02*
X42211D01*
X58090Y26449D02*
X63687D01*
X36592D02*
X42188D01*
X58090Y26426D02*
X63687D01*
X36592D02*
X42188D01*
X58090Y26403D02*
X63687D01*
X36592D02*
X42188D01*
X58090Y26380D02*
X63687D01*
X36592D02*
X42188D01*
X58090Y26357D02*
X63687D01*
X36592D02*
X42188D01*
X58090Y26335D02*
X63687D01*
X36592D02*
X42188D01*
X58090Y26312D02*
X63687D01*
X36592D02*
X42188D01*
X58090Y26289D02*
X63687D01*
X36592D02*
X42188D01*
X58090Y26267D02*
X63687D01*
X36592D02*
X42188D01*
X58090Y26244D02*
X63687D01*
X36614D02*
X42188D01*
X58090Y26221D02*
X63687D01*
X36614D02*
X42188D01*
X58090Y26198D02*
X63687D01*
X36614D02*
X42211D01*
X58090Y26175D02*
X63687D01*
X36614D02*
X42211D01*
X58090Y26153D02*
X63687D01*
X36614D02*
X42211D01*
X58090Y26130D02*
X63687D01*
X36614D02*
X42211D01*
X58090Y26107D02*
X63687D01*
X36614D02*
X42211D01*
X58090Y26085D02*
X63687D01*
X36614D02*
X42211D01*
X58068Y26062D02*
X63687D01*
X36614D02*
X42211D01*
X58068Y26039D02*
X63687D01*
X36614D02*
X42211D01*
X58068Y26016D02*
X63687D01*
X36614D02*
X42211D01*
X58068Y25993D02*
X63664D01*
X36614D02*
X42211D01*
X58068Y25971D02*
X63664D01*
X36614D02*
X42211D01*
X58068Y25948D02*
X63664D01*
X36614D02*
X42211D01*
X58068Y25925D02*
X63664D01*
X36614D02*
X42211D01*
X58068Y25903D02*
X63664D01*
X36614D02*
X42211D01*
X58068Y25880D02*
X63664D01*
X36614D02*
X42211D01*
X58068Y25857D02*
X63664D01*
X36614D02*
X42234D01*
X58068Y25834D02*
X63664D01*
X36614D02*
X42234D01*
X58068Y25811D02*
X63664D01*
X36614D02*
X42234D01*
X58045Y25789D02*
X63664D01*
X36614D02*
X42234D01*
X58045Y25766D02*
X63664D01*
X36614D02*
X42234D01*
X58045Y25743D02*
X63664D01*
X36614D02*
X42234D01*
X58045Y25721D02*
X63664D01*
X36614D02*
X42234D01*
X58045Y25698D02*
X63664D01*
X36637D02*
X42234D01*
X58045Y25675D02*
X63664D01*
X36637D02*
X42234D01*
X58045Y25652D02*
X63664D01*
X36637D02*
X42234D01*
X58045Y25629D02*
X63664D01*
X36637D02*
X42256D01*
X58045Y25607D02*
X63641D01*
X36637D02*
X42256D01*
X58022Y25584D02*
X63641D01*
X36637D02*
X42256D01*
X58022Y25561D02*
X63641D01*
X36637D02*
X42256D01*
X58022Y25539D02*
X63641D01*
X36637D02*
X42256D01*
X58022Y25516D02*
X63641D01*
X36637D02*
X42256D01*
X58022Y25493D02*
X63641D01*
X36637D02*
X42256D01*
X58022Y25470D02*
X63641D01*
X36637D02*
X42279D01*
X58022Y25447D02*
X63641D01*
X36637D02*
X42279D01*
X57999Y25425D02*
X63641D01*
X36637D02*
X42279D01*
X57999Y25402D02*
X63641D01*
X36660D02*
X42279D01*
X57999Y25379D02*
X63641D01*
X36660D02*
X42279D01*
X57999Y25357D02*
X63641D01*
X36660D02*
X42279D01*
X57999Y25334D02*
X63619D01*
X36660D02*
X42279D01*
X57999Y25311D02*
X63619D01*
X36660D02*
X42302D01*
X57977Y25288D02*
X63619D01*
X36660D02*
X42302D01*
X57977Y25265D02*
X63619D01*
X36660D02*
X42302D01*
X57977Y25243D02*
X63619D01*
X36660D02*
X42302D01*
X57977Y25220D02*
X63619D01*
X36660D02*
X42302D01*
X57977Y25197D02*
X63619D01*
X36660D02*
X42302D01*
X57977Y25174D02*
X63619D01*
X36660D02*
X42325D01*
X57954Y25152D02*
X63619D01*
X36683D02*
X42325D01*
X57954Y25129D02*
X63619D01*
X36683D02*
X42325D01*
X57954Y25106D02*
X63596D01*
X36683D02*
X42325D01*
X57954Y25084D02*
X63596D01*
X36683D02*
X42325D01*
X57954Y25061D02*
X63596D01*
X36683D02*
X42347D01*
X57931Y25038D02*
X63596D01*
X36683D02*
X42347D01*
X57931Y25015D02*
X63596D01*
X36683D02*
X42347D01*
X57931Y24993D02*
X63596D01*
X36683D02*
X42347D01*
X57931Y24970D02*
X63596D01*
X36683D02*
X42347D01*
X57931Y24947D02*
X63596D01*
X36705D02*
X42370D01*
X57908Y24924D02*
X63596D01*
X36705D02*
X42370D01*
X57908Y24902D02*
X63573D01*
X36705D02*
X42370D01*
X57908Y24879D02*
X63573D01*
X36705D02*
X42370D01*
X57908Y24856D02*
X63573D01*
X36705D02*
X42370D01*
X57886Y24833D02*
X63573D01*
X36705D02*
X42393D01*
X57886Y24811D02*
X63573D01*
X36705D02*
X42393D01*
X57886Y24788D02*
X63573D01*
X36705D02*
X42393D01*
X57886Y24765D02*
X63573D01*
X36728D02*
X42393D01*
X57863Y24742D02*
X63550D01*
X36728D02*
X42416D01*
X57863Y24720D02*
X63550D01*
X36728D02*
X42416D01*
X57863Y24697D02*
X63550D01*
X36728D02*
X42416D01*
X57863Y24674D02*
X63550D01*
X36728D02*
X42416D01*
X57863Y24651D02*
X63550D01*
X36728D02*
X42416D01*
X57840Y24629D02*
X63550D01*
X36728D02*
X42438D01*
X57840Y24606D02*
X63550D01*
X36751D02*
X42438D01*
X57840Y24583D02*
X63528D01*
X36751D02*
X42438D01*
X57817Y24560D02*
X63528D01*
X36751D02*
X42461D01*
X57817Y24538D02*
X63528D01*
X36751D02*
X42461D01*
X57817Y24515D02*
X63528D01*
X36751D02*
X42461D01*
X57817Y24492D02*
X63528D01*
X36751D02*
X42461D01*
X57795Y24469D02*
X63528D01*
X36751D02*
X42484D01*
X57795Y24446D02*
X63528D01*
X36774D02*
X42484D01*
X57795Y24424D02*
X63505D01*
X36774D02*
X42484D01*
X57795Y24401D02*
X63505D01*
X36774D02*
X42484D01*
X57772Y24378D02*
X63505D01*
X36774D02*
X42507D01*
X57772Y24355D02*
X63505D01*
X36774D02*
X42507D01*
X57772Y24333D02*
X63505D01*
X36774D02*
X42507D01*
X57749Y24310D02*
X63505D01*
X36796D02*
X42529D01*
X57749Y24287D02*
X63482D01*
X36796D02*
X42529D01*
X57749Y24264D02*
X63482D01*
X36796D02*
X42529D01*
X57726Y24242D02*
X63482D01*
X36796D02*
X42552D01*
X57726Y24219D02*
X63482D01*
X36796D02*
X42552D01*
X57726Y24196D02*
X63482D01*
X36796D02*
X42552D01*
X57704Y24173D02*
X63459D01*
X36819D02*
X42552D01*
X57704Y24151D02*
X63459D01*
X36819D02*
X42575D01*
X57704Y24128D02*
X63459D01*
X36819D02*
X42575D01*
X57681Y24105D02*
X63459D01*
X36819D02*
X42575D01*
X57681Y24082D02*
X63459D01*
X36819D02*
X42598D01*
X57681Y24060D02*
X63459D01*
X36842D02*
X42598D01*
X57658Y24037D02*
X63437D01*
X36842D02*
X42598D01*
X57658Y24014D02*
X63437D01*
X36842D02*
X42620D01*
X57658Y23991D02*
X63437D01*
X36842D02*
X42620D01*
X57635Y23969D02*
X63437D01*
X36842D02*
X42620D01*
X57635Y23946D02*
X63437D01*
X36865D02*
X42643D01*
X57635Y23923D02*
X63414D01*
X36865D02*
X42643D01*
X57613Y23900D02*
X63414D01*
X36865D02*
X42643D01*
X57613Y23878D02*
X63414D01*
X36865D02*
X42666D01*
X57613Y23855D02*
X63414D01*
X36865D02*
X42666D01*
X57590Y23832D02*
X63414D01*
X36887D02*
X42689D01*
X57590Y23810D02*
X63391D01*
X36887D02*
X42689D01*
X57567Y23787D02*
X63391D01*
X36887D02*
X42689D01*
X57567Y23764D02*
X63391D01*
X36887D02*
X42711D01*
X57567Y23741D02*
X63391D01*
X36887D02*
X42711D01*
X57544Y23719D02*
X63368D01*
X36910D02*
X42711D01*
X57544Y23696D02*
X63368D01*
X36910D02*
X42734D01*
X57544Y23673D02*
X63368D01*
X36910D02*
X42734D01*
X57522Y23650D02*
X63368D01*
X36910D02*
X42757D01*
X57522Y23628D02*
X63368D01*
X36910D02*
X42757D01*
X57499Y23605D02*
X63346D01*
X36933D02*
X42757D01*
X57499Y23582D02*
X63346D01*
X36933D02*
X42780D01*
X57476Y23559D02*
X63346D01*
X36933D02*
X42780D01*
X57476Y23537D02*
X63346D01*
X36933D02*
X42802D01*
X57476Y23514D02*
X63323D01*
X36956D02*
X42802D01*
X57453Y23491D02*
X63323D01*
X36956D02*
X42802D01*
X57453Y23468D02*
X63323D01*
X36956D02*
X42825D01*
X57431Y23446D02*
X63323D01*
X36956D02*
X42825D01*
X57431Y23423D02*
X63300D01*
X36978D02*
X42848D01*
X57408Y23400D02*
X63300D01*
X36978D02*
X42848D01*
X57408Y23377D02*
X63300D01*
X36978D02*
X42871D01*
X57408Y23355D02*
X63300D01*
X36978D02*
X42871D01*
X57385Y23332D02*
X63277D01*
X36978D02*
X42893D01*
X57385Y23309D02*
X63277D01*
X37001D02*
X42893D01*
X57362Y23286D02*
X63277D01*
X37001D02*
X42893D01*
X57362Y23264D02*
X63277D01*
X37001D02*
X42916D01*
X57340Y23241D02*
X63255D01*
X37001D02*
X42916D01*
X57340Y23218D02*
X63255D01*
X37024D02*
X42939D01*
X57317Y23195D02*
X63255D01*
X37024D02*
X42939D01*
X57317Y23173D02*
X63255D01*
X37024D02*
X42962D01*
X57294Y23150D02*
X63232D01*
X37024D02*
X42962D01*
X57294Y23127D02*
X63232D01*
X37047D02*
X42984D01*
X57271Y23104D02*
X63232D01*
X37047D02*
X42984D01*
X57271Y23081D02*
X63232D01*
X37047D02*
X43007D01*
X57249Y23059D02*
X63209D01*
X37069D02*
X43007D01*
X57249Y23036D02*
X63209D01*
X37069D02*
X43030D01*
X57226Y23013D02*
X63209D01*
X37069D02*
X43030D01*
X57226Y22990D02*
X63209D01*
X37069D02*
X43053D01*
X57203Y22968D02*
X63186D01*
X37092D02*
X43053D01*
X57203Y22945D02*
X63186D01*
X37092D02*
X43075D01*
X57180Y22922D02*
X63186D01*
X37092D02*
X43075D01*
X57180Y22899D02*
X63164D01*
X37092D02*
X43098D01*
X57158Y22877D02*
X63164D01*
X37115D02*
X43098D01*
X57158Y22854D02*
X63164D01*
X37115D02*
X43121D01*
X57135Y22831D02*
X63164D01*
X37115D02*
X43121D01*
X57135Y22808D02*
X63141D01*
X37138D02*
X43144D01*
X57112Y22786D02*
X63141D01*
X37138D02*
X43144D01*
X57112Y22763D02*
X63141D01*
X37138D02*
X43166D01*
X57089Y22740D02*
X63118D01*
X37138D02*
X43166D01*
X57089Y22717D02*
X63118D01*
X37160D02*
X43189D01*
X57067Y22695D02*
X63118D01*
X37160D02*
X43212D01*
X57044Y22672D02*
X63095D01*
X37160D02*
X43212D01*
X57044Y22649D02*
X63095D01*
X37183D02*
X43235D01*
X57021Y22626D02*
X63095D01*
X37183D02*
X43235D01*
X57021Y22604D02*
X63095D01*
X37183D02*
X43257D01*
X56998Y22581D02*
X63073D01*
X37206D02*
X43257D01*
X56976Y22558D02*
X63073D01*
X37206D02*
X43280D01*
X56976Y22535D02*
X63073D01*
X37206D02*
X43303D01*
X56953Y22513D02*
X63050D01*
X37229D02*
X43303D01*
X56953Y22490D02*
X63050D01*
X37229D02*
X43326D01*
X56930Y22467D02*
X63050D01*
X37229D02*
X43326D01*
X56907Y22445D02*
X63027D01*
X37229D02*
X43348D01*
X56907Y22422D02*
X63027D01*
X37251D02*
X43371D01*
X56885Y22399D02*
X63027D01*
X37251D02*
X43371D01*
X56885Y22376D02*
X63004D01*
X37251D02*
X43394D01*
X56862Y22354D02*
X63004D01*
X37274D02*
X43394D01*
X56839Y22331D02*
X63004D01*
X37274D02*
X43417D01*
X56839Y22308D02*
X62982D01*
X37274D02*
X43439D01*
X56816Y22285D02*
X62982D01*
X37297D02*
X43439D01*
X56794Y22263D02*
X62982D01*
X37297D02*
X43462D01*
X56794Y22240D02*
X62959D01*
X37297D02*
X43485D01*
X56771Y22217D02*
X62959D01*
X37320D02*
X43485D01*
X56748Y22194D02*
X62959D01*
X37320D02*
X43508D01*
X56748Y22172D02*
X62936D01*
X37320D02*
X43530D01*
X56725Y22149D02*
X62936D01*
X37342D02*
X43530D01*
X56703Y22126D02*
X62936D01*
X37342D02*
X43553D01*
X56703Y22103D02*
X62913D01*
X37342D02*
X43576D01*
X56680Y22081D02*
X62913D01*
X37365D02*
X43576D01*
X56657Y22058D02*
X62913D01*
X37365D02*
X43599D01*
X56657Y22035D02*
X62891D01*
X37388D02*
X43621D01*
X56634Y22012D02*
X62891D01*
X37388D02*
X43621D01*
X56612Y21990D02*
X62868D01*
X37388D02*
X43644D01*
X56612Y21967D02*
X62868D01*
X37411D02*
X43667D01*
X56589Y21944D02*
X62868D01*
X37411D02*
X43690D01*
X56566Y21921D02*
X62845D01*
X37411D02*
X43690D01*
X56543Y21899D02*
X62845D01*
X37433D02*
X43712D01*
X56543Y21876D02*
X62845D01*
X37433D02*
X43735D01*
X56521Y21853D02*
X62822D01*
X37433D02*
X43735D01*
X56498Y21830D02*
X62822D01*
X37456D02*
X43758D01*
X56475Y21808D02*
X62822D01*
X37456D02*
X43781D01*
X56475Y21785D02*
X62800D01*
X37479D02*
X43803D01*
X56452Y21762D02*
X62800D01*
X37479D02*
X43803D01*
X56430Y21739D02*
X62777D01*
X37479D02*
X43826D01*
X56407Y21716D02*
X62777D01*
X37502D02*
X43849D01*
X56407Y21694D02*
X62777D01*
X37502D02*
X43872D01*
X56384Y21671D02*
X62754D01*
X37502D02*
X43894D01*
X56361Y21648D02*
X62754D01*
X37524D02*
X43894D01*
X56339Y21625D02*
X62731D01*
X37524D02*
X43917D01*
X56316Y21603D02*
X62731D01*
X37547D02*
X43940D01*
X56316Y21580D02*
X62731D01*
X37547D02*
X43963D01*
X56293Y21557D02*
X62709D01*
X37547D02*
X43985D01*
X56270Y21534D02*
X62709D01*
X37570D02*
X43985D01*
X56248Y21512D02*
X62686D01*
X37570D02*
X44008D01*
X56225Y21489D02*
X62686D01*
X37593D02*
X44031D01*
X56202Y21466D02*
X62686D01*
X37593D02*
X44054D01*
X56179Y21443D02*
X62663D01*
X37593D02*
X44076D01*
X56179Y21421D02*
X62663D01*
X37615D02*
X44099D01*
X56157Y21398D02*
X62640D01*
X37615D02*
X44099D01*
X56134Y21375D02*
X62640D01*
X37638D02*
X44122D01*
X56111Y21352D02*
X62640D01*
X37638D02*
X44145D01*
X56088Y21330D02*
X62618D01*
X37661D02*
X44167D01*
X56066Y21307D02*
X62618D01*
X37661D02*
X44190D01*
X56043Y21284D02*
X62595D01*
X37661D02*
X44213D01*
X56020Y21261D02*
X62595D01*
X37684D02*
X44236D01*
X56020Y21239D02*
X62572D01*
X37684D02*
X44258D01*
X55997Y21216D02*
X62572D01*
X37706D02*
X44281D01*
X55975Y21193D02*
X62572D01*
X37706D02*
X44281D01*
X55952Y21170D02*
X62549D01*
X37729D02*
X44304D01*
X55929Y21148D02*
X62549D01*
X37729D02*
X44327D01*
X55906Y21125D02*
X62527D01*
X37729D02*
X44349D01*
X55884Y21102D02*
X62527D01*
X37752D02*
X44372D01*
X55861Y21080D02*
X62504D01*
X37752D02*
X44395D01*
X55838Y21057D02*
X62504D01*
X37775D02*
X44418D01*
X55815Y21034D02*
X62481D01*
X37775D02*
X44440D01*
X55793Y21011D02*
X62481D01*
X37797D02*
X44463D01*
X55770Y20989D02*
X62481D01*
X37797D02*
X44486D01*
X55747Y20966D02*
X62458D01*
X37820D02*
X44509D01*
X55724Y20943D02*
X62458D01*
X37820D02*
X44531D01*
X55702Y20920D02*
X62436D01*
X37820D02*
X44554D01*
X55679Y20898D02*
X62436D01*
X37843D02*
X44577D01*
X55656Y20875D02*
X62413D01*
X37843D02*
X44600D01*
X55633Y20852D02*
X62413D01*
X37866D02*
X44622D01*
X55611Y20829D02*
X62390D01*
X37866D02*
X44645D01*
X55588Y20807D02*
X62390D01*
X37888D02*
X44668D01*
X55565Y20784D02*
X62367D01*
X37888D02*
X44691D01*
X55542Y20761D02*
X62367D01*
X37911D02*
X44713D01*
X55520Y20738D02*
X62345D01*
X37911D02*
X44736D01*
X55497Y20716D02*
X62345D01*
X37934D02*
X44759D01*
X55451Y20693D02*
X62322D01*
X37934D02*
X44804D01*
X55429Y20670D02*
X62322D01*
X37957D02*
X44827D01*
X55406Y20647D02*
X62299D01*
X37957D02*
X44850D01*
X55383Y20625D02*
X62299D01*
X37979D02*
X44873D01*
X55360Y20602D02*
X62276D01*
X37979D02*
X44895D01*
X55338Y20579D02*
X62276D01*
X38002D02*
X44918D01*
X55315Y20556D02*
X62254D01*
X38002D02*
X44941D01*
X55292Y20534D02*
X62254D01*
X38025D02*
X44964D01*
X55247Y20511D02*
X62231D01*
X38025D02*
X45009D01*
X55224Y20488D02*
X62231D01*
X38048D02*
X45032D01*
X55201Y20465D02*
X62208D01*
X38048D02*
X45055D01*
X55178Y20443D02*
X62208D01*
X38070D02*
X45077D01*
X55156Y20420D02*
X62185D01*
X38070D02*
X45100D01*
X55110Y20397D02*
X62185D01*
X38093D02*
X45146D01*
X55087Y20374D02*
X62163D01*
X38093D02*
X45168D01*
X55065Y20351D02*
X62163D01*
X38116D02*
X45191D01*
X55042Y20329D02*
X62140D01*
X38116D02*
X45214D01*
X54996Y20306D02*
X62140D01*
X38139D02*
X45259D01*
X54974Y20283D02*
X62117D01*
X38139D02*
X45282D01*
X54951Y20260D02*
X62117D01*
X38161D02*
X45305D01*
X54905Y20238D02*
X62094D01*
X38161D02*
X45350D01*
X54883Y20215D02*
X62094D01*
X38184D02*
X45373D01*
X54860Y20192D02*
X62072D01*
X38184D02*
X45396D01*
X54814Y20169D02*
X62072D01*
X38207D02*
X45419D01*
X54792Y20147D02*
X62049D01*
X38207D02*
X45464D01*
X54769Y20124D02*
X62049D01*
X38230D02*
X45487D01*
X54723Y20101D02*
X62026D01*
X38252D02*
X45532D01*
X54701Y20078D02*
X62003D01*
X38252D02*
X45555D01*
X54678Y20056D02*
X62003D01*
X38275D02*
X45578D01*
X54655Y20033D02*
X61981D01*
X38275D02*
X45623D01*
X54632Y20010D02*
X61981D01*
X38298D02*
X45646D01*
X54632Y19987D02*
X61958D01*
X38298D02*
X45692D01*
X54632Y19965D02*
X61958D01*
X38321D02*
X45714D01*
X54632Y19942D02*
X61935D01*
X38321D02*
X45760D01*
X54632Y19919D02*
X61935D01*
X38343D02*
X45783D01*
X54632Y19896D02*
X61912D01*
X38366D02*
X45828D01*
X54655Y19874D02*
X61890D01*
X38366D02*
X45851D01*
X54655Y19851D02*
X61890D01*
X38389D02*
X45896D01*
X54678Y19828D02*
X61867D01*
X38389D02*
X45942D01*
X54678Y19805D02*
X61867D01*
X38412D02*
X45965D01*
X54701Y19783D02*
X61844D01*
X38412D02*
X46010D01*
X54701Y19760D02*
X61821D01*
X38434D02*
X46033D01*
X54723Y19737D02*
X61821D01*
X38457D02*
X46078D01*
X54746Y19715D02*
X61799D01*
X38457D02*
X46124D01*
X54746Y19692D02*
X61799D01*
X38480D02*
X46147D01*
X54769Y19669D02*
X61776D01*
X38480D02*
X46192D01*
X54769Y19646D02*
X61776D01*
X38503D02*
X46238D01*
X54792Y19624D02*
X61753D01*
X38525D02*
X46283D01*
X54792Y19601D02*
X61730D01*
X38525D02*
X46329D01*
X54814Y19578D02*
X61730D01*
X38548D02*
X46351D01*
X54837Y19555D02*
X61708D01*
X38548D02*
X46397D01*
X54837Y19533D02*
X61685D01*
X38571D02*
X46442D01*
X54860Y19510D02*
X61685D01*
X38594D02*
X46488D01*
X54860Y19487D02*
X61662D01*
X38594D02*
X46533D01*
X54883Y19464D02*
X61662D01*
X38616D02*
X46579D01*
X54883Y19442D02*
X61639D01*
X38616D02*
X46624D01*
X54905Y19419D02*
X61617D01*
X38639D02*
X46670D01*
X54928Y19396D02*
X61617D01*
X38662D02*
X46715D01*
X54928Y19373D02*
X61594D01*
X38662D02*
X46761D01*
X54951Y19351D02*
X61594D01*
X38685D02*
X46806D01*
X54951Y19328D02*
X61571D01*
X38707D02*
X46875D01*
X54974Y19305D02*
X61548D01*
X38707D02*
X46920D01*
X54996Y19282D02*
X61548D01*
X38730D02*
X46966D01*
X54996Y19260D02*
X61526D01*
X38730D02*
X47011D01*
X55019Y19237D02*
X61503D01*
X38753D02*
X47079D01*
X55019Y19214D02*
X61503D01*
X38776D02*
X47125D01*
X55042Y19191D02*
X61480D01*
X38776D02*
X47193D01*
X55042Y19169D02*
X61457D01*
X38798D02*
X47239D01*
X55065Y19146D02*
X61457D01*
X38821D02*
X47307D01*
X55087Y19123D02*
X61435D01*
X38821D02*
X47352D01*
X55087Y19100D02*
X61412D01*
X52835D02*
X52903D01*
X38844D02*
X47421D01*
X55110Y19078D02*
X61412D01*
X52767D02*
X52949D01*
X38867D02*
X47489D01*
X55110Y19055D02*
X61389D01*
X52699D02*
X52972D01*
X38867D02*
X47557D01*
X55133Y19032D02*
X61366D01*
X52630D02*
X52994D01*
X38889D02*
X47625D01*
X55133Y19009D02*
X61366D01*
X52562D02*
X53017D01*
X38912D02*
X47694D01*
X55156Y18986D02*
X61344D01*
X52494D02*
X53017D01*
X38912D02*
X47762D01*
X55178Y18964D02*
X61321D01*
X52403D02*
X53040D01*
X38935D02*
X47830D01*
X55178Y18941D02*
X61321D01*
X52335D02*
X53040D01*
X38958D02*
X47898D01*
X55201Y18918D02*
X61298D01*
X52244D02*
X53063D01*
X38958D02*
X47989D01*
X55201Y18895D02*
X61275D01*
X52175D02*
X53085D01*
X38980D02*
X48080D01*
X55224Y18873D02*
X61275D01*
X52084D02*
X53085D01*
X39003D02*
X48149D01*
X55224Y18850D02*
X61253D01*
X51993D02*
X53108D01*
X39003D02*
X48240D01*
X55247Y18827D02*
X61230D01*
X51902D02*
X53108D01*
X39026D02*
X48353D01*
X55269Y18804D02*
X61207D01*
X51789D02*
X53131D01*
X39049D02*
X48444D01*
X55269Y18782D02*
X61207D01*
X51698D02*
X53131D01*
X39071D02*
X48558D01*
X55292Y18759D02*
X61184D01*
X51584D02*
X53154D01*
X39071D02*
X48672D01*
X55292Y18736D02*
X61162D01*
X51447D02*
X53176D01*
X39094D02*
X48808D01*
X55315Y18713D02*
X61162D01*
X51311D02*
X53176D01*
X39117D02*
X48945D01*
X55338Y18691D02*
X61139D01*
X51152D02*
X53199D01*
X39117D02*
X49104D01*
X55338Y18668D02*
X61116D01*
X50970D02*
X53199D01*
X39140D02*
X49286D01*
X55360Y18645D02*
X61093D01*
X50719D02*
X53222D01*
X39162D02*
X49536D01*
X55360Y18622D02*
X61093D01*
X39185D02*
X53222D01*
X55383Y18600D02*
X61071D01*
X39185D02*
X53245D01*
X55383Y18577D02*
X61048D01*
X39208D02*
X53267D01*
X55406Y18554D02*
X61048D01*
X39231D02*
X53267D01*
X55429Y18531D02*
X61025D01*
X39231D02*
X53290D01*
X55429Y18509D02*
X61002D01*
X39253D02*
X53290D01*
X55451Y18486D02*
X60980D01*
X39276D02*
X53313D01*
X55451Y18463D02*
X60980D01*
X39299D02*
X53336D01*
X55474Y18440D02*
X60957D01*
X39299D02*
X53336D01*
X55474Y18418D02*
X60934D01*
X39322D02*
X53358D01*
X55497Y18395D02*
X60911D01*
X39344D02*
X53358D01*
X55520Y18372D02*
X60911D01*
X39367D02*
X53381D01*
X55520Y18350D02*
X60889D01*
X39367D02*
X53381D01*
X55542Y18327D02*
X60866D01*
X39390D02*
X53404D01*
X55542Y18304D02*
X60843D01*
X39413D02*
X53427D01*
X55565Y18281D02*
X60843D01*
X39435D02*
X53427D01*
X55588Y18259D02*
X60820D01*
X39458D02*
X53449D01*
X55588Y18236D02*
X60798D01*
X39458D02*
X53449D01*
X55611Y18213D02*
X60775D01*
X39481D02*
X53472D01*
X55611Y18190D02*
X60752D01*
X39504D02*
X53472D01*
X55633Y18168D02*
X60752D01*
X39526D02*
X53495D01*
X55633Y18145D02*
X60729D01*
X39526D02*
X53518D01*
X55656Y18122D02*
X60707D01*
X39549D02*
X53518D01*
X55679Y18099D02*
X60684D01*
X39572D02*
X53540D01*
X55679Y18077D02*
X60661D01*
X39595D02*
X53540D01*
X55702Y18054D02*
X60661D01*
X39617D02*
X53563D01*
X55702Y18031D02*
X60638D01*
X39640D02*
X53563D01*
X55724Y18008D02*
X60616D01*
X39640D02*
X53586D01*
X55724Y17986D02*
X60593D01*
X39663D02*
X53609D01*
X55747Y17963D02*
X60570D01*
X39686D02*
X53609D01*
X55770Y17940D02*
X60547D01*
X39708D02*
X53631D01*
X55770Y17917D02*
X60547D01*
X39731D02*
X53631D01*
X55793Y17895D02*
X60525D01*
X39731D02*
X53654D01*
X55793Y17872D02*
X60502D01*
X39754D02*
X53677D01*
X55815Y17849D02*
X60479D01*
X39777D02*
X53677D01*
X55815Y17826D02*
X60456D01*
X39799D02*
X53700D01*
X55838Y17804D02*
X60434D01*
X39822D02*
X53700D01*
X55861Y17781D02*
X60434D01*
X39845D02*
X53722D01*
X55861Y17758D02*
X60411D01*
X39868D02*
X53722D01*
X55884Y17735D02*
X60388D01*
X39868D02*
X53745D01*
X55884Y17713D02*
X60365D01*
X39890D02*
X53768D01*
X55906Y17690D02*
X60343D01*
X39913D02*
X53768D01*
X55929Y17667D02*
X60320D01*
X39936D02*
X53791D01*
X55929Y17644D02*
X60297D01*
X39959D02*
X53791D01*
X55952Y17621D02*
X60297D01*
X39981D02*
X53813D01*
X55952Y17599D02*
X60274D01*
X40004D02*
X53813D01*
X55975Y17576D02*
X60252D01*
X40004D02*
X53836D01*
X55975Y17553D02*
X60229D01*
X40027D02*
X53859D01*
X55997Y17530D02*
X60206D01*
X40050D02*
X53859D01*
X56020Y17508D02*
X60183D01*
X40072D02*
X53882D01*
X56020Y17485D02*
X60161D01*
X40095D02*
X53882D01*
X56043Y17462D02*
X60138D01*
X40118D02*
X53904D01*
X56043Y17439D02*
X60115D01*
X40141D02*
X53904D01*
X56066Y17417D02*
X60092D01*
X40163D02*
X53927D01*
X56066Y17394D02*
X60070D01*
X40186D02*
X53950D01*
X56088Y17371D02*
X60070D01*
X40209D02*
X53950D01*
X56111Y17348D02*
X60047D01*
X40232D02*
X53973D01*
X56111Y17326D02*
X60024D01*
X40232D02*
X53973D01*
X56134Y17303D02*
X60001D01*
X40254D02*
X53995D01*
X56134Y17280D02*
X59979D01*
X40277D02*
X54018D01*
X56157Y17257D02*
X59956D01*
X40300D02*
X54018D01*
X56157Y17235D02*
X59933D01*
X40323D02*
X54041D01*
X56179Y17212D02*
X59910D01*
X40345D02*
X54041D01*
X56202Y17189D02*
X59888D01*
X40368D02*
X54064D01*
X56202Y17166D02*
X59865D01*
X40391D02*
X54064D01*
X56225Y17144D02*
X59842D01*
X40414D02*
X54086D01*
X56225Y17121D02*
X59819D01*
X40436D02*
X54109D01*
X56248Y17098D02*
X59797D01*
X40459D02*
X54109D01*
X56270Y17075D02*
X59774D01*
X40482D02*
X54132D01*
X56270Y17053D02*
X59751D01*
X40505D02*
X54132D01*
X56293Y17030D02*
X59728D01*
X40527D02*
X54155D01*
X56293Y17007D02*
X59706D01*
X40550D02*
X54155D01*
X56316Y16984D02*
X59683D01*
X40573D02*
X54177D01*
X56316Y16962D02*
X59660D01*
X40596D02*
X54200D01*
X56339Y16939D02*
X59637D01*
X40618D02*
X54200D01*
X56361Y16916D02*
X59615D01*
X40641D02*
X54223D01*
X56361Y16894D02*
X59592D01*
X40664D02*
X54223D01*
X56384Y16871D02*
X59569D01*
X40687D02*
X54246D01*
X56384Y16848D02*
X59546D01*
X40709D02*
X54268D01*
X56407Y16825D02*
X59524D01*
X40732D02*
X54268D01*
X56407Y16803D02*
X59501D01*
X40755D02*
X54291D01*
X56430Y16780D02*
X59478D01*
X40778D02*
X54291D01*
X56452Y16757D02*
X59455D01*
X40800D02*
X54314D01*
X56452Y16734D02*
X59433D01*
X40823D02*
X54314D01*
X56475Y16712D02*
X59410D01*
X40846D02*
X54337D01*
X56475Y16689D02*
X59387D01*
X40869D02*
X54359D01*
X56498Y16666D02*
X59364D01*
X40891D02*
X54359D01*
X56498Y16643D02*
X59319D01*
X40937D02*
X54382D01*
X56521Y16621D02*
X59296D01*
X40960D02*
X54382D01*
X56543Y16598D02*
X59273D01*
X40982D02*
X54405D01*
X56543Y16575D02*
X59251D01*
X41005D02*
X54405D01*
X56566Y16552D02*
X59228D01*
X41028D02*
X54428D01*
X56566Y16530D02*
X59205D01*
X41051D02*
X54450D01*
X56589Y16507D02*
X59182D01*
X41073D02*
X54450D01*
X56612Y16484D02*
X59160D01*
X41096D02*
X54473D01*
X56612Y16461D02*
X59137D01*
X41119D02*
X54473D01*
X56634Y16439D02*
X59114D01*
X41142D02*
X54496D01*
X56634Y16416D02*
X59069D01*
X41187D02*
X54496D01*
X56657Y16393D02*
X59046D01*
X41210D02*
X54519D01*
X56657Y16370D02*
X59023D01*
X41233D02*
X54541D01*
X56680Y16348D02*
X59000D01*
X41255D02*
X54541D01*
X56703Y16325D02*
X58978D01*
X41278D02*
X54564D01*
X56703Y16302D02*
X58955D01*
X41301D02*
X54564D01*
X56725Y16279D02*
X58909D01*
X41346D02*
X54587D01*
X56725Y16256D02*
X58887D01*
X41369D02*
X54610D01*
X56748Y16234D02*
X58864D01*
X41392D02*
X54610D01*
X56748Y16211D02*
X58841D01*
X41415D02*
X54632D01*
X56771Y16188D02*
X58818D01*
X41437D02*
X54632D01*
X56794Y16165D02*
X58773D01*
X41460D02*
X54655D01*
X56794Y16143D02*
X58750D01*
X41506D02*
X54655D01*
X56816Y16120D02*
X58727D01*
X41528D02*
X54678D01*
X56816Y16097D02*
X58705D01*
X41551D02*
X54701D01*
X56839Y16074D02*
X58682D01*
X41574D02*
X54701D01*
X56862Y16052D02*
X58636D01*
X41619D02*
X54723D01*
X56862Y16029D02*
X58614D01*
X41642D02*
X54723D01*
X56885Y16006D02*
X58591D01*
X41665D02*
X54746D01*
X56885Y15983D02*
X58568D01*
X41688D02*
X54746D01*
X56907Y15961D02*
X58523D01*
X41733D02*
X54769D01*
X56907Y15938D02*
X58500D01*
X41756D02*
X54792D01*
X56930Y15915D02*
X58477D01*
X41779D02*
X54792D01*
X56953Y15892D02*
X58454D01*
X41801D02*
X54814D01*
X56953Y15870D02*
X58409D01*
X41847D02*
X54814D01*
X56976Y15847D02*
X58386D01*
X41870D02*
X54837D01*
X56976Y15824D02*
X58363D01*
X41892D02*
X54837D01*
X56998Y15801D02*
X58318D01*
X41938D02*
X54860D01*
X56998Y15779D02*
X58295D01*
X41961D02*
X54883D01*
X57021Y15756D02*
X58272D01*
X41983D02*
X54883D01*
X57044Y15733D02*
X58227D01*
X42006D02*
X54905D01*
X57044Y15710D02*
X58204D01*
X42052D02*
X54905D01*
X57067Y15688D02*
X58181D01*
X42074D02*
X54928D01*
X57067Y15665D02*
X58136D01*
X42120D02*
X54951D01*
X57089Y15642D02*
X58113D01*
X42143D02*
X54951D01*
X57089Y15619D02*
X58090D01*
X42165D02*
X54974D01*
X57112Y15597D02*
X58045D01*
X42211D02*
X54974D01*
X57135Y15574D02*
X58022D01*
X42234D02*
X54996D01*
X57135Y15551D02*
X57977D01*
X42256D02*
X54996D01*
X57158Y15529D02*
X57954D01*
X42302D02*
X55019D01*
X57158Y15506D02*
X57908D01*
X42325D02*
X55042D01*
X57180Y15483D02*
X57886D01*
X42370D02*
X55042D01*
X57203Y15460D02*
X57863D01*
X42393D02*
X55065D01*
X57203Y15438D02*
X57817D01*
X42438D02*
X55065D01*
X57226Y15415D02*
X57795D01*
X42461D02*
X55087D01*
X57226Y15392D02*
X57749D01*
X42484D02*
X55087D01*
X57249Y15369D02*
X57726D01*
X42529D02*
X55110D01*
X57249Y15347D02*
X57681D01*
X42552D02*
X55133D01*
X57271Y15324D02*
X57658D01*
X42598D02*
X55133D01*
X57294Y15301D02*
X57613D01*
X42620D02*
X55156D01*
X57294Y15278D02*
X57590D01*
X42666D02*
X55156D01*
X57317Y15256D02*
X57544D01*
X42689D02*
X55178D01*
X57340Y15233D02*
X57522D01*
X42734D02*
X55178D01*
X42757Y15210D02*
X55201D01*
X42802Y15187D02*
X55224D01*
X42825Y15165D02*
X55224D01*
X42871Y15142D02*
X55247D01*
X42916Y15119D02*
X55247D01*
X42939Y15096D02*
X55269D01*
X42984Y15074D02*
X55292D01*
X43007Y15051D02*
X55292D01*
X43053Y15028D02*
X55315D01*
X43098Y15005D02*
X55315D01*
X43121Y14983D02*
X55338D01*
X43166Y14960D02*
X55338D01*
X43212Y14937D02*
X55360D01*
X43235Y14914D02*
X55383D01*
X43280Y14891D02*
X55383D01*
X43326Y14869D02*
X55406D01*
X43348Y14846D02*
X55406D01*
X43394Y14823D02*
X55429D01*
X43439Y14800D02*
X55429D01*
X43485Y14778D02*
X55451D01*
X43508Y14755D02*
X55474D01*
X43553Y14732D02*
X55474D01*
X43599Y14709D02*
X55497D01*
X43644Y14687D02*
X55497D01*
X43690Y14664D02*
X55520D01*
X43712Y14641D02*
X55542D01*
X43758Y14618D02*
X55542D01*
X43803Y14596D02*
X55565D01*
X43849Y14573D02*
X55565D01*
X43894Y14550D02*
X55588D01*
X43940Y14527D02*
X55588D01*
X43985Y14505D02*
X55611D01*
X44031Y14482D02*
X55633D01*
X44076Y14459D02*
X55633D01*
X44122Y14436D02*
X55656D01*
X44167Y14414D02*
X55656D01*
X44213Y14391D02*
X55679D01*
X44258Y14368D02*
X55679D01*
X44304Y14345D02*
X55679D01*
X44349Y14323D02*
X55679D01*
X44395Y14300D02*
X55679D01*
X44440Y14277D02*
X55679D01*
X44509Y14254D02*
X55656D01*
X44554Y14232D02*
X55656D01*
X44600Y14209D02*
X55633D01*
X44645Y14186D02*
X55588D01*
X44713Y14164D02*
X55542D01*
X44759Y14141D02*
X55474D01*
X44804Y14118D02*
X55429D01*
X44873Y14095D02*
X55383D01*
X44918Y14073D02*
X55315D01*
X44964Y14050D02*
X55269D01*
X45032Y14027D02*
X55224D01*
X45077Y14004D02*
X55156D01*
X45146Y13982D02*
X55110D01*
X45191Y13959D02*
X55042D01*
X45259Y13936D02*
X54974D01*
X45305Y13913D02*
X54928D01*
X45373Y13891D02*
X54860D01*
X45441Y13868D02*
X54792D01*
X45487Y13845D02*
X54746D01*
X45555Y13822D02*
X54678D01*
X45623Y13800D02*
X54610D01*
X45692Y13777D02*
X54541D01*
X45760Y13754D02*
X54473D01*
X45828Y13731D02*
X54405D01*
X45896Y13709D02*
X54337D01*
X45965Y13686D02*
X54268D01*
X46033Y13663D02*
X54200D01*
X46101Y13640D02*
X54132D01*
X46169Y13618D02*
X54064D01*
X46260Y13595D02*
X53995D01*
X46329Y13572D02*
X53904D01*
X46420Y13549D02*
X53836D01*
X46488Y13526D02*
X53745D01*
X46579Y13504D02*
X53654D01*
X46670Y13481D02*
X53586D01*
X46738Y13458D02*
X53495D01*
X46829Y13435D02*
X53404D01*
X46920Y13413D02*
X53313D01*
X47034Y13390D02*
X53222D01*
X47125Y13367D02*
X53108D01*
X47216Y13344D02*
X53017D01*
X47330Y13322D02*
X52903D01*
X47443Y13299D02*
X52812D01*
X47557Y13276D02*
X52676D01*
X47671Y13253D02*
X52562D01*
X47807Y13231D02*
X52448D01*
X47944Y13208D02*
X52312D01*
X48080Y13185D02*
X52153D01*
X48240Y13162D02*
X52016D01*
X48422Y13140D02*
X51834D01*
X48604Y13117D02*
X51652D01*
X48808Y13094D02*
X51425D01*
X49081Y13071D02*
X51174D01*
X49423Y13049D02*
X50833D01*
D56*
X116142Y41339D02*
D03*
Y31496D02*
D03*
X79134Y41339D02*
D03*
Y31496D02*
D03*
Y19685D02*
D03*
M02*
