G04*
G04 #@! TF.GenerationSoftware,Altium Limited,Altium Designer,20.2.6 (244)*
G04*
G04 Layer_Physical_Order=1*
G04 Layer_Color=255*
%FSLAX25Y25*%
%MOIN*%
G70*
G04*
G04 #@! TF.SameCoordinates,1F00D8FF-E811-4F8C-9FFC-250B1BB78CBF*
G04*
G04*
G04 #@! TF.FilePolarity,Positive*
G04*
G01*
G75*
%ADD10C,0.00984*%
%ADD11C,0.01000*%
%ADD12C,0.00787*%
%ADD14R,0.03347X0.02165*%
%ADD15R,0.02047X0.02047*%
G04:AMPARAMS|DCode=16|XSize=47.24mil|YSize=70.87mil|CornerRadius=11.81mil|HoleSize=0mil|Usage=FLASHONLY|Rotation=0.000|XOffset=0mil|YOffset=0mil|HoleType=Round|Shape=RoundedRectangle|*
%AMROUNDEDRECTD16*
21,1,0.04724,0.04724,0,0,0.0*
21,1,0.02362,0.07087,0,0,0.0*
1,1,0.02362,0.01181,-0.02362*
1,1,0.02362,-0.01181,-0.02362*
1,1,0.02362,-0.01181,0.02362*
1,1,0.02362,0.01181,0.02362*
%
%ADD16ROUNDEDRECTD16*%
%ADD17R,0.01772X0.02165*%
%ADD18R,0.03150X0.02165*%
%ADD19R,0.02165X0.01772*%
%ADD20R,0.04921X0.00984*%
%ADD21R,0.00984X0.04921*%
%ADD22R,0.09449X0.02992*%
%ADD23R,0.02047X0.02047*%
%ADD24R,0.04724X0.03937*%
%ADD25R,0.03150X0.03150*%
%ADD45C,0.03000*%
%ADD46C,0.01772*%
%ADD47C,0.01968*%
%ADD48R,0.03937X0.03543*%
%ADD49R,0.11811X0.03543*%
%ADD50O,0.09449X0.03543*%
%ADD51C,0.02559*%
%ADD52O,0.06693X0.03543*%
%ADD53C,0.01968*%
G36*
X33244Y51303D02*
X33268Y51236D01*
X33308Y51177D01*
X33364Y51126D01*
X33436Y51083D01*
X33524Y51047D01*
X33628Y51020D01*
X33747Y51000D01*
X33883Y50988D01*
X34035Y50984D01*
Y50197D01*
X33883Y50193D01*
X33747Y50181D01*
X33628Y50161D01*
X33524Y50134D01*
X33436Y50098D01*
X33364Y50055D01*
X33308Y50004D01*
X33268Y49945D01*
X33244Y49878D01*
X33236Y49803D01*
Y51378D01*
X33244Y51303D01*
D02*
G37*
G36*
X94688Y50696D02*
X94698Y50615D01*
X94715Y50535D01*
X94739Y50456D01*
X94770Y50379D01*
X94809Y50303D01*
X94855Y50228D01*
X94907Y50154D01*
X94967Y50082D01*
X95035Y50010D01*
X94478Y49454D01*
X94406Y49521D01*
X94334Y49581D01*
X94260Y49634D01*
X94185Y49679D01*
X94109Y49718D01*
X94032Y49749D01*
X93953Y49773D01*
X93874Y49790D01*
X93793Y49801D01*
X93711Y49803D01*
X94685Y50778D01*
X94688Y50696D01*
D02*
G37*
G36*
X91099Y50475D02*
X91093Y50398D01*
X91097Y50322D01*
X91110Y50246D01*
X91132Y50171D01*
X91163Y50096D01*
X91203Y50022D01*
X91253Y49948D01*
X91312Y49875D01*
X91379Y49803D01*
X90678Y49391D01*
X90607Y49458D01*
X90465Y49577D01*
X90392Y49628D01*
X90319Y49674D01*
X90245Y49716D01*
X90170Y49751D01*
X90095Y49782D01*
X90018Y49807D01*
X89941Y49827D01*
X91113Y50552D01*
X91099Y50475D01*
D02*
G37*
G36*
X97877Y50024D02*
X97827Y49960D01*
X97782Y49892D01*
X97744Y49819D01*
X97712Y49742D01*
X97685Y49661D01*
X97664Y49576D01*
X97650Y49487D01*
X97641Y49393D01*
X97638Y49295D01*
X96850D01*
X96847Y49393D01*
X96839Y49487D01*
X96824Y49576D01*
X96803Y49661D01*
X96777Y49742D01*
X96744Y49819D01*
X96706Y49892D01*
X96661Y49960D01*
X96611Y50024D01*
X96555Y50085D01*
X97933D01*
X97877Y50024D01*
D02*
G37*
G36*
X127288Y47638D02*
X127280Y47713D01*
X127256Y47780D01*
X127216Y47839D01*
X127160Y47890D01*
X127088Y47933D01*
X127000Y47969D01*
X126896Y47996D01*
X126776Y48016D01*
X126640Y48028D01*
X126488Y48031D01*
Y48819D01*
X126640Y48823D01*
X126776Y48835D01*
X126896Y48854D01*
X127000Y48882D01*
X127088Y48917D01*
X127160Y48961D01*
X127216Y49012D01*
X127256Y49071D01*
X127280Y49138D01*
X127288Y49213D01*
Y47638D01*
D02*
G37*
G36*
X83702Y48644D02*
X83743Y48640D01*
X83811Y48636D01*
X85042Y48622D01*
Y46654D01*
X83689Y46626D01*
Y47075D01*
X83245Y46631D01*
X83689Y46626D01*
X83957Y45642D01*
X82973D01*
X82968Y45830D01*
X82953Y45999D01*
X82928Y46148D01*
X82894Y46277D01*
X82849Y46387D01*
X82795Y46476D01*
X82731Y46547D01*
X82657Y46597D01*
X82574Y46627D01*
X82480Y46638D01*
X82769Y46635D01*
X82744Y46640D01*
X82672Y46649D01*
X82595Y46657D01*
X83658Y47720D01*
X83666Y47643D01*
X83689Y47504D01*
Y48649D01*
X83702Y48644D01*
D02*
G37*
G36*
X128862Y47359D02*
X128795Y47335D01*
X128736Y47295D01*
X128685Y47239D01*
X128642Y47167D01*
X128606Y47079D01*
X128579Y46975D01*
X128559Y46855D01*
X128547Y46719D01*
X128543Y46567D01*
X127756D01*
X127752Y46719D01*
X127740Y46855D01*
X127720Y46975D01*
X127693Y47079D01*
X127657Y47167D01*
X127614Y47239D01*
X127563Y47295D01*
X127504Y47335D01*
X127437Y47359D01*
X127362Y47366D01*
X128937D01*
X128862Y47359D01*
D02*
G37*
G36*
X141036Y52032D02*
X140736Y51907D01*
X139998Y51341D01*
X139431Y50602D01*
X139075Y49742D01*
X138953Y48819D01*
X139075Y47896D01*
X139431Y47036D01*
X139998Y46297D01*
X140157Y46175D01*
X139987Y45675D01*
X129551D01*
X129061Y46165D01*
Y46500D01*
X129084Y46553D01*
X129088Y46689D01*
X129096Y46788D01*
X129105Y46843D01*
X129535D01*
Y50008D01*
X126764D01*
Y49381D01*
X126709Y49372D01*
X126610Y49363D01*
X126474Y49360D01*
X126421Y49336D01*
X124187D01*
X123838Y49267D01*
X123543Y49069D01*
X121718Y47245D01*
X121520Y46949D01*
X121451Y46600D01*
Y44622D01*
X121428Y44569D01*
X121424Y44434D01*
X121415Y44335D01*
X121406Y44280D01*
X117020D01*
Y40287D01*
X127469D01*
Y44280D01*
X123318D01*
X123309Y44335D01*
X123301Y44434D01*
X123297Y44569D01*
X123273Y44622D01*
Y46223D01*
X124565Y47514D01*
X126421D01*
X126474Y47491D01*
X126610Y47487D01*
X126709Y47478D01*
X126764Y47469D01*
Y46843D01*
X127194D01*
X127203Y46788D01*
X127211Y46689D01*
X127215Y46553D01*
X127238Y46500D01*
Y45787D01*
X127308Y45439D01*
X127505Y45143D01*
X128529Y44120D01*
X128824Y43922D01*
X129173Y43853D01*
X130509D01*
X130660Y43353D01*
X130426Y43196D01*
X130098Y42705D01*
X129983Y42126D01*
X130098Y41547D01*
X130426Y41056D01*
X130917Y40728D01*
X131431Y40626D01*
X131489Y40601D01*
X131740Y40597D01*
X132153Y40572D01*
X132296Y40553D01*
X132374Y40537D01*
Y40287D01*
X132814D01*
X132884Y40258D01*
X132940Y40281D01*
X132999Y40270D01*
X133024Y40287D01*
X142396D01*
Y39279D01*
X132374D01*
Y38558D01*
X131990Y38534D01*
X131796Y38533D01*
X131739Y38509D01*
X131220Y38406D01*
X130729Y38078D01*
X130401Y37587D01*
X130286Y37008D01*
X130401Y36429D01*
X130729Y35938D01*
X131220Y35610D01*
X131735Y35507D01*
X131793Y35482D01*
X132178Y35478D01*
X132374Y35469D01*
Y35287D01*
X142396D01*
Y34780D01*
X138098D01*
Y32283D01*
X137598D01*
Y31784D01*
X131874D01*
Y29787D01*
X131874D01*
Y29779D01*
X131874D01*
Y27784D01*
X137598D01*
Y27283D01*
X138098D01*
Y24787D01*
X142396D01*
Y24280D01*
X132374D01*
Y20287D01*
X142396D01*
Y19275D01*
X141247Y18126D01*
X141194Y18107D01*
X140897Y17831D01*
X140788Y17743D01*
X140694Y17678D01*
X140672Y17665D01*
X140520D01*
X140449Y17695D01*
X140408Y17677D01*
X140365Y17688D01*
X140328Y17665D01*
X139425D01*
Y18165D01*
X137902D01*
Y16142D01*
Y14118D01*
X139425D01*
X139640Y13707D01*
Y13047D01*
X139617Y12994D01*
X139613Y12859D01*
X139604Y12760D01*
X139595Y12705D01*
X138083D01*
Y11192D01*
X138028Y11183D01*
X137929Y11174D01*
X137793Y11171D01*
X137740Y11147D01*
X137008D01*
X136659Y11078D01*
X136364Y10881D01*
X134057Y8574D01*
X125850D01*
X123544Y10881D01*
X123248Y11078D01*
X122899Y11147D01*
X122102D01*
X122049Y11171D01*
X121914Y11174D01*
X121815Y11183D01*
X121760Y11192D01*
Y12705D01*
X116035D01*
Y11192D01*
X115981Y11183D01*
X115882Y11174D01*
X115746Y11171D01*
X115693Y11147D01*
X111007D01*
X108247Y13908D01*
X108438Y14370D01*
X113583D01*
Y14905D01*
X113642Y14910D01*
X113774Y14912D01*
X113829Y14935D01*
X118154D01*
X118207Y14912D01*
X118340Y14908D01*
X118438Y14900D01*
X118496Y14891D01*
Y14559D01*
X118935D01*
X119004Y14530D01*
X119035Y14542D01*
X119067Y14533D01*
X119114Y14559D01*
X121268D01*
Y17724D01*
X118758D01*
X118743Y17731D01*
X118377Y18175D01*
X118442Y18504D01*
X118327Y19083D01*
X117999Y19574D01*
X117680Y19787D01*
X117832Y20287D01*
X122469D01*
X122478Y20232D01*
X122487Y20133D01*
X122491Y19998D01*
X122514Y19945D01*
Y18067D01*
X122491Y18014D01*
X122487Y17878D01*
X122478Y17779D01*
X122469Y17724D01*
X122039D01*
Y14559D01*
X124811D01*
Y17724D01*
X124381D01*
X124372Y17779D01*
X124363Y17878D01*
X124360Y18014D01*
X124336Y18067D01*
Y19945D01*
X124360Y19998D01*
X124363Y20133D01*
X124372Y20232D01*
X124381Y20287D01*
X127469D01*
Y24280D01*
X117020D01*
Y23239D01*
X116965Y23230D01*
X116866Y23222D01*
X116730Y23218D01*
X116677Y23195D01*
X116649D01*
X116300Y23125D01*
X116005Y22928D01*
X114083Y21006D01*
X113583Y21213D01*
Y26620D01*
X113636Y26623D01*
X113771Y26624D01*
X113827Y26648D01*
X114291D01*
X114640Y26717D01*
X114936Y26915D01*
X116558Y28537D01*
X117020Y28346D01*
Y25287D01*
X127469D01*
Y25354D01*
X127855Y25671D01*
X127953Y25652D01*
X128532Y25767D01*
X129023Y26095D01*
X129351Y26586D01*
X129466Y27165D01*
X129351Y27744D01*
X129023Y28235D01*
X128532Y28563D01*
X127953Y28679D01*
X127855Y28659D01*
X127469Y28976D01*
Y29280D01*
X117954D01*
X117920Y29362D01*
X117900Y29847D01*
X118200Y30125D01*
X118311Y30215D01*
X118406Y30281D01*
X118416Y30287D01*
X118604D01*
X118645Y30270D01*
X118687Y30287D01*
X118689D01*
X118732Y30277D01*
X118748Y30287D01*
X127469D01*
Y34280D01*
X117020D01*
Y32016D01*
X117009Y32000D01*
X117020Y31956D01*
Y31955D01*
X117002Y31913D01*
X117020Y31871D01*
Y31684D01*
X117014Y31673D01*
X116951Y31585D01*
X116731Y31326D01*
X116586Y31176D01*
X116564Y31120D01*
X114083Y28639D01*
X113583Y28846D01*
Y33941D01*
X113992D01*
Y36760D01*
X114495Y37263D01*
X114714Y37591D01*
X114770Y37873D01*
D01*
X114813Y37974D01*
X114815Y38281D01*
X114834Y38807D01*
X114847Y38946D01*
X114864Y39012D01*
X114871Y39028D01*
X115303D01*
Y39535D01*
X115305Y39540D01*
X115303Y39544D01*
Y41677D01*
X115803D01*
Y43201D01*
X111756D01*
Y42090D01*
X110792Y42077D01*
X110764Y42064D01*
X110630D01*
X110630Y42064D01*
X110051Y41949D01*
X109560Y41621D01*
X109232Y41130D01*
X109117Y40551D01*
X109232Y39972D01*
X109560Y39481D01*
X109862Y39279D01*
X109710Y38780D01*
X107283D01*
Y36925D01*
X107071D01*
Y36445D01*
Y34376D01*
X99984D01*
X98599Y35761D01*
X98578Y35814D01*
X98523Y35873D01*
X98486Y35918D01*
X98456Y35960D01*
X98432Y36000D01*
X98413Y36036D01*
X98399Y36071D01*
X98388Y36105D01*
X98382Y36137D01*
X98377Y36171D01*
X98375Y36229D01*
X98352Y36281D01*
X98248Y36800D01*
X97921Y37291D01*
X97430Y37619D01*
X96850Y37734D01*
X96271Y37619D01*
X95780Y37291D01*
X95452Y36800D01*
X95337Y36220D01*
X95452Y35641D01*
X95780Y35150D01*
X96271Y34822D01*
X96789Y34719D01*
X96842Y34695D01*
X96900Y34693D01*
X96934Y34689D01*
X96966Y34682D01*
X97000Y34672D01*
X97034Y34658D01*
X97071Y34639D01*
X97111Y34615D01*
X97153Y34585D01*
X97198Y34548D01*
X97256Y34493D01*
X97310Y34472D01*
X98321Y33462D01*
X98074Y33001D01*
X98032Y33009D01*
X97452Y32894D01*
X96961Y32566D01*
X96633Y32075D01*
X96518Y31496D01*
X96633Y30917D01*
X96961Y30426D01*
X97452Y30098D01*
X97700Y30049D01*
X97931Y29493D01*
X97815Y29319D01*
X97699Y28740D01*
X97815Y28161D01*
X98142Y27670D01*
X98363Y27523D01*
X98257Y26992D01*
X98240Y26989D01*
X97749Y26661D01*
X97421Y26170D01*
X97306Y25591D01*
X97421Y25011D01*
X97749Y24521D01*
X98240Y24192D01*
X98819Y24077D01*
X99398Y24192D01*
X99837Y24486D01*
X99892Y24506D01*
X99934Y24546D01*
X99960Y24567D01*
X99988Y24585D01*
X100019Y24601D01*
X100054Y24616D01*
X100093Y24629D01*
X100138Y24640D01*
X100189Y24648D01*
X100247Y24654D01*
X100328Y24656D01*
X100380Y24679D01*
X107231D01*
X107283Y24656D01*
Y18648D01*
X107236Y18628D01*
X90158D01*
X89809Y18558D01*
X89513Y18361D01*
X86757Y15605D01*
X86560Y15309D01*
X86490Y14961D01*
Y13635D01*
X86467Y13583D01*
X85894D01*
X85627Y14083D01*
X85650Y14118D01*
X85765Y14697D01*
X85650Y15276D01*
X85322Y15767D01*
X84831Y16095D01*
X84252Y16210D01*
X83945Y16149D01*
D01*
X83438Y16451D01*
X83398Y16511D01*
X83367Y16724D01*
X87258Y20616D01*
X87456Y20911D01*
X87525Y21260D01*
Y24016D01*
X87456Y24364D01*
X87258Y24660D01*
X85684Y26235D01*
X85388Y26432D01*
X85039Y26502D01*
X84238D01*
X84186Y26525D01*
X84106Y26528D01*
X84048Y26533D01*
X83996Y26542D01*
X83951Y26552D01*
X83912Y26565D01*
X83877Y26580D01*
X83847Y26596D01*
X83819Y26614D01*
X83792Y26635D01*
X83750Y26675D01*
X83696Y26695D01*
X83256Y26989D01*
X82677Y27104D01*
X82098Y26989D01*
X81799Y26789D01*
X81376Y26958D01*
X81299Y27054D01*
Y36390D01*
X82284D01*
X82671Y36467D01*
X82999Y36686D01*
X83921Y37609D01*
X84180Y37867D01*
X84399Y38196D01*
X84476Y38583D01*
Y39354D01*
X86925D01*
Y39567D01*
X106496D01*
Y41904D01*
X107114D01*
X107463Y41973D01*
X107758Y42171D01*
X108518Y42930D01*
X108716Y43226D01*
X108785Y43575D01*
Y43706D01*
X108944Y43812D01*
X109272Y44303D01*
X109387Y44882D01*
X109272Y45461D01*
X108944Y45952D01*
X108453Y46280D01*
X107874Y46395D01*
X107295Y46280D01*
X106940Y46043D01*
X106496Y45866D01*
X106496Y45866D01*
X106496Y45866D01*
X98183D01*
X98180Y45919D01*
X98179Y46054D01*
X98155Y46110D01*
Y49226D01*
D01*
X98179Y49279D01*
X98181Y49359D01*
X98187Y49417D01*
X98195Y49468D01*
X98206Y49513D01*
X98219Y49552D01*
X98234Y49587D01*
X98250Y49618D01*
X98268Y49646D01*
X98289Y49672D01*
X98328Y49715D01*
X98349Y49769D01*
X98385Y49823D01*
X98642Y50208D01*
X98757Y50787D01*
X98642Y51367D01*
X98314Y51858D01*
X98054Y52032D01*
X98205Y52532D01*
X140937D01*
X141036Y52032D01*
D02*
G37*
G36*
X89348D02*
X89087Y51858D01*
X88759Y51367D01*
X88644Y50787D01*
X88759Y50208D01*
X89087Y49717D01*
X89578Y49389D01*
X89732Y49359D01*
X89805Y49303D01*
X89865Y49288D01*
X89908Y49274D01*
X89952Y49256D01*
X89997Y49234D01*
X90043Y49209D01*
X90091Y49178D01*
X90135Y49147D01*
X90247Y49054D01*
X90303Y49000D01*
X90358Y48979D01*
X90427Y48909D01*
Y46115D01*
X90404Y46062D01*
X90400Y45866D01*
X86925D01*
Y46276D01*
X86545D01*
X86277Y46776D01*
X86456Y47043D01*
X86571Y47622D01*
X86456Y48201D01*
X86128Y48692D01*
X86128Y48692D01*
X86112Y48708D01*
X85621Y49036D01*
X85106Y49138D01*
X85048Y49163D01*
X83830Y49176D01*
X83790Y49179D01*
X83764Y49182D01*
X83732Y49173D01*
X83689Y49191D01*
X83618Y49161D01*
X81551D01*
Y49661D01*
X80028D01*
Y47638D01*
Y45614D01*
X81551D01*
Y45614D01*
X81587Y45634D01*
X82087Y45338D01*
Y39567D01*
X82453D01*
Y39002D01*
X81865Y38413D01*
X81299D01*
Y38780D01*
X75000D01*
Y36276D01*
X74940Y36271D01*
X74809Y36270D01*
X74753Y36246D01*
X73718D01*
X73602Y36332D01*
D01*
D01*
X73585Y36610D01*
X73638Y36717D01*
D01*
D01*
X73736Y36894D01*
X73736D01*
Y38280D01*
X69571D01*
Y36894D01*
X69683D01*
X70071Y36622D01*
X70071Y36394D01*
Y33913D01*
X69630D01*
Y32390D01*
X71653D01*
Y31390D01*
X69630D01*
Y29866D01*
X70130D01*
Y28963D01*
X70107Y28926D01*
X70118Y28883D01*
X70101Y28842D01*
X70130Y28771D01*
Y28619D01*
X70117Y28597D01*
X70056Y28510D01*
X69839Y28253D01*
X69696Y28104D01*
X69674Y28049D01*
X69144Y27519D01*
X68683Y27765D01*
X68759Y28150D01*
Y30012D01*
X61949D01*
Y28150D01*
X62119Y27299D01*
X62317Y27002D01*
X62050Y26502D01*
X59826D01*
X59072Y27256D01*
X59062Y27294D01*
X59035Y27309D01*
X59024Y27338D01*
X58898Y27468D01*
X58803Y27577D01*
X58734Y27667D01*
X58711Y27701D01*
X58729Y27790D01*
X58759Y27839D01*
X58749Y27877D01*
X58764Y27913D01*
X58757Y27932D01*
X58801Y28150D01*
Y32874D01*
X58670Y33530D01*
X58299Y34086D01*
X57743Y34458D01*
X57087Y34588D01*
X54724D01*
X54068Y34458D01*
X53512Y34086D01*
X53141Y33530D01*
X53010Y32874D01*
Y29710D01*
X52510Y29558D01*
X52342Y29810D01*
X51851Y30138D01*
X51272Y30253D01*
X50692Y30138D01*
X50202Y29810D01*
X49874Y29319D01*
X49758Y28740D01*
Y27959D01*
X49404Y27606D01*
X49150Y27607D01*
X48756Y27617D01*
X48712Y27621D01*
X48686Y27612D01*
X48649Y27628D01*
X48579Y27598D01*
X46512D01*
Y28098D01*
X44988D01*
Y26075D01*
X44488D01*
Y25575D01*
X42465D01*
Y24051D01*
Y22941D01*
X44488D01*
Y22441D01*
X44988D01*
Y20417D01*
X45694D01*
X46077Y19917D01*
X46077Y19915D01*
X46035Y19665D01*
X45982Y19466D01*
X45922Y19319D01*
X45865Y19224D01*
X45816Y19172D01*
X45777Y19146D01*
X45734Y19130D01*
X45610Y19116D01*
X45585Y19102D01*
X44874D01*
Y15937D01*
X49220D01*
Y18521D01*
X49250Y18593D01*
X49245Y18603D01*
X49249Y18614D01*
X49217Y19350D01*
X49168Y20465D01*
X49170Y20929D01*
X49180Y21322D01*
X49184Y21367D01*
X49176Y21393D01*
X49191Y21429D01*
X49161Y21500D01*
Y23088D01*
X49163Y23092D01*
X49165Y23390D01*
X49191Y23453D01*
X49189Y23456D01*
X49191Y23460D01*
X49176Y24529D01*
X50625Y24549D01*
X50653Y24561D01*
X51272D01*
X51851Y24677D01*
X52342Y25005D01*
X52670Y25496D01*
X52785Y26075D01*
Y27126D01*
X53285Y27278D01*
X53512Y26938D01*
X54068Y26566D01*
X54724Y26436D01*
X57087D01*
X57189Y26456D01*
X57201Y26450D01*
X57276Y26399D01*
X57501Y26212D01*
X57630Y26087D01*
X57685Y26066D01*
X58805Y24946D01*
X59100Y24749D01*
X59449Y24679D01*
X68504D01*
X68853Y24749D01*
X69130Y24934D01*
X69349Y24891D01*
X69630Y24775D01*
Y23370D01*
X69219Y23155D01*
X68801D01*
X68452Y23086D01*
X68156Y22888D01*
X67150Y21881D01*
D01*
X66258Y20990D01*
X65497Y20229D01*
X65300Y19934D01*
X65231Y19585D01*
Y19159D01*
X65207Y19106D01*
X65203Y18967D01*
X65195Y18865D01*
X65191Y18840D01*
X64173D01*
X63517Y18710D01*
X62961Y18338D01*
X62590Y17782D01*
X62459Y17126D01*
Y12402D01*
X62590Y11746D01*
X62961Y11190D01*
X63517Y10818D01*
X64173Y10688D01*
X66535D01*
X66731Y10726D01*
D01*
X67109Y10292D01*
X67050Y10121D01*
X67041Y10095D01*
X66744Y9819D01*
X66634Y9731D01*
X66541Y9666D01*
X66518Y9653D01*
X66366D01*
X66295Y9683D01*
X66254Y9666D01*
X66211Y9676D01*
X66174Y9653D01*
X65149D01*
Y9653D01*
X64865Y9551D01*
X64575Y9653D01*
Y9653D01*
X62031D01*
X61803Y9653D01*
X61531Y10041D01*
Y10153D01*
X60145D01*
Y8071D01*
Y5988D01*
X61531D01*
Y6101D01*
X61803Y6488D01*
X62031Y6488D01*
X64575D01*
Y6488D01*
X64865Y6590D01*
X65149Y6488D01*
Y6488D01*
X67921D01*
Y7907D01*
X67944Y7944D01*
X67933Y7987D01*
X67950Y8028D01*
X67921Y8099D01*
Y8251D01*
X67934Y8273D01*
X67995Y8360D01*
X68193Y8595D01*
X68257Y8596D01*
X68693Y8395D01*
Y8207D01*
X68666Y8071D01*
X68693Y7934D01*
Y6488D01*
X70339D01*
Y6016D01*
X70239Y5512D01*
X70354Y4933D01*
X70682Y4442D01*
X71173Y4114D01*
X71752Y3999D01*
X72331Y4114D01*
X72822Y4442D01*
X73150Y4933D01*
X73265Y5512D01*
X73165Y6017D01*
Y6488D01*
X74811D01*
Y7934D01*
X74838Y8071D01*
X74811Y8207D01*
Y9653D01*
X72622D01*
X72551Y9683D01*
X72481Y9653D01*
X72409Y9653D01*
X72382Y9656D01*
X72039Y9653D01*
X71539Y9640D01*
X71464Y9653D01*
X71391Y9654D01*
X71185Y10153D01*
X74758Y13727D01*
X74956Y14023D01*
X75025Y14370D01*
X76490D01*
X76585Y14293D01*
X76754Y13870D01*
X76555Y13571D01*
X76439Y12992D01*
X76555Y12413D01*
X76883Y11922D01*
X77374Y11594D01*
X77953Y11479D01*
X78532Y11594D01*
X79023Y11922D01*
X79351Y12413D01*
X79396Y12639D01*
X79896Y12590D01*
Y10121D01*
X78854Y9080D01*
X78354Y9218D01*
Y9653D01*
X75583D01*
Y6488D01*
X78354D01*
Y7115D01*
X78409Y7124D01*
X78508Y7133D01*
X78644Y7136D01*
X78697Y7160D01*
X79134D01*
X79483Y7229D01*
X79778Y7427D01*
X81451Y9100D01*
X81587Y9302D01*
X82051Y9233D01*
X82087Y9219D01*
Y7283D01*
X95752D01*
Y6874D01*
X98736D01*
Y7283D01*
X101657D01*
Y6874D01*
X104477D01*
X104979Y6371D01*
X105308Y6152D01*
X105590Y6096D01*
X105691Y6053D01*
X105998Y6051D01*
X106524Y6032D01*
X106663Y6020D01*
X106716Y6005D01*
X106742Y4322D01*
X106768Y4264D01*
X106870Y3752D01*
X107198Y3261D01*
X107689Y2933D01*
X108268Y2817D01*
X108847Y2933D01*
X109338Y3261D01*
X109666Y3752D01*
X109769Y4271D01*
X109793Y4328D01*
X109797Y5063D01*
X110917D01*
Y7087D01*
X111417D01*
Y7587D01*
X113441D01*
Y9110D01*
X113852Y9325D01*
X115693D01*
X115746Y9302D01*
X115882Y9298D01*
X115980Y9289D01*
X116035Y9280D01*
Y7768D01*
X121760D01*
Y9280D01*
X121815Y9289D01*
X121914Y9298D01*
X122049Y9302D01*
X122102Y9325D01*
X122522D01*
X124828Y7019D01*
X125124Y6821D01*
X125472Y6752D01*
X134435D01*
X134783Y6821D01*
X135079Y7019D01*
X137385Y9325D01*
X137740D01*
X137793Y9302D01*
X137929Y9298D01*
X138028Y9289D01*
X138083Y9280D01*
Y7768D01*
X143807D01*
Y12705D01*
X141507D01*
X141498Y12760D01*
X141489Y12859D01*
X141486Y12994D01*
X141462Y13047D01*
Y14276D01*
X141486Y14329D01*
X141489Y14464D01*
X141498Y14563D01*
X141507Y14618D01*
X142075D01*
Y15919D01*
X142097Y15955D01*
X142087Y15999D01*
X142104Y16040D01*
X142075Y16110D01*
Y16262D01*
X142088Y16285D01*
X142148Y16372D01*
X142365Y16629D01*
X142509Y16777D01*
X142531Y16833D01*
X143951Y18253D01*
X144149Y18549D01*
X144218Y18898D01*
Y44303D01*
X144149Y44651D01*
X143951Y44947D01*
X143819Y45080D01*
X143916Y45570D01*
X144303Y45730D01*
X145042Y46297D01*
X145608Y47036D01*
X145965Y47896D01*
X146086Y48819D01*
X146005Y49437D01*
X146492Y49568D01*
X146813Y48796D01*
X147018Y47778D01*
X147019Y47260D01*
X147020Y5906D01*
X147018Y5372D01*
X146813Y4352D01*
X146413Y3392D01*
X145834Y2529D01*
X145098Y1795D01*
X144748Y1562D01*
X144307Y1798D01*
Y3043D01*
X137583D01*
Y977D01*
X137229Y624D01*
X133301Y624D01*
Y1575D01*
X133292Y1624D01*
X133297Y1675D01*
X133251Y2135D01*
X133208Y2279D01*
X133178Y2426D01*
X132826Y3277D01*
X132605Y3607D01*
X132605Y3607D01*
X131954Y4259D01*
X131623Y4480D01*
X130772Y4832D01*
X130625Y4861D01*
X130482Y4905D01*
X130021Y4950D01*
X129921Y4940D01*
X129821Y4950D01*
X129361Y4905D01*
X129217Y4861D01*
X129070Y4832D01*
X128220Y4480D01*
X127889Y4259D01*
X127237Y3607D01*
X127016Y3277D01*
X126664Y2426D01*
X126635Y2279D01*
X126591Y2135D01*
X126546Y1675D01*
X126551Y1624D01*
X126541Y1575D01*
Y618D01*
X122260D01*
Y3043D01*
X115535D01*
Y618D01*
X31044D01*
X30875Y1118D01*
X31262Y1415D01*
X31829Y2154D01*
X32185Y3014D01*
X32307Y3937D01*
X32185Y4860D01*
X31829Y5720D01*
X31262Y6459D01*
X30523Y7026D01*
X29663Y7382D01*
X28740Y7503D01*
X27817Y7382D01*
X26957Y7026D01*
X26218Y6459D01*
X25652Y5720D01*
X25295Y4860D01*
X25174Y3937D01*
X25295Y3014D01*
X25652Y2154D01*
X26218Y1415D01*
X26606Y1118D01*
X26436Y618D01*
X5284D01*
X5190Y654D01*
X4734Y731D01*
X3913Y990D01*
X3155Y1370D01*
X2467Y1867D01*
X1867Y2467D01*
X1370Y3155D01*
X990Y3913D01*
X735Y4722D01*
X674Y5142D01*
X618Y5299D01*
Y47403D01*
X620Y47426D01*
X618Y47440D01*
Y47441D01*
X618Y47442D01*
X622Y47456D01*
X644Y47958D01*
X867Y48919D01*
X1263Y49821D01*
X1819Y50634D01*
X2515Y51331D01*
X3329Y51887D01*
X4231Y52283D01*
X5191Y52506D01*
X5683Y52526D01*
X5703Y52532D01*
X5730D01*
X5740Y52531D01*
X5750Y52532D01*
X7588D01*
X7758Y52032D01*
X7370Y51734D01*
X6804Y50996D01*
X6447Y50136D01*
X6326Y49213D01*
X6447Y48290D01*
X6804Y47429D01*
X7211Y46898D01*
X6965Y46398D01*
X5591D01*
X4867Y46303D01*
X4193Y46023D01*
X3614Y45579D01*
X3170Y45000D01*
X2890Y44326D01*
X2861Y44102D01*
X11470D01*
X11440Y44326D01*
X11161Y45000D01*
X10930Y45301D01*
X10928Y45310D01*
X11106Y45888D01*
X11675Y46124D01*
X12414Y46691D01*
X12981Y47429D01*
X13337Y48290D01*
X13458Y49213D01*
X13337Y50136D01*
X12981Y50996D01*
X12414Y51734D01*
X12027Y52032D01*
X12196Y52532D01*
X26074D01*
X26551Y52476D01*
X26551Y52032D01*
Y51091D01*
X28634D01*
Y50091D01*
X26551D01*
Y48705D01*
X26664D01*
X27051Y48433D01*
D01*
D01*
X27051Y48205D01*
Y45661D01*
X27051D01*
X27282Y45161D01*
X27227Y44882D01*
X27342Y44303D01*
X27670Y43812D01*
X28161Y43484D01*
X28740Y43369D01*
X29319Y43484D01*
X29810Y43812D01*
X30138Y44303D01*
X30253Y44882D01*
X30198Y45161D01*
X30217Y45661D01*
X30595D01*
X30781Y45661D01*
X30781Y45660D01*
X30816Y45137D01*
X30817Y45116D01*
X30770Y44882D01*
X30885Y44303D01*
X31213Y43812D01*
X31704Y43484D01*
X32283Y43369D01*
X32863Y43484D01*
X33354Y43812D01*
X33682Y44303D01*
X33797Y44882D01*
X33741Y45161D01*
X33760Y45661D01*
X33770Y46030D01*
X33760Y46104D01*
X33789Y46173D01*
X33760Y46244D01*
Y46431D01*
X34130Y46744D01*
X34260Y46744D01*
X38280D01*
Y50894D01*
X35419D01*
X35077Y51235D01*
X34782Y51432D01*
X34433Y51502D01*
X34102D01*
X34049Y51525D01*
X33914Y51529D01*
X33815Y51537D01*
X33760Y51546D01*
Y51976D01*
X31070D01*
X31036Y52010D01*
X31179Y52484D01*
X31222Y52532D01*
X89196D01*
X89348Y52032D01*
D02*
G37*
G36*
X29084Y46298D02*
X29093Y46204D01*
X29096Y46185D01*
X29474D01*
X29400Y46177D01*
X29333Y46153D01*
X29274Y46113D01*
X29222Y46058D01*
X29179Y45986D01*
X29162Y45943D01*
X29192Y45876D01*
X29232Y45805D01*
X29279Y45739D01*
X29331Y45678D01*
X29390Y45621D01*
X29090Y45605D01*
X29085Y45538D01*
X29081Y45386D01*
X28293D01*
X28289Y45538D01*
X28287Y45561D01*
X28014Y45547D01*
X28067Y45609D01*
X28115Y45676D01*
X28157Y45747D01*
X28193Y45821D01*
X28223Y45900D01*
X28226Y45908D01*
X28195Y45986D01*
X28152Y46058D01*
X28100Y46113D01*
X28041Y46153D01*
X27974Y46177D01*
X27900Y46185D01*
X28285D01*
X28291Y46252D01*
X28293Y46349D01*
X29081Y46396D01*
X29084Y46298D01*
D02*
G37*
G36*
X97639Y45901D02*
X97669Y45390D01*
X97680Y45335D01*
X97693Y45295D01*
X97708Y45272D01*
X97724Y45264D01*
X96764D01*
X96780Y45272D01*
X96795Y45295D01*
X96808Y45335D01*
X96819Y45390D01*
X96829Y45460D01*
X96843Y45649D01*
X96850Y46051D01*
X97638D01*
X97639Y45901D01*
D02*
G37*
G36*
X95670D02*
X95700Y45390D01*
X95712Y45335D01*
X95725Y45295D01*
X95739Y45272D01*
X95756Y45264D01*
X94796D01*
X94812Y45272D01*
X94827Y45295D01*
X94840Y45335D01*
X94851Y45390D01*
X94860Y45460D01*
X94874Y45649D01*
X94882Y46051D01*
X95669D01*
X95670Y45901D01*
D02*
G37*
G36*
X91733D02*
X91763Y45390D01*
X91775Y45335D01*
X91788Y45295D01*
X91802Y45272D01*
X91819Y45264D01*
X90859D01*
X90875Y45272D01*
X90890Y45295D01*
X90903Y45335D01*
X90914Y45390D01*
X90923Y45460D01*
X90937Y45649D01*
X90945Y46051D01*
X91732D01*
X91733Y45901D01*
D02*
G37*
G36*
X33226Y46161D02*
X33206Y46123D01*
X33189Y46061D01*
X33173Y45973D01*
X33161Y45860D01*
X33136Y45371D01*
X33132Y44919D01*
X31360D01*
X31357Y45158D01*
X31319Y45722D01*
X31297Y45860D01*
X31269Y45973D01*
X31236Y46061D01*
X31198Y46123D01*
X31155Y46161D01*
X31106Y46173D01*
X33248D01*
X33226Y46161D01*
D02*
G37*
G36*
X122760Y44403D02*
X122772Y44267D01*
X122791Y44147D01*
X122819Y44043D01*
X122854Y43955D01*
X122898Y43883D01*
X122949Y43828D01*
X123008Y43788D01*
X123075Y43764D01*
X123150Y43755D01*
X121575D01*
X121650Y43764D01*
X121717Y43788D01*
X121776Y43828D01*
X121827Y43883D01*
X121870Y43955D01*
X121906Y44043D01*
X121933Y44147D01*
X121953Y44267D01*
X121965Y44403D01*
X121968Y44555D01*
X122756D01*
X122760Y44403D01*
D02*
G37*
G36*
X105594Y43528D02*
X105618Y43461D01*
X105658Y43402D01*
X105714Y43350D01*
X105786Y43307D01*
X105874Y43272D01*
X105978Y43244D01*
X106098Y43224D01*
X106234Y43213D01*
X106386Y43209D01*
Y42421D01*
X106234Y42417D01*
X106098Y42406D01*
X105978Y42386D01*
X105874Y42358D01*
X105786Y42323D01*
X105714Y42279D01*
X105658Y42228D01*
X105618Y42169D01*
X105594Y42102D01*
X105586Y42028D01*
Y43602D01*
X105594Y43528D01*
D02*
G37*
G36*
X132886Y40799D02*
X132872Y40865D01*
X132830Y40923D01*
X132761Y40974D01*
X132664Y41019D01*
X132538Y41056D01*
X132386Y41087D01*
X132205Y41111D01*
X131760Y41138D01*
X131496Y41142D01*
Y43110D01*
X131762Y43114D01*
X132210Y43147D01*
X132393Y43175D01*
X132547Y43212D01*
X132673Y43256D01*
X132771Y43309D01*
X132841Y43370D01*
X132884Y43439D01*
X132898Y43516D01*
X132886Y40799D01*
D02*
G37*
G36*
X112768Y39540D02*
X112748Y39545D01*
X112689Y39549D01*
X112276Y39560D01*
X110799Y39567D01*
Y41535D01*
X112768Y41563D01*
Y39540D01*
D02*
G37*
G36*
X114471Y39830D02*
X114429Y39734D01*
X114392Y39610D01*
X114377Y39540D01*
X114764D01*
X114670Y39530D01*
X114587Y39500D01*
X114513Y39451D01*
X114449Y39382D01*
X114395Y39294D01*
X114350Y39185D01*
X114316Y39057D01*
X114310Y39021D01*
X114294Y38841D01*
X114274Y38293D01*
X114272Y37978D01*
X113287D01*
X113285Y38293D01*
X113223Y39132D01*
X113209Y39185D01*
X113164Y39294D01*
X113110Y39382D01*
X113046Y39451D01*
X112972Y39500D01*
X112889Y39530D01*
X112795Y39540D01*
X113182D01*
X113167Y39610D01*
X113130Y39734D01*
X113088Y39830D01*
X113042Y39900D01*
X114517D01*
X114471Y39830D01*
D02*
G37*
G36*
X132898Y35921D02*
X132887Y35940D01*
X132854Y35958D01*
X132799Y35973D01*
X132722Y35987D01*
X132623Y35998D01*
X132195Y36020D01*
X131799Y36024D01*
Y37992D01*
X132008Y37993D01*
X132799Y38043D01*
X132854Y38058D01*
X132887Y38076D01*
X132898Y38095D01*
Y35921D01*
D02*
G37*
G36*
X75603Y34953D02*
X75595Y34951D01*
X75571Y34949D01*
X75406Y34944D01*
X74815Y34941D01*
Y35728D01*
X74965Y35730D01*
X75319Y35758D01*
X75406Y35774D01*
X75477Y35795D01*
X75532Y35819D01*
X75571Y35847D01*
X75595Y35878D01*
X75603Y35913D01*
Y34953D01*
D02*
G37*
G36*
X97837Y36129D02*
X97847Y36048D01*
X97864Y35968D01*
X97889Y35889D01*
X97920Y35812D01*
X97958Y35736D01*
X98004Y35661D01*
X98057Y35587D01*
X98117Y35515D01*
X98184Y35443D01*
X97628Y34887D01*
X97556Y34954D01*
X97484Y35014D01*
X97410Y35067D01*
X97335Y35112D01*
X97259Y35151D01*
X97181Y35182D01*
X97103Y35206D01*
X97023Y35224D01*
X96942Y35234D01*
X96860Y35236D01*
X97835Y36211D01*
X97837Y36129D01*
D02*
G37*
G36*
X72732Y36037D02*
X72756Y35973D01*
X72795Y35915D01*
X72850Y35866D01*
X72921Y35824D01*
X73008Y35789D01*
X73110Y35763D01*
X73228Y35744D01*
X73362Y35732D01*
X73512Y35728D01*
Y34941D01*
X73360Y34937D01*
X73225Y34925D01*
X73105Y34905D01*
X73001Y34878D01*
X72914Y34843D01*
X72842Y34799D01*
X72785Y34748D01*
X72745Y34689D01*
X72721Y34622D01*
X72712Y34547D01*
X72724Y36110D01*
X72732Y36037D01*
D02*
G37*
G36*
X108083Y32984D02*
X108075Y33001D01*
X108051Y33016D01*
X108012Y33029D01*
X107957Y33040D01*
X107886Y33049D01*
X107697Y33063D01*
X107296Y33071D01*
Y33858D01*
X107445Y33859D01*
X107957Y33889D01*
X108012Y33901D01*
X108051Y33914D01*
X108075Y33928D01*
X108083Y33945D01*
Y32984D01*
D02*
G37*
G36*
Y31016D02*
X108075Y31032D01*
X108051Y31047D01*
X108012Y31060D01*
X107957Y31071D01*
X107886Y31081D01*
X107697Y31095D01*
X107296Y31102D01*
Y31890D01*
X107445Y31891D01*
X107957Y31921D01*
X108012Y31932D01*
X108051Y31945D01*
X108075Y31960D01*
X108083Y31976D01*
Y31016D01*
D02*
G37*
G36*
X118645Y30811D02*
X118585Y30855D01*
X118514Y30876D01*
X118431Y30875D01*
X118336Y30851D01*
X118231Y30805D01*
X118114Y30737D01*
X117985Y30647D01*
X117845Y30535D01*
X117532Y30243D01*
X116975Y30799D01*
X117132Y30962D01*
X117379Y31253D01*
X117470Y31381D01*
X117538Y31498D01*
X117583Y31604D01*
X117607Y31698D01*
X117608Y31781D01*
X117587Y31853D01*
X117544Y31913D01*
X118645Y30811D01*
D02*
G37*
G36*
X98794Y32129D02*
X98859Y32079D01*
X98927Y32034D01*
X99000Y31996D01*
X99076Y31964D01*
X99158Y31937D01*
X99243Y31916D01*
X99332Y31902D01*
X99426Y31893D01*
X99524Y31890D01*
Y31102D01*
X99426Y31099D01*
X99332Y31091D01*
X99243Y31076D01*
X99158Y31055D01*
X99076Y31029D01*
X99000Y30996D01*
X98927Y30958D01*
X98859Y30913D01*
X98794Y30863D01*
X98734Y30807D01*
Y32185D01*
X98794Y32129D01*
D02*
G37*
G36*
X100598Y29249D02*
X100193Y28823D01*
X99725Y29580D01*
X99738Y29577D01*
X99756Y29579D01*
X99777Y29586D01*
X99803Y29600D01*
X99832Y29620D01*
X99866Y29645D01*
X99945Y29714D01*
X100041Y29806D01*
X100598Y29249D01*
D02*
G37*
G36*
X108083Y29047D02*
X108075Y29064D01*
X108051Y29079D01*
X108012Y29092D01*
X107957Y29103D01*
X107886Y29112D01*
X107697Y29126D01*
X107296Y29134D01*
Y29921D01*
X107445Y29922D01*
X107957Y29952D01*
X108012Y29964D01*
X108051Y29977D01*
X108075Y29991D01*
X108083Y30008D01*
Y29047D01*
D02*
G37*
G36*
X75603D02*
X75595Y29045D01*
X75571Y29043D01*
X75406Y29038D01*
X74815Y29035D01*
Y29823D01*
X74965Y29825D01*
X75319Y29852D01*
X75406Y29869D01*
X75477Y29889D01*
X75532Y29913D01*
X75571Y29941D01*
X75595Y29973D01*
X75603Y30008D01*
Y29047D01*
D02*
G37*
G36*
X72661Y29453D02*
X72685Y29386D01*
X72725Y29327D01*
X72781Y29276D01*
X72853Y29232D01*
X72941Y29197D01*
X73045Y29169D01*
X73165Y29150D01*
X73301Y29138D01*
X73453Y29134D01*
Y28346D01*
X73301Y28343D01*
X73165Y28331D01*
X73045Y28311D01*
X72941Y28283D01*
X72853Y28248D01*
X72781Y28205D01*
X72725Y28153D01*
X72685Y28095D01*
X72661Y28027D01*
X72653Y27953D01*
Y29528D01*
X72661Y29453D01*
D02*
G37*
G36*
X71755Y27729D02*
X71694Y27773D01*
X71622Y27795D01*
X71538D01*
X71444Y27773D01*
X71338Y27729D01*
X71221Y27662D01*
X71093Y27573D01*
X70954Y27461D01*
X70642Y27172D01*
X70085Y27729D01*
X70241Y27890D01*
X70486Y28179D01*
X70575Y28308D01*
X70642Y28425D01*
X70687Y28530D01*
X70709Y28625D01*
Y28708D01*
X70687Y28781D01*
X70642Y28842D01*
X71755Y27729D01*
D02*
G37*
G36*
X112988Y28023D02*
X113012Y28008D01*
X113051Y27995D01*
X113106Y27984D01*
X113177Y27974D01*
X113366Y27961D01*
X113768Y27953D01*
Y27165D01*
X113618Y27165D01*
X113106Y27134D01*
X113051Y27123D01*
X113012Y27110D01*
X112988Y27095D01*
X112980Y27079D01*
Y28039D01*
X112988Y28023D01*
D02*
G37*
G36*
X75603Y27079D02*
X75595Y27094D01*
X75571Y27107D01*
X75532Y27119D01*
X75477Y27129D01*
X75406Y27138D01*
X75217Y27150D01*
X74815Y27158D01*
Y27945D01*
X74965Y27946D01*
X75477Y27979D01*
X75532Y27991D01*
X75571Y28005D01*
X75595Y28021D01*
X75603Y28039D01*
Y27079D01*
D02*
G37*
G36*
X58171Y27868D02*
X58139Y27807D01*
X58128Y27736D01*
X58138Y27655D01*
X58169Y27564D01*
X58220Y27463D01*
X58292Y27353D01*
X58385Y27233D01*
X58499Y27103D01*
X58634Y26963D01*
X58005Y26477D01*
X57862Y26615D01*
X57601Y26832D01*
X57484Y26912D01*
X57375Y26972D01*
X57274Y27013D01*
X57182Y27034D01*
X57098Y27036D01*
X57022Y27019D01*
X56955Y26982D01*
X58223Y27919D01*
X58171Y27868D01*
D02*
G37*
G36*
X126964Y27878D02*
X126988Y27811D01*
X127027Y27752D01*
X127070Y27712D01*
X127126Y27748D01*
X127190Y27798D01*
X127250Y27854D01*
Y27619D01*
X127342Y27595D01*
X127460Y27575D01*
X127594Y27563D01*
X127744Y27559D01*
Y26772D01*
X127594Y26768D01*
X127460Y26756D01*
X127342Y26736D01*
X127250Y26711D01*
Y26476D01*
X127190Y26533D01*
X127126Y26583D01*
X127070Y26618D01*
X127027Y26579D01*
X126988Y26520D01*
X126964Y26453D01*
X126956Y26378D01*
Y26677D01*
X126908Y26698D01*
X126827Y26724D01*
X126741Y26745D01*
X126652Y26760D01*
X126558Y26769D01*
X126460Y26772D01*
Y27559D01*
X126558Y27562D01*
X126652Y27571D01*
X126741Y27586D01*
X126827Y27606D01*
X126908Y27633D01*
X126956Y27654D01*
Y27953D01*
X126964Y27878D01*
D02*
G37*
G36*
X81974Y24902D02*
X81914Y24958D01*
X81850Y25008D01*
X81782Y25052D01*
X81709Y25091D01*
X81632Y25123D01*
X81551Y25150D01*
X81466Y25170D01*
X81376Y25185D01*
X81283Y25194D01*
X81201Y25196D01*
X81138Y25196D01*
X80626Y25166D01*
X80571Y25155D01*
X80531Y25142D01*
X80508Y25127D01*
X80500Y25110D01*
Y26071D01*
X80508Y26054D01*
X80531Y26040D01*
X80571Y26027D01*
X80626Y26015D01*
X80697Y26006D01*
X80886Y25992D01*
X81225Y25986D01*
X81283Y25987D01*
X81376Y25996D01*
X81466Y26011D01*
X81551Y26032D01*
X81632Y26058D01*
X81709Y26091D01*
X81782Y26129D01*
X81850Y26173D01*
X81914Y26223D01*
X81974Y26280D01*
Y24902D01*
D02*
G37*
G36*
X108083Y25110D02*
X108075Y25127D01*
X108051Y25142D01*
X108012Y25155D01*
X107957Y25166D01*
X107886Y25175D01*
X107697Y25189D01*
X107296Y25197D01*
Y25984D01*
X107445Y25985D01*
X107957Y26015D01*
X108012Y26027D01*
X108051Y26040D01*
X108075Y26054D01*
X108083Y26071D01*
Y25110D01*
D02*
G37*
G36*
X48669Y27081D02*
X48728Y27077D01*
X49141Y27066D01*
X50618Y27059D01*
Y25091D01*
X48649Y25063D01*
X48644Y25043D01*
X48640Y24984D01*
X48632Y24696D01*
X48649Y23453D01*
X48624D01*
X48622Y23095D01*
X46654D01*
X46649Y23453D01*
X46626D01*
X46631Y23472D01*
X46636Y23531D01*
X46643Y23819D01*
X46626Y25063D01*
X46652D01*
X46654Y25421D01*
X48622D01*
X48627Y25063D01*
X48649D01*
Y27086D01*
X48669Y27081D01*
D02*
G37*
G36*
X99582Y26223D02*
X99646Y26173D01*
X99714Y26129D01*
X99787Y26091D01*
X99864Y26058D01*
X99945Y26032D01*
X100030Y26011D01*
X100120Y25996D01*
X100214Y25987D01*
X100312Y25984D01*
Y25197D01*
X100214Y25194D01*
X100120Y25185D01*
X100030Y25170D01*
X99945Y25150D01*
X99864Y25123D01*
X99787Y25091D01*
X99714Y25052D01*
X99646Y25008D01*
X99582Y24958D01*
X99522Y24902D01*
Y26280D01*
X99582Y26223D01*
D02*
G37*
G36*
X83440D02*
X83504Y26173D01*
X83573Y26129D01*
X83645Y26091D01*
X83722Y26058D01*
X83803Y26032D01*
X83889Y26011D01*
X83978Y25996D01*
X84072Y25987D01*
X84170Y25984D01*
Y25197D01*
X84072Y25194D01*
X83978Y25185D01*
X83889Y25170D01*
X83803Y25150D01*
X83722Y25123D01*
X83645Y25091D01*
X83573Y25052D01*
X83504Y25008D01*
X83440Y24958D01*
X83380Y24902D01*
Y26280D01*
X83440Y26223D01*
D02*
G37*
G36*
X70642Y24382D02*
X69735Y24370D01*
Y25354D01*
X69909Y25358D01*
X70065Y25371D01*
X70202Y25392D01*
X70322Y25421D01*
X70423Y25458D01*
X70505Y25504D01*
X70570Y25557D01*
X70616Y25620D01*
X70644Y25690D01*
X70654Y25769D01*
X70642Y24382D01*
D02*
G37*
G36*
X83120Y23610D02*
X83341Y23419D01*
X83383Y23391D01*
X83420Y23371D01*
X83451Y23358D01*
X83477Y23354D01*
X83498Y23357D01*
X82874Y22431D01*
X82870Y22441D01*
X82857Y22459D01*
X82836Y22485D01*
X82724Y22608D01*
X82457Y22880D01*
X83052Y23677D01*
X83120Y23610D01*
D02*
G37*
G36*
X73453Y22472D02*
X73301Y22468D01*
X73166Y22456D01*
X73047Y22436D01*
X72943Y22409D01*
X72855Y22373D01*
X72783Y22330D01*
X72727Y22279D01*
X72686Y22220D01*
X72662Y22153D01*
X72653Y22078D01*
X72665Y23256D01*
X72673Y23256D01*
X72697Y23257D01*
X73453Y23259D01*
Y22472D01*
D02*
G37*
G36*
X117544Y21496D02*
X117536Y21571D01*
X117512Y21638D01*
X117472Y21697D01*
X117416Y21748D01*
X117344Y21791D01*
X117256Y21827D01*
X117152Y21854D01*
X117032Y21874D01*
X116896Y21886D01*
X116744Y21890D01*
Y22677D01*
X116896Y22681D01*
X117032Y22693D01*
X117152Y22713D01*
X117256Y22740D01*
X117344Y22776D01*
X117416Y22819D01*
X117472Y22870D01*
X117512Y22929D01*
X117536Y22996D01*
X117544Y23071D01*
Y21496D01*
D02*
G37*
G36*
X70654Y21457D02*
X70646Y21531D01*
X70622Y21598D01*
X70582Y21657D01*
X70526Y21709D01*
X70454Y21752D01*
X70366Y21787D01*
X70262Y21815D01*
X70142Y21835D01*
X70006Y21846D01*
X69854Y21850D01*
Y22638D01*
X70006Y22642D01*
X70142Y22654D01*
X70262Y22673D01*
X70366Y22701D01*
X70454Y22736D01*
X70526Y22780D01*
X70582Y22831D01*
X70622Y22890D01*
X70646Y22957D01*
X70654Y23031D01*
Y21457D01*
D02*
G37*
G36*
X75603Y21173D02*
X75595Y21188D01*
X75571Y21202D01*
X75532Y21214D01*
X75477Y21224D01*
X75406Y21232D01*
X75217Y21245D01*
X74815Y21252D01*
Y22039D01*
X74965Y22040D01*
X75477Y22073D01*
X75532Y22086D01*
X75571Y22100D01*
X75595Y22116D01*
X75603Y22134D01*
Y21173D01*
D02*
G37*
G36*
X124138Y20803D02*
X124071Y20779D01*
X124012Y20740D01*
X123961Y20684D01*
X123917Y20612D01*
X123882Y20524D01*
X123854Y20420D01*
X123835Y20300D01*
X123823Y20164D01*
X123819Y20012D01*
X123031D01*
X123028Y20164D01*
X123016Y20300D01*
X122996Y20420D01*
X122968Y20524D01*
X122933Y20612D01*
X122890Y20684D01*
X122839Y20740D01*
X122780Y20779D01*
X122713Y20803D01*
X122638Y20811D01*
X124213D01*
X124138Y20803D01*
D02*
G37*
G36*
X73746Y20433D02*
X73517Y20201D01*
X72733Y19301D01*
X72650Y19176D01*
X72621Y19107D01*
X72598Y19013D01*
Y18929D01*
X72621Y18857D01*
X72665Y18796D01*
X72543Y18918D01*
X72539Y18897D01*
X71653Y19783D01*
X71674Y19787D01*
X71552Y19909D01*
X71613Y19865D01*
X71685Y19842D01*
X71769D01*
X71863Y19865D01*
X71932Y19894D01*
X72057Y19977D01*
X72202Y20085D01*
X72544Y20375D01*
X73189Y20990D01*
X73746Y20433D01*
D02*
G37*
G36*
X112988Y20149D02*
X113012Y20134D01*
X113051Y20121D01*
X113106Y20110D01*
X113177Y20100D01*
X113366Y20087D01*
X113768Y20079D01*
Y19291D01*
X113618Y19290D01*
X113106Y19260D01*
X113051Y19249D01*
X113012Y19236D01*
X112988Y19221D01*
X112980Y19205D01*
Y20165D01*
X112988Y20149D01*
D02*
G37*
G36*
X75603Y19205D02*
X75595Y19203D01*
X75571Y19201D01*
X75406Y19196D01*
X74815Y19193D01*
Y19980D01*
X74965Y19982D01*
X75319Y20010D01*
X75406Y20027D01*
X75477Y20047D01*
X75532Y20071D01*
X75571Y20099D01*
X75595Y20130D01*
X75603Y20165D01*
Y19205D01*
D02*
G37*
G36*
X48644Y21410D02*
X48640Y21351D01*
X48629Y20937D01*
X48627Y20454D01*
X48709Y18590D01*
X45669Y18578D01*
X45856Y18599D01*
X46024Y18659D01*
X46171Y18758D01*
X46299Y18897D01*
X46407Y19075D01*
X46496Y19293D01*
X46565Y19550D01*
X46614Y19847D01*
X46643Y20181D01*
X46626Y21429D01*
X48649D01*
X48644Y21410D01*
D02*
G37*
G36*
X66539Y18930D02*
X66551Y18783D01*
X66571Y18654D01*
X66598Y18541D01*
X66633Y18446D01*
X66676Y18366D01*
X66726Y18304D01*
X66785Y18258D01*
X66851Y18229D01*
X66925Y18217D01*
X65354Y18293D01*
X65429Y18298D01*
X65496Y18319D01*
X65555Y18357D01*
X65606Y18412D01*
X65650Y18484D01*
X65685Y18572D01*
X65713Y18677D01*
X65732Y18799D01*
X65744Y18937D01*
X65748Y19093D01*
X66535D01*
X66539Y18930D01*
D02*
G37*
G36*
X70642Y19909D02*
X70654Y17994D01*
X70643Y18024D01*
X70612Y18050D01*
X70559Y18073D01*
X70485Y18094D01*
X70390Y18111D01*
X70274Y18125D01*
X69979Y18143D01*
X69600Y18150D01*
Y19921D01*
X70642Y19909D01*
D02*
G37*
G36*
X116417Y17664D02*
X116403Y17668D01*
X116386Y17666D01*
X116365Y17658D01*
X116339Y17644D01*
X116309Y17624D01*
X116276Y17599D01*
X116196Y17530D01*
X116101Y17438D01*
X115544Y17995D01*
X115948Y18421D01*
X116417Y17664D01*
D02*
G37*
G36*
X112988Y18180D02*
X113012Y18166D01*
X113051Y18153D01*
X113106Y18141D01*
X113177Y18132D01*
X113366Y18118D01*
X113768Y18110D01*
Y17323D01*
X113618Y17322D01*
X113106Y17292D01*
X113051Y17280D01*
X113012Y17267D01*
X112988Y17253D01*
X112980Y17236D01*
Y18197D01*
X112988Y18180D01*
D02*
G37*
G36*
X108083Y17236D02*
X108075Y17253D01*
X108051Y17267D01*
X108012Y17280D01*
X107957Y17292D01*
X107886Y17301D01*
X107697Y17315D01*
X107296Y17323D01*
Y18110D01*
X107445Y18111D01*
X107957Y18141D01*
X108012Y18153D01*
X108051Y18166D01*
X108075Y18180D01*
X108083Y18197D01*
Y17236D01*
D02*
G37*
G36*
X123823Y17848D02*
X123835Y17712D01*
X123854Y17592D01*
X123882Y17488D01*
X123917Y17400D01*
X123961Y17328D01*
X124012Y17272D01*
X124071Y17232D01*
X124138Y17208D01*
X124213Y17200D01*
X122638D01*
X122713Y17208D01*
X122780Y17232D01*
X122839Y17272D01*
X122890Y17328D01*
X122933Y17400D01*
X122968Y17488D01*
X122996Y17592D01*
X123016Y17712D01*
X123028Y17848D01*
X123031Y18000D01*
X123819D01*
X123823Y17848D01*
D02*
G37*
G36*
X142120Y17153D02*
X141964Y16992D01*
X141719Y16702D01*
X141630Y16574D01*
X141563Y16457D01*
X141518Y16352D01*
X141496Y16257D01*
Y16173D01*
X141518Y16101D01*
X141563Y16040D01*
X140449Y17153D01*
X140510Y17109D01*
X140583Y17086D01*
X140666D01*
X140761Y17109D01*
X140867Y17153D01*
X140984Y17220D01*
X141112Y17309D01*
X141251Y17421D01*
X141563Y17710D01*
X142120Y17153D01*
D02*
G37*
G36*
X113768Y15453D02*
X113618Y15451D01*
X113264Y15423D01*
X113177Y15406D01*
X113106Y15386D01*
X113051Y15362D01*
X113012Y15335D01*
X112988Y15303D01*
X112980Y15268D01*
Y16228D01*
X112988Y16230D01*
X113012Y16232D01*
X113177Y16237D01*
X113768Y16240D01*
Y15453D01*
D02*
G37*
G36*
X119008Y15071D02*
X119000Y15144D01*
X118977Y15209D01*
X118937Y15266D01*
X118882Y15315D01*
X118811Y15357D01*
X118725Y15392D01*
X118622Y15418D01*
X118504Y15438D01*
X118370Y15449D01*
X118221Y15453D01*
Y16240D01*
X118372Y16244D01*
X118508Y16256D01*
X118627Y16276D01*
X118731Y16303D01*
X118819Y16339D01*
X118891Y16382D01*
X118947Y16433D01*
X118987Y16492D01*
X119011Y16559D01*
X119020Y16634D01*
X119008Y15071D01*
D02*
G37*
G36*
X107283Y16782D02*
Y15409D01*
X106783Y15066D01*
X106693Y15084D01*
X93768D01*
X93420Y15015D01*
X93124Y14818D01*
X92663Y14356D01*
X92465Y14061D01*
X92396Y13712D01*
Y13635D01*
X92373Y13583D01*
X88333D01*
X88313Y13630D01*
Y14583D01*
X90535Y16805D01*
X107231D01*
X107283Y16782D01*
D02*
G37*
G36*
X72034Y14748D02*
X71958Y14803D01*
X71869Y14830D01*
X71765Y14828D01*
X71647Y14799D01*
X71515Y14742D01*
X71369Y14658D01*
X71208Y14545D01*
X71034Y14405D01*
X70772Y14162D01*
X70631Y13996D01*
X70586Y13931D01*
X70547Y13869D01*
X70516Y13810D01*
X70491Y13754D01*
X70474Y13701D01*
X70464Y13650D01*
X69637Y14752D01*
X69695Y14748D01*
X69754Y14752D01*
X69816Y14765D01*
X69879Y14787D01*
X69945Y14817D01*
X70013Y14855D01*
X70083Y14903D01*
X70155Y14959D01*
X70168Y14969D01*
X70451Y15303D01*
X70563Y15463D01*
X70648Y15609D01*
X70705Y15742D01*
X70734Y15859D01*
X70735Y15963D01*
X70708Y16053D01*
X70654Y16128D01*
X72034Y14748D01*
D02*
G37*
G36*
X141264Y15134D02*
X141197Y15110D01*
X141138Y15070D01*
X141087Y15014D01*
X141043Y14942D01*
X141008Y14854D01*
X140980Y14750D01*
X140961Y14630D01*
X140949Y14495D01*
X140945Y14343D01*
X140157D01*
X140154Y14495D01*
X140142Y14630D01*
X140122Y14750D01*
X140094Y14854D01*
X140059Y14942D01*
X140016Y15014D01*
X139965Y15070D01*
X139906Y15110D01*
X139839Y15134D01*
X139764Y15142D01*
X141339D01*
X141264Y15134D01*
D02*
G37*
G36*
X84103Y13724D02*
X84057Y13725D01*
X84015Y13715D01*
X83978Y13693D01*
X83946Y13659D01*
X83920Y13613D01*
X83897Y13555D01*
X83880Y13485D01*
X83868Y13403D01*
X83864Y13346D01*
X83889Y12909D01*
X83901Y12854D01*
X83914Y12815D01*
X83928Y12791D01*
X83945Y12783D01*
X82985D01*
X83001Y12791D01*
X83016Y12815D01*
X83029Y12854D01*
X83040Y12909D01*
X83049Y12980D01*
X83063Y13169D01*
X83071Y13571D01*
X83081D01*
X83270Y14635D01*
X84103Y13724D01*
D02*
G37*
G36*
X78665Y15272D02*
X78598Y15248D01*
X78539Y15208D01*
X78488Y15152D01*
X78445Y15080D01*
X78409Y14992D01*
X78382Y14888D01*
X78362Y14768D01*
X78350Y14632D01*
X78347Y14483D01*
X78349Y14387D01*
X78358Y14293D01*
X78373Y14204D01*
X78394Y14118D01*
X78420Y14037D01*
X78453Y13960D01*
X78491Y13888D01*
X78535Y13819D01*
X78586Y13755D01*
X78642Y13695D01*
X77264D01*
X77320Y13755D01*
X77370Y13819D01*
X77414Y13888D01*
X77453Y13960D01*
X77485Y14037D01*
X77512Y14118D01*
X77533Y14204D01*
X77547Y14293D01*
X77556Y14387D01*
X77559Y14483D01*
X77555Y14632D01*
X77543Y14768D01*
X77524Y14888D01*
X77496Y14992D01*
X77461Y15080D01*
X77417Y15152D01*
X77366Y15208D01*
X77307Y15248D01*
X77240Y15272D01*
X77165Y15280D01*
X78740D01*
X78665Y15272D01*
D02*
G37*
G36*
X93702Y13421D02*
X93732Y12909D01*
X93743Y12854D01*
X93756Y12815D01*
X93771Y12791D01*
X93787Y12783D01*
X92827D01*
X92843Y12791D01*
X92858Y12815D01*
X92871Y12854D01*
X92882Y12909D01*
X92892Y12980D01*
X92906Y13169D01*
X92913Y13571D01*
X93701D01*
X93702Y13421D01*
D02*
G37*
G36*
X87796D02*
X87826Y12909D01*
X87838Y12854D01*
X87851Y12815D01*
X87865Y12791D01*
X87882Y12783D01*
X86922D01*
X86938Y12791D01*
X86953Y12815D01*
X86966Y12854D01*
X86977Y12909D01*
X86986Y12980D01*
X87000Y13169D01*
X87008Y13571D01*
X87795D01*
X87796Y13421D01*
D02*
G37*
G36*
X140949Y12828D02*
X140961Y12692D01*
X140980Y12572D01*
X141008Y12468D01*
X141043Y12381D01*
X141087Y12309D01*
X141138Y12253D01*
X141197Y12213D01*
X141264Y12189D01*
X141339Y12181D01*
X139764D01*
X139839Y12189D01*
X139906Y12213D01*
X139965Y12253D01*
X140016Y12309D01*
X140059Y12381D01*
X140094Y12468D01*
X140122Y12572D01*
X140142Y12692D01*
X140154Y12828D01*
X140157Y12980D01*
X140945D01*
X140949Y12828D01*
D02*
G37*
G36*
X138607Y9449D02*
X138599Y9524D01*
X138575Y9591D01*
X138535Y9650D01*
X138479Y9701D01*
X138407Y9744D01*
X138319Y9780D01*
X138215Y9807D01*
X138095Y9827D01*
X137959Y9839D01*
X137807Y9843D01*
Y10630D01*
X137959Y10634D01*
X138095Y10646D01*
X138215Y10665D01*
X138319Y10693D01*
X138407Y10728D01*
X138479Y10772D01*
X138535Y10823D01*
X138575Y10882D01*
X138599Y10949D01*
X138607Y11024D01*
Y9449D01*
D02*
G37*
G36*
X121244Y10949D02*
X121268Y10882D01*
X121308Y10823D01*
X121364Y10772D01*
X121436Y10728D01*
X121524Y10693D01*
X121628Y10665D01*
X121748Y10646D01*
X121883Y10634D01*
X122035Y10630D01*
Y9843D01*
X121883Y9839D01*
X121748Y9827D01*
X121628Y9807D01*
X121524Y9780D01*
X121436Y9744D01*
X121364Y9701D01*
X121308Y9650D01*
X121268Y9591D01*
X121244Y9524D01*
X121236Y9449D01*
Y11024D01*
X121244Y10949D01*
D02*
G37*
G36*
X116559Y9449D02*
X116551Y9524D01*
X116527Y9591D01*
X116488Y9650D01*
X116431Y9701D01*
X116360Y9744D01*
X116272Y9780D01*
X116168Y9807D01*
X116048Y9827D01*
X115912Y9839D01*
X115760Y9843D01*
Y10630D01*
X115912Y10634D01*
X116048Y10646D01*
X116168Y10665D01*
X116272Y10693D01*
X116360Y10728D01*
X116431Y10772D01*
X116488Y10823D01*
X116527Y10882D01*
X116551Y10949D01*
X116559Y11024D01*
Y9449D01*
D02*
G37*
G36*
X67966Y9142D02*
X67810Y8980D01*
X67565Y8691D01*
X67476Y8563D01*
X67409Y8446D01*
X67365Y8340D01*
X67342Y8245D01*
Y8162D01*
X67365Y8089D01*
X67409Y8028D01*
X66295Y9142D01*
X66357Y9097D01*
X66429Y9075D01*
X66513D01*
X66607Y9097D01*
X66713Y9142D01*
X66830Y9208D01*
X66958Y9297D01*
X67097Y9409D01*
X67409Y9698D01*
X67966Y9142D01*
D02*
G37*
G36*
X72551Y8960D02*
X72724Y8957D01*
Y7185D01*
X72551Y7184D01*
Y7000D01*
X72534Y7035D01*
X72480Y7067D01*
X72392Y7095D01*
X72268Y7119D01*
X72109Y7139D01*
X71929Y7151D01*
X71112Y7095D01*
X71023Y7067D01*
X70970Y7035D01*
X70952Y7000D01*
Y7182D01*
X70780Y7185D01*
Y8957D01*
X70952Y8958D01*
Y9142D01*
X70970Y9106D01*
X71023Y9075D01*
X71112Y9047D01*
X71236Y9023D01*
X71395Y9003D01*
X71575Y8990D01*
X72392Y9047D01*
X72480Y9075D01*
X72534Y9106D01*
X72551Y9142D01*
Y8960D01*
D02*
G37*
G36*
X77838Y8783D02*
X77862Y8716D01*
X77902Y8658D01*
X77958Y8606D01*
X78030Y8563D01*
X78118Y8528D01*
X78222Y8500D01*
X78342Y8480D01*
X78478Y8468D01*
X78630Y8465D01*
Y7677D01*
X78478Y7673D01*
X78342Y7661D01*
X78222Y7642D01*
X78118Y7614D01*
X78030Y7579D01*
X77958Y7535D01*
X77902Y7484D01*
X77862Y7425D01*
X77838Y7358D01*
X77830Y7283D01*
Y8858D01*
X77838Y8783D01*
D02*
G37*
G36*
X65673Y7283D02*
X65665Y7358D01*
X65641Y7425D01*
X65601Y7484D01*
X65545Y7535D01*
X65474Y7579D01*
X65386Y7614D01*
X65282Y7642D01*
X65162Y7661D01*
X65026Y7673D01*
X64874Y7677D01*
Y8465D01*
X65026Y8468D01*
X65162Y8480D01*
X65282Y8500D01*
X65386Y8528D01*
X65474Y8563D01*
X65545Y8606D01*
X65601Y8658D01*
X65641Y8716D01*
X65665Y8783D01*
X65673Y8858D01*
Y7283D01*
D02*
G37*
G36*
X64070Y8783D02*
X64094Y8716D01*
X64134Y8658D01*
X64189Y8606D01*
X64259Y8563D01*
X64346Y8528D01*
X64448Y8500D01*
X64567Y8480D01*
X64700Y8468D01*
X64850Y8465D01*
Y7677D01*
X64700Y7673D01*
X64567Y7661D01*
X64448Y7642D01*
X64346Y7614D01*
X64259Y7579D01*
X64189Y7535D01*
X64134Y7484D01*
X64094Y7425D01*
X64070Y7358D01*
X64063Y7283D01*
Y8858D01*
X64070Y8783D01*
D02*
G37*
G36*
X107256Y7684D02*
X107326Y7699D01*
X107450Y7736D01*
X107547Y7778D01*
X107616Y7824D01*
Y6349D01*
X107547Y6395D01*
X107450Y6437D01*
X107326Y6474D01*
X107256Y6489D01*
Y6102D01*
X107246Y6196D01*
X107217Y6279D01*
X107167Y6353D01*
X107099Y6417D01*
X107010Y6471D01*
X106902Y6516D01*
X106774Y6550D01*
X106737Y6556D01*
X106558Y6572D01*
X106010Y6592D01*
X105695Y6594D01*
Y7579D01*
X106010Y7581D01*
X106848Y7643D01*
X106902Y7658D01*
X107010Y7702D01*
X107099Y7756D01*
X107167Y7820D01*
X107217Y7894D01*
X107246Y7977D01*
X107256Y8071D01*
Y7684D01*
D02*
G37*
G36*
X109274Y6058D02*
X109269Y6005D01*
X109259Y5639D01*
X109252Y4331D01*
X107283D01*
X107256Y6075D01*
X109279D01*
X109274Y6058D01*
D02*
G37*
%LPC*%
G36*
X132567Y50037D02*
X132496Y50008D01*
X130307D01*
Y48562D01*
X130280Y48425D01*
X130307Y48289D01*
Y46843D01*
X132496D01*
X132567Y46813D01*
X132637Y46843D01*
X132709Y46843D01*
X132736Y46840D01*
X133079Y46843D01*
Y46931D01*
X134022Y46996D01*
X134215Y46997D01*
X134646Y46912D01*
X135225Y47027D01*
X135716Y47355D01*
X136044Y47846D01*
X136159Y48425D01*
X136044Y49004D01*
X135716Y49495D01*
X135225Y49823D01*
X134646Y49938D01*
X134223Y49854D01*
X133458Y49869D01*
X133079Y49895D01*
X133079Y50008D01*
X132736Y50010D01*
X132709Y50008D01*
X132637Y50008D01*
X132567Y50037D01*
D02*
G37*
G36*
X115803Y45724D02*
X114279D01*
Y44201D01*
X115803D01*
Y45724D01*
D02*
G37*
G36*
X113279D02*
X111756D01*
Y44201D01*
X113279D01*
Y45724D01*
D02*
G37*
G36*
X127469Y39279D02*
X117020D01*
Y35287D01*
X127469D01*
Y39279D01*
D02*
G37*
G36*
X137098Y34780D02*
X131874D01*
Y32783D01*
X137098D01*
Y34780D01*
D02*
G37*
G36*
Y26783D02*
X131874D01*
Y24787D01*
X137098D01*
Y26783D01*
D02*
G37*
G36*
X136902Y18165D02*
X135378D01*
Y16642D01*
X136902D01*
Y18165D01*
D02*
G37*
G36*
Y15642D02*
X135378D01*
Y14118D01*
X136902D01*
Y15642D01*
D02*
G37*
G36*
X129921Y14318D02*
X129150Y14165D01*
X128496Y13728D01*
X128060Y13074D01*
X127906Y12303D01*
X128060Y11532D01*
X128496Y10878D01*
X129150Y10441D01*
X129921Y10288D01*
X130692Y10441D01*
X131346Y10878D01*
X131783Y11532D01*
X131936Y12303D01*
X131783Y13074D01*
X131346Y13728D01*
X130692Y14165D01*
X129921Y14318D01*
D02*
G37*
%LPD*%
G36*
X132585Y49461D02*
X132638Y49429D01*
X132726Y49402D01*
X132850Y49378D01*
X133010Y49357D01*
X133435Y49328D01*
X134338Y49311D01*
Y47539D01*
X134002Y47537D01*
X132726Y47449D01*
X132638Y47421D01*
X132585Y47390D01*
X132567Y47355D01*
Y49496D01*
X132585Y49461D01*
D02*
G37*
%LPC*%
G36*
X75106Y51394D02*
X73032D01*
Y49319D01*
X75106D01*
Y51394D01*
D02*
G37*
G36*
X72031D02*
X69957D01*
Y49319D01*
X72031D01*
Y51394D01*
D02*
G37*
G36*
X48720Y51976D02*
X45555D01*
Y49205D01*
X48720D01*
Y49205D01*
X49197Y49148D01*
Y48490D01*
X48720Y48433D01*
X48697Y48433D01*
X47343D01*
X47206Y48460D01*
X47138D01*
X47001Y48433D01*
X45555D01*
Y46325D01*
X45543Y46310D01*
X45553Y46239D01*
X45526Y46173D01*
X45555Y46103D01*
Y45661D01*
X45742D01*
X45742Y45660D01*
X45777Y45137D01*
X45777Y45116D01*
X45731Y44882D01*
X45846Y44303D01*
X46174Y43812D01*
X46665Y43484D01*
X47244Y43369D01*
X47823Y43484D01*
X48314Y43812D01*
X48642Y44303D01*
X48757Y44882D01*
X48702Y45161D01*
X48720Y45661D01*
X48730Y46030D01*
X48721Y46104D01*
X48750Y46173D01*
X48738Y46202D01*
X48877Y46706D01*
X49197Y46744D01*
X49220Y46744D01*
X53347D01*
Y50894D01*
X50485D01*
X50144Y51235D01*
X49849Y51432D01*
X49500Y51502D01*
X49063D01*
X49010Y51525D01*
X48875Y51529D01*
X48776Y51537D01*
X48720Y51546D01*
Y51976D01*
D02*
G37*
G36*
X79028Y49661D02*
X77504D01*
Y48138D01*
X79028D01*
Y49661D01*
D02*
G37*
G36*
X75106Y48319D02*
X73032D01*
Y46244D01*
X75106D01*
Y48319D01*
D02*
G37*
G36*
X72031D02*
X69957D01*
Y46244D01*
X72031D01*
Y48319D01*
D02*
G37*
G36*
X64075Y51976D02*
X60909D01*
Y49205D01*
X64075D01*
Y49205D01*
X64551Y49148D01*
Y48490D01*
X64075Y48433D01*
X64051Y48433D01*
X60909D01*
Y45661D01*
X60909D01*
X61141Y45161D01*
X61085Y44882D01*
X61200Y44303D01*
X61528Y43812D01*
X62019Y43484D01*
X62598Y43369D01*
X63178Y43484D01*
X63669Y43812D01*
X63997Y44303D01*
X64112Y44882D01*
X64056Y45161D01*
X64075Y45661D01*
X64075Y45661D01*
X64075Y45662D01*
Y46687D01*
X64551Y46744D01*
X64575Y46744D01*
X68701D01*
Y50894D01*
X65840D01*
X65499Y51235D01*
X65203Y51432D01*
X64854Y51502D01*
X64417D01*
X64364Y51525D01*
X64229Y51529D01*
X64130Y51537D01*
X64075Y51546D01*
Y51976D01*
D02*
G37*
G36*
X79028Y47138D02*
X77504D01*
Y45614D01*
X79028D01*
Y47138D01*
D02*
G37*
G36*
X23425Y46398D02*
X20972D01*
Y44102D01*
X26155D01*
X26125Y44326D01*
X25846Y45000D01*
X25402Y45579D01*
X24823Y46023D01*
X24149Y46303D01*
X23425Y46398D01*
D02*
G37*
G36*
X19972D02*
X17520D01*
X16796Y46303D01*
X16122Y46023D01*
X15543Y45579D01*
X15099Y45000D01*
X14819Y44326D01*
X14790Y44102D01*
X19972D01*
Y46398D01*
D02*
G37*
G36*
X59252Y50894D02*
X55102D01*
Y46744D01*
X55804D01*
X56110Y46360D01*
X56144Y46252D01*
X56136Y46201D01*
X56125Y46156D01*
X56112Y46117D01*
X56097Y46082D01*
X56081Y46051D01*
X56063Y46023D01*
X56042Y45997D01*
X56002Y45954D01*
X55982Y45900D01*
X55689Y45461D01*
X55573Y44882D01*
X55689Y44303D01*
X56016Y43812D01*
X56507Y43484D01*
X57087Y43369D01*
X57666Y43484D01*
X58157Y43812D01*
X58485Y44303D01*
X58600Y44882D01*
X58485Y45461D01*
X58191Y45900D01*
X58171Y45954D01*
X58131Y45997D01*
X58110Y46023D01*
X58092Y46051D01*
X58076Y46082D01*
X58061Y46117D01*
X58048Y46156D01*
X58038Y46201D01*
X58029Y46252D01*
X58063Y46360D01*
X58369Y46744D01*
X59252D01*
Y50894D01*
D02*
G37*
G36*
X44185D02*
X40036D01*
Y46744D01*
X40844D01*
X41149Y46360D01*
X41183Y46252D01*
X41175Y46201D01*
X41164Y46156D01*
X41151Y46117D01*
X41137Y46082D01*
X41120Y46051D01*
X41102Y46023D01*
X41082Y45997D01*
X41042Y45954D01*
X41021Y45900D01*
X40728Y45461D01*
X40613Y44882D01*
X40728Y44303D01*
X41056Y43812D01*
X41547Y43484D01*
X42126Y43369D01*
X42705Y43484D01*
X43196Y43812D01*
X43524Y44303D01*
X43639Y44882D01*
X43524Y45461D01*
X43231Y45900D01*
X43210Y45954D01*
X43170Y45997D01*
X43150Y46023D01*
X43132Y46051D01*
X43115Y46082D01*
X43101Y46117D01*
X43088Y46156D01*
X43077Y46201D01*
X43069Y46252D01*
X43103Y46360D01*
X43408Y46744D01*
X44185D01*
Y50894D01*
D02*
G37*
G36*
X11470Y43102D02*
X7665D01*
Y40807D01*
X8740D01*
X9464Y40902D01*
X10138Y41181D01*
X10717Y41626D01*
X11161Y42205D01*
X11440Y42879D01*
X11470Y43102D01*
D02*
G37*
G36*
X6665D02*
X2861D01*
X2890Y42879D01*
X3170Y42205D01*
X3614Y41626D01*
X4193Y41181D01*
X4867Y40902D01*
X5591Y40807D01*
X6665D01*
Y43102D01*
D02*
G37*
G36*
X73736Y40665D02*
X72154D01*
Y39279D01*
X73736D01*
Y40665D01*
D02*
G37*
G36*
X71153D02*
X69571D01*
Y39279D01*
X71153D01*
Y40665D01*
D02*
G37*
G36*
X56701Y41740D02*
Y41740D01*
X53929D01*
Y38853D01*
X53929Y38575D01*
X54028Y38116D01*
Y35228D01*
X56799D01*
Y35756D01*
X56859Y35766D01*
X56956Y35774D01*
X57089Y35778D01*
X57142Y35801D01*
X62218D01*
X62271Y35778D01*
X62351Y35776D01*
X62409Y35770D01*
X62460Y35762D01*
X62505Y35751D01*
X62545Y35738D01*
X62579Y35723D01*
X62610Y35707D01*
X62638Y35689D01*
X62664Y35668D01*
X62707Y35628D01*
X62761Y35608D01*
X63130Y35361D01*
X63173Y35030D01*
X63151Y34814D01*
X62601Y34446D01*
X62119Y33725D01*
X61949Y32874D01*
Y31012D01*
X64854D01*
Y35362D01*
X64783Y35598D01*
X64850Y35642D01*
X65178Y36134D01*
X65293Y36713D01*
X65178Y37292D01*
X64850Y37783D01*
X64359Y38111D01*
X63779Y38226D01*
X63200Y38111D01*
X62761Y37817D01*
X62707Y37797D01*
X62665Y37757D01*
X62638Y37736D01*
X62610Y37718D01*
X62579Y37702D01*
X62545Y37687D01*
X62505Y37674D01*
X62460Y37664D01*
X62409Y37655D01*
X62351Y37650D01*
X62271Y37647D01*
X62218Y37624D01*
X57280D01*
X56799Y37982D01*
X56799Y38394D01*
X56755Y38601D01*
X57201Y38823D01*
X57295Y38760D01*
X57874Y38645D01*
X58453Y38760D01*
X58944Y39088D01*
X59272Y39579D01*
X59387Y40158D01*
X59272Y40737D01*
X58944Y41228D01*
X58453Y41556D01*
X57874Y41672D01*
X57295Y41556D01*
X57201Y41493D01*
X56701Y41740D01*
D02*
G37*
G36*
X26155Y43102D02*
X14790D01*
X14819Y42879D01*
X15099Y42205D01*
X15543Y41626D01*
X16122Y41181D01*
X16796Y40902D01*
X17520Y40807D01*
X17783D01*
X17935Y40307D01*
X17372Y39931D01*
X16869Y39177D01*
X16791Y38787D01*
X19016D01*
Y37787D01*
X16791D01*
X16869Y37398D01*
X17241Y36841D01*
X16994Y36341D01*
X16127D01*
X16127Y36341D01*
X15548Y36226D01*
X15057Y35898D01*
X13694Y34535D01*
X13366Y34044D01*
X13250Y33465D01*
X13250Y33465D01*
Y19854D01*
X13250Y19854D01*
X13366Y19275D01*
X13694Y18784D01*
X15226Y17252D01*
X15226Y17252D01*
X15717Y16924D01*
X16296Y16808D01*
X16296Y16808D01*
X16994D01*
X17241Y16308D01*
X16869Y15752D01*
X16791Y15362D01*
X19016D01*
Y14362D01*
X16791D01*
X16869Y13973D01*
X17372Y13219D01*
X17935Y12843D01*
X17783Y12343D01*
X17520D01*
X16796Y12247D01*
X16122Y11968D01*
X15543Y11524D01*
X15099Y10945D01*
X14819Y10271D01*
X14790Y10047D01*
X26155D01*
X26125Y10271D01*
X25846Y10945D01*
X25402Y11524D01*
X24823Y11968D01*
X24566Y12075D01*
X24617Y12595D01*
X25220Y12715D01*
X25974Y13219D01*
X26478Y13973D01*
X26555Y14362D01*
X24331D01*
Y15362D01*
X26555D01*
X26478Y15752D01*
X26221Y16136D01*
X26488Y16636D01*
X27018D01*
Y16142D01*
X27176Y15759D01*
X27559Y15600D01*
X29774D01*
Y13386D01*
X29932Y13003D01*
X30260Y12867D01*
Y11917D01*
X32283D01*
Y11417D01*
X32783D01*
Y9394D01*
X34307D01*
Y10520D01*
D01*
Y11208D01*
X34335Y11230D01*
X34835Y10988D01*
Y8457D01*
X39181D01*
Y8607D01*
X39672Y8612D01*
X39730Y8637D01*
X40244Y8740D01*
X40736Y9068D01*
X42409Y10741D01*
X42409Y10741D01*
X42737Y11232D01*
X42852Y11811D01*
X42852Y11811D01*
Y15354D01*
X42852Y15354D01*
X42737Y15934D01*
X42409Y16424D01*
X40342Y18491D01*
X39911Y18779D01*
D01*
Y19685D01*
X39753Y20068D01*
X39370Y20226D01*
X34307D01*
Y20760D01*
X30260D01*
Y20226D01*
X27559D01*
X27176Y20068D01*
X27018Y19685D01*
Y19663D01*
X25602D01*
X25450Y20163D01*
X25614Y20272D01*
X26007Y20861D01*
X26145Y21555D01*
X26007Y22249D01*
X25614Y22838D01*
X25404Y22978D01*
Y23478D01*
X25614Y23619D01*
X26007Y24207D01*
X26141Y24879D01*
X26151Y24904D01*
X26154Y25024D01*
X26162Y25120D01*
X26175Y25207D01*
X26194Y25287D01*
X26217Y25359D01*
X26244Y25425D01*
X26275Y25486D01*
X26310Y25541D01*
X26350Y25594D01*
X26412Y25661D01*
X26431Y25713D01*
X30895Y30177D01*
X31093Y30473D01*
X31162Y30821D01*
Y33810D01*
X33873Y36521D01*
X34335Y36330D01*
Y34532D01*
X34366D01*
X34481Y34514D01*
X34502Y34370D01*
X34044Y34075D01*
X33465Y34190D01*
X32885Y34075D01*
X32394Y33747D01*
X32066Y33256D01*
X31951Y32677D01*
X32066Y32098D01*
X32394Y31607D01*
X32885Y31279D01*
X33465Y31164D01*
X34044Y31279D01*
X34335Y31473D01*
X34835Y31292D01*
Y31292D01*
X38984D01*
Y31918D01*
X39039Y31927D01*
X39138Y31936D01*
X39274Y31940D01*
X39327Y31963D01*
X44532D01*
X44584Y31940D01*
X44717Y31936D01*
X44814Y31928D01*
X44874Y31918D01*
Y31292D01*
X49024D01*
Y32693D01*
X49168Y32721D01*
X49463Y32919D01*
X51312Y34768D01*
X51365Y34787D01*
X51665Y35066D01*
X51775Y35155D01*
X51870Y35222D01*
X51881Y35228D01*
X52068D01*
X52110Y35211D01*
X52151Y35228D01*
X52153D01*
X52197Y35218D01*
X52213Y35228D01*
X53256D01*
Y38116D01*
X53256Y38394D01*
D01*
X53158Y38853D01*
Y41740D01*
X50386D01*
Y41212D01*
X50331Y41203D01*
X50232Y41194D01*
X50096Y41191D01*
X50044Y41167D01*
X49366D01*
X49313Y41191D01*
X49178Y41194D01*
X49079Y41203D01*
X49024Y41212D01*
Y41937D01*
X44874D01*
Y41311D01*
X44814Y41301D01*
X44717Y41293D01*
X44584Y41289D01*
X44532Y41266D01*
X39327D01*
X39274Y41289D01*
X39138Y41293D01*
X39039Y41302D01*
X38984Y41311D01*
Y41937D01*
X34835D01*
Y40519D01*
X34812Y40482D01*
X34822Y40439D01*
X34805Y40398D01*
X34835Y40327D01*
Y40175D01*
X34822Y40152D01*
X34761Y40065D01*
X34544Y39809D01*
X34400Y39660D01*
X34379Y39605D01*
X29606Y34832D01*
X29409Y34537D01*
X29339Y34188D01*
Y31199D01*
X26611Y28470D01*
X26068Y28635D01*
X26007Y28942D01*
X25614Y29531D01*
X25404Y29671D01*
Y30171D01*
X25614Y30312D01*
X26007Y30900D01*
X26145Y31594D01*
X26007Y32289D01*
X25614Y32877D01*
X25404Y33018D01*
Y33518D01*
X25614Y33658D01*
X26007Y34247D01*
X26145Y34941D01*
X26007Y35635D01*
X25809Y35932D01*
X25895Y36591D01*
X25974Y36644D01*
X26478Y37398D01*
X26555Y37787D01*
X24331D01*
Y38787D01*
X26555D01*
X26478Y39177D01*
X25974Y39931D01*
X25220Y40435D01*
X24617Y40555D01*
X24566Y41075D01*
X24823Y41181D01*
X25402Y41626D01*
X25846Y42205D01*
X26125Y42879D01*
X26155Y43102D01*
D02*
G37*
G36*
X66535Y35098D02*
X65854D01*
Y31012D01*
X68759D01*
Y32874D01*
X68590Y33725D01*
X68108Y34446D01*
X67387Y34929D01*
X66535Y35098D01*
D02*
G37*
G36*
X43988Y28098D02*
X42465D01*
Y26575D01*
X43988D01*
Y28098D01*
D02*
G37*
G36*
X34307Y23283D02*
X32783D01*
Y21760D01*
X34307D01*
Y23283D01*
D02*
G37*
G36*
X31784D02*
X30260D01*
Y21760D01*
X31784D01*
Y23283D01*
D02*
G37*
G36*
X43988Y21941D02*
X42465D01*
Y20417D01*
X43988D01*
Y21941D01*
D02*
G37*
G36*
X57087Y19350D02*
X56406D01*
Y15264D01*
X59311D01*
Y17126D01*
X59141Y17977D01*
X58659Y18699D01*
X57938Y19181D01*
X57087Y19350D01*
D02*
G37*
G36*
X55405D02*
X54724D01*
X53873Y19181D01*
X53152Y18699D01*
X52670Y17977D01*
X52501Y17126D01*
Y15264D01*
X55405D01*
Y19350D01*
D02*
G37*
G36*
Y14264D02*
X52501D01*
Y12402D01*
X52670Y11551D01*
X53152Y10829D01*
X53873Y10347D01*
X54724Y10178D01*
X55405D01*
Y14264D01*
D02*
G37*
G36*
X8740Y12343D02*
X7665D01*
Y10047D01*
X11470D01*
X11440Y10271D01*
X11161Y10945D01*
X10717Y11524D01*
X10138Y11968D01*
X9464Y12247D01*
X8740Y12343D01*
D02*
G37*
G36*
X6665D02*
X5591D01*
X4867Y12247D01*
X4193Y11968D01*
X3614Y11524D01*
X3170Y10945D01*
X2890Y10271D01*
X2861Y10047D01*
X6665D01*
Y12343D01*
D02*
G37*
G36*
X31784Y10917D02*
X30260D01*
Y9394D01*
X31784D01*
Y10917D01*
D02*
G37*
G36*
X59311Y14264D02*
X56406D01*
Y10178D01*
X57087D01*
X57286Y10217D01*
X57760Y9802D01*
Y8571D01*
X59145D01*
Y10153D01*
X58548D01*
X58396Y10654D01*
X58659Y10829D01*
X59141Y11551D01*
X59311Y12402D01*
Y14264D01*
D02*
G37*
G36*
X49220Y11622D02*
X44874D01*
Y8457D01*
X49220D01*
Y11622D01*
D02*
G37*
G36*
X26155Y9047D02*
X20972D01*
Y6752D01*
X23425D01*
X24149Y6847D01*
X24823Y7126D01*
X25402Y7570D01*
X25846Y8150D01*
X26125Y8824D01*
X26155Y9047D01*
D02*
G37*
G36*
X19972D02*
X14790D01*
X14819Y8824D01*
X15099Y8150D01*
X15543Y7570D01*
X16122Y7126D01*
X16796Y6847D01*
X17520Y6752D01*
X19972D01*
Y9047D01*
D02*
G37*
G36*
X11470D02*
X7665D01*
Y6752D01*
X8740D01*
X9464Y6847D01*
X10138Y7126D01*
X10717Y7570D01*
X11161Y8150D01*
X11440Y8824D01*
X11470Y9047D01*
D02*
G37*
G36*
X6665D02*
X2861D01*
X2890Y8824D01*
X3170Y8150D01*
X3614Y7570D01*
X4193Y7126D01*
X4867Y6847D01*
X5591Y6752D01*
X6665D01*
Y9047D01*
D02*
G37*
G36*
X59145Y7571D02*
X57760D01*
Y5988D01*
X59145D01*
Y7571D01*
D02*
G37*
G36*
X113441Y6587D02*
X111917D01*
Y5063D01*
X113441D01*
Y6587D01*
D02*
G37*
G36*
X144307Y6512D02*
X141445D01*
Y4043D01*
X144307D01*
Y6512D01*
D02*
G37*
G36*
X140445D02*
X137583D01*
Y4043D01*
X140445D01*
Y6512D01*
D02*
G37*
G36*
X122260D02*
X119398D01*
Y4043D01*
X122260D01*
Y6512D01*
D02*
G37*
G36*
X118398D02*
X115535D01*
Y4043D01*
X118398D01*
Y6512D01*
D02*
G37*
%LPD*%
G36*
X48204Y51303D02*
X48228Y51236D01*
X48268Y51177D01*
X48324Y51126D01*
X48396Y51083D01*
X48484Y51047D01*
X48588Y51020D01*
X48708Y51000D01*
X48844Y50988D01*
X48996Y50984D01*
Y50197D01*
X48844Y50193D01*
X48708Y50181D01*
X48588Y50161D01*
X48484Y50134D01*
X48396Y50098D01*
X48324Y50055D01*
X48268Y50004D01*
X48228Y49945D01*
X48204Y49878D01*
X48197Y49803D01*
Y51378D01*
X48204Y51303D01*
D02*
G37*
G36*
X48186Y46161D02*
X48167Y46123D01*
X48149Y46061D01*
X48134Y45973D01*
X48121Y45860D01*
X48097Y45371D01*
X48092Y44919D01*
X46321D01*
X46318Y45158D01*
X46280Y45722D01*
X46257Y45860D01*
X46229Y45973D01*
X46196Y46061D01*
X46158Y46123D01*
X46115Y46161D01*
X46067Y46173D01*
X48208D01*
X48186Y46161D01*
D02*
G37*
G36*
X63559Y51303D02*
X63583Y51236D01*
X63623Y51177D01*
X63679Y51126D01*
X63751Y51083D01*
X63839Y51047D01*
X63942Y51020D01*
X64062Y51000D01*
X64198Y50988D01*
X64350Y50984D01*
Y50197D01*
X64198Y50193D01*
X64062Y50181D01*
X63942Y50161D01*
X63839Y50134D01*
X63751Y50098D01*
X63679Y50055D01*
X63623Y50004D01*
X63583Y49945D01*
X63559Y49878D01*
X63551Y49803D01*
Y51378D01*
X63559Y51303D01*
D02*
G37*
G36*
X62942Y46298D02*
X62951Y46204D01*
X62955Y46185D01*
X63333D01*
X63258Y46177D01*
X63191Y46153D01*
X63132Y46113D01*
X63081Y46058D01*
X63037Y45986D01*
X63020Y45943D01*
X63050Y45876D01*
X63091Y45805D01*
X63137Y45739D01*
X63190Y45678D01*
X63248Y45621D01*
X62949Y45605D01*
X62943Y45538D01*
X62939Y45386D01*
X62152D01*
X62148Y45538D01*
X62146Y45561D01*
X61873Y45547D01*
X61926Y45609D01*
X61973Y45676D01*
X62015Y45747D01*
X62051Y45821D01*
X62082Y45900D01*
X62084Y45908D01*
X62053Y45986D01*
X62010Y46058D01*
X61959Y46113D01*
X61900Y46153D01*
X61833Y46177D01*
X61758Y46185D01*
X62143D01*
X62149Y46252D01*
X62152Y46349D01*
X62939Y46396D01*
X62942Y46298D01*
D02*
G37*
G36*
X57799Y47260D02*
X57732Y47236D01*
X57673Y47196D01*
X57622Y47140D01*
X57579Y47068D01*
X57543Y46980D01*
X57516Y46876D01*
X57496Y46757D01*
X57484Y46621D01*
X57480Y46469D01*
X56693D01*
X56689Y46621D01*
X56677Y46757D01*
X56657Y46876D01*
X56630Y46980D01*
X56595Y47068D01*
X56551Y47140D01*
X56500Y47196D01*
X56441Y47236D01*
X56374Y47260D01*
X56299Y47268D01*
X57874D01*
X57799Y47260D01*
D02*
G37*
G36*
X57483Y46277D02*
X57492Y46183D01*
X57507Y46093D01*
X57528Y46008D01*
X57554Y45927D01*
X57587Y45850D01*
X57625Y45777D01*
X57669Y45709D01*
X57719Y45645D01*
X57776Y45585D01*
X56398D01*
X56454Y45645D01*
X56504Y45709D01*
X56548Y45777D01*
X56587Y45850D01*
X56619Y45927D01*
X56646Y46008D01*
X56666Y46093D01*
X56681Y46183D01*
X56690Y46277D01*
X56693Y46374D01*
X57480D01*
X57483Y46277D01*
D02*
G37*
G36*
X42839Y47260D02*
X42772Y47236D01*
X42713Y47196D01*
X42661Y47140D01*
X42618Y47068D01*
X42583Y46980D01*
X42555Y46876D01*
X42535Y46757D01*
X42524Y46621D01*
X42520Y46469D01*
X41732D01*
X41728Y46621D01*
X41717Y46757D01*
X41697Y46876D01*
X41669Y46980D01*
X41634Y47068D01*
X41591Y47140D01*
X41539Y47196D01*
X41480Y47236D01*
X41413Y47260D01*
X41339Y47268D01*
X42913D01*
X42839Y47260D01*
D02*
G37*
G36*
X42523Y46277D02*
X42531Y46183D01*
X42546Y46093D01*
X42567Y46008D01*
X42594Y45927D01*
X42626Y45850D01*
X42664Y45777D01*
X42709Y45709D01*
X42759Y45645D01*
X42815Y45585D01*
X41437D01*
X41493Y45645D01*
X41543Y45709D01*
X41588Y45777D01*
X41626Y45850D01*
X41658Y45927D01*
X41685Y46008D01*
X41706Y46093D01*
X41721Y46183D01*
X41729Y46277D01*
X41732Y46374D01*
X42520D01*
X42523Y46277D01*
D02*
G37*
G36*
X56197Y40870D02*
X56220Y40804D01*
X56260Y40745D01*
X56315Y40693D01*
X56386Y40650D01*
X56472Y40615D01*
X56575Y40587D01*
X56645Y40575D01*
X56662Y40578D01*
X56748Y40599D01*
X56829Y40625D01*
X56906Y40658D01*
X56978Y40696D01*
X57047Y40741D01*
X57111Y40791D01*
X57171Y40847D01*
X57171Y39469D01*
X57111Y39525D01*
X57047Y39575D01*
X56979Y39619D01*
X56906Y39658D01*
X56829Y39690D01*
X56748Y39717D01*
X56663Y39738D01*
X56645Y39740D01*
X56575Y39729D01*
X56472Y39701D01*
X56386Y39666D01*
X56315Y39622D01*
X56260Y39571D01*
X56220Y39512D01*
X56197Y39445D01*
X56189Y39370D01*
Y40945D01*
X56197Y40870D01*
D02*
G37*
G36*
X63077Y36024D02*
X63017Y36080D01*
X62952Y36130D01*
X62884Y36174D01*
X62811Y36213D01*
X62735Y36245D01*
X62653Y36272D01*
X62568Y36292D01*
X62479Y36307D01*
X62385Y36316D01*
X62287Y36319D01*
Y37106D01*
X62385Y37109D01*
X62479Y37118D01*
X62568Y37133D01*
X62653Y37154D01*
X62735Y37180D01*
X62811Y37213D01*
X62884Y37251D01*
X62952Y37295D01*
X63017Y37345D01*
X63077Y37402D01*
Y36024D01*
D02*
G37*
G36*
X56295Y37425D02*
X56319Y37358D01*
X56358Y37299D01*
X56413Y37248D01*
X56484Y37205D01*
X56571Y37169D01*
X56673Y37142D01*
X56791Y37122D01*
X56925Y37110D01*
X57075Y37106D01*
Y36319D01*
X56925Y36315D01*
X56791Y36303D01*
X56673Y36283D01*
X56571Y36256D01*
X56484Y36220D01*
X56413Y36177D01*
X56358Y36126D01*
X56319Y36067D01*
X56295Y36000D01*
X56287Y35925D01*
Y37500D01*
X56295Y37425D01*
D02*
G37*
G36*
X45386Y39567D02*
X45378Y39642D01*
X45355Y39709D01*
X45315Y39768D01*
X45260Y39819D01*
X45189Y39862D01*
X45103Y39898D01*
X45000Y39926D01*
X44882Y39945D01*
X44748Y39957D01*
X44599Y39961D01*
Y40748D01*
X44748Y40752D01*
X44882Y40764D01*
X45000Y40784D01*
X45103Y40811D01*
X45189Y40847D01*
X45260Y40890D01*
X45315Y40941D01*
X45355Y41000D01*
X45378Y41067D01*
X45386Y41142D01*
Y39567D01*
D02*
G37*
G36*
X38468Y41067D02*
X38492Y41000D01*
X38532Y40941D01*
X38588Y40890D01*
X38660Y40847D01*
X38748Y40811D01*
X38852Y40784D01*
X38972Y40764D01*
X39108Y40752D01*
X39260Y40748D01*
Y39961D01*
X39108Y39957D01*
X38972Y39945D01*
X38852Y39926D01*
X38748Y39898D01*
X38660Y39862D01*
X38588Y39819D01*
X38532Y39768D01*
X38492Y39709D01*
X38468Y39642D01*
X38460Y39567D01*
Y41142D01*
X38468Y41067D01*
D02*
G37*
G36*
X50910Y39469D02*
X50902Y39544D01*
X50878Y39610D01*
X50838Y39669D01*
X50782Y39721D01*
X50710Y39764D01*
X50622Y39799D01*
X50518Y39827D01*
X50398Y39847D01*
X50262Y39858D01*
X50110Y39862D01*
Y40650D01*
X50262Y40654D01*
X50398Y40666D01*
X50518Y40685D01*
X50622Y40713D01*
X50710Y40748D01*
X50782Y40791D01*
X50838Y40843D01*
X50878Y40902D01*
X50902Y40969D01*
X50910Y41043D01*
Y39469D01*
D02*
G37*
G36*
X48508Y40969D02*
X48532Y40902D01*
X48572Y40843D01*
X48627Y40791D01*
X48700Y40748D01*
X48787Y40713D01*
X48891Y40685D01*
X49011Y40666D01*
X49147Y40654D01*
X49299Y40650D01*
Y39862D01*
X49147Y39858D01*
X49011Y39847D01*
X48891Y39827D01*
X48787Y39799D01*
X48700Y39764D01*
X48627Y39721D01*
X48572Y39669D01*
X48532Y39610D01*
X48508Y39544D01*
X48500Y39469D01*
Y41043D01*
X48508Y40969D01*
D02*
G37*
G36*
X36460Y39284D02*
X36399Y39329D01*
X36327Y39351D01*
X36243D01*
X36148Y39329D01*
X36043Y39284D01*
X35926Y39217D01*
X35798Y39128D01*
X35658Y39017D01*
X35347Y38727D01*
X34790Y39284D01*
X34946Y39445D01*
X35191Y39735D01*
X35280Y39863D01*
X35347Y39980D01*
X35391Y40086D01*
X35414Y40180D01*
Y40264D01*
X35391Y40336D01*
X35347Y40398D01*
X36460Y39284D01*
D02*
G37*
G36*
X52110Y35752D02*
X52050Y35796D01*
X51978Y35817D01*
X51895Y35816D01*
X51801Y35792D01*
X51695Y35746D01*
X51578Y35678D01*
X51450Y35588D01*
X51310Y35476D01*
X50996Y35184D01*
X50440Y35740D01*
X50597Y35903D01*
X50844Y36194D01*
X50934Y36322D01*
X51002Y36439D01*
X51048Y36545D01*
X51072Y36639D01*
X51073Y36722D01*
X51052Y36794D01*
X51008Y36854D01*
X52110Y35752D01*
D02*
G37*
G36*
X44660Y39244D02*
X44531Y38717D01*
X44405Y38697D01*
X44374D01*
Y37115D01*
X46949D01*
Y36114D01*
X44374D01*
Y34532D01*
X44405D01*
X44874Y34457D01*
Y33831D01*
X44814Y33821D01*
X44717Y33812D01*
X44584Y33809D01*
X44532Y33786D01*
X39466D01*
X39198Y33985D01*
X39327Y34512D01*
X39453Y34532D01*
X39484D01*
Y36114D01*
X36909D01*
Y37115D01*
X39484D01*
Y38697D01*
X39453D01*
X38984Y38772D01*
Y39399D01*
X39039Y39408D01*
X39138Y39416D01*
X39274Y39420D01*
X39327Y39443D01*
X44393D01*
X44660Y39244D01*
D02*
G37*
G36*
X35347Y31988D02*
X35339Y32063D01*
X35315Y32130D01*
X35276Y32189D01*
X35221Y32240D01*
X35150Y32284D01*
X35063Y32319D01*
X34961Y32347D01*
X34843Y32366D01*
X34805Y32370D01*
X34802Y32369D01*
X34714Y32353D01*
X34630Y32331D01*
X34551Y32302D01*
X34478Y32267D01*
X34409Y32225D01*
X34345Y32177D01*
X34287Y32123D01*
X34233Y32062D01*
X34095Y33433D01*
X34160Y33383D01*
X34229Y33338D01*
X34301Y33299D01*
X34377Y33264D01*
X34456Y33235D01*
X34539Y33212D01*
X34626Y33193D01*
X34716Y33180D01*
X34751Y33177D01*
X34843Y33185D01*
X34961Y33205D01*
X35063Y33232D01*
X35150Y33268D01*
X35221Y33311D01*
X35276Y33362D01*
X35315Y33421D01*
X35339Y33488D01*
X35347Y33563D01*
Y31988D01*
D02*
G37*
G36*
X45386Y32087D02*
X45378Y32162D01*
X45355Y32229D01*
X45315Y32288D01*
X45260Y32339D01*
X45189Y32382D01*
X45103Y32418D01*
X45000Y32445D01*
X44882Y32465D01*
X44748Y32477D01*
X44599Y32481D01*
Y33268D01*
X44748Y33272D01*
X44882Y33284D01*
X45000Y33303D01*
X45103Y33331D01*
X45189Y33367D01*
X45260Y33410D01*
X45315Y33461D01*
X45355Y33520D01*
X45378Y33587D01*
X45386Y33662D01*
Y32087D01*
D02*
G37*
G36*
X38468Y33587D02*
X38492Y33520D01*
X38532Y33461D01*
X38588Y33410D01*
X38660Y33367D01*
X38748Y33331D01*
X38852Y33303D01*
X38972Y33284D01*
X39108Y33272D01*
X39260Y33268D01*
Y32481D01*
X39108Y32477D01*
X38972Y32465D01*
X38852Y32445D01*
X38748Y32418D01*
X38660Y32382D01*
X38588Y32339D01*
X38532Y32288D01*
X38492Y32229D01*
X38468Y32162D01*
X38460Y32087D01*
Y33662D01*
X38468Y33587D01*
D02*
G37*
G36*
X20298Y28098D02*
X20309Y27966D01*
X20328Y27840D01*
X20356Y27720D01*
X20392Y27606D01*
X20437Y27497D01*
X20490Y27395D01*
X20551Y27298D01*
X20620Y27207D01*
X20698Y27123D01*
X20141Y26566D01*
X20056Y26644D01*
X19965Y26713D01*
X19869Y26774D01*
X19766Y26827D01*
X19658Y26871D01*
X19544Y26908D01*
X19424Y26935D01*
X19298Y26955D01*
X19166Y26966D01*
X19029Y26969D01*
X20295Y28235D01*
X20298Y28098D01*
D02*
G37*
G36*
X26013Y26027D02*
X25935Y25942D01*
X25866Y25851D01*
X25804Y25755D01*
X25752Y25652D01*
X25707Y25544D01*
X25671Y25430D01*
X25644Y25310D01*
X25624Y25184D01*
X25613Y25052D01*
X25610Y24914D01*
X24343Y26181D01*
X24481Y26184D01*
X24613Y26195D01*
X24739Y26214D01*
X24859Y26242D01*
X24973Y26278D01*
X25081Y26323D01*
X25184Y26375D01*
X25280Y26436D01*
X25371Y26506D01*
X25456Y26584D01*
X26013Y26027D01*
D02*
G37*
G36*
X23212Y24280D02*
X23146Y24388D01*
X23074Y24484D01*
X22997Y24569D01*
X22913Y24643D01*
X22823Y24705D01*
X22727Y24756D01*
X22625Y24796D01*
X22518Y24824D01*
X22404Y24841D01*
X22285Y24847D01*
X22514Y25634D01*
X22622Y25638D01*
X22731Y25649D01*
X22843Y25668D01*
X22957Y25694D01*
X23073Y25727D01*
X23192Y25769D01*
X23435Y25873D01*
X23560Y25936D01*
X23687Y26007D01*
X23212Y24280D01*
D02*
G37*
G36*
X31272Y19122D02*
Y17099D01*
X31252Y17111D01*
X31193Y17123D01*
X31095Y17133D01*
X30563Y17155D01*
X29303Y17165D01*
Y19134D01*
X31272Y19122D01*
D02*
G37*
G36*
X36739Y12721D02*
X36663Y12775D01*
X36573Y12802D01*
X36470Y12801D01*
X36352Y12772D01*
X36220Y12715D01*
X36073Y12630D01*
X35913Y12518D01*
X35738Y12377D01*
X35347Y12013D01*
X34651Y12709D01*
X34847Y12912D01*
X35155Y13275D01*
X35268Y13436D01*
X35353Y13582D01*
X35410Y13714D01*
X35438Y13832D01*
X35440Y13936D01*
X35413Y14025D01*
X35359Y14101D01*
X36739Y12721D01*
D02*
G37*
G36*
X34279Y11457D02*
X34091Y11452D01*
X33922Y11437D01*
X33773Y11412D01*
X33644Y11378D01*
X33534Y11334D01*
X33444Y11280D01*
X33374Y11216D01*
X33324Y11142D01*
X33294Y11058D01*
X33283Y10965D01*
X33295Y12429D01*
X34279Y12441D01*
Y11457D01*
D02*
G37*
G36*
X39665Y9154D02*
X38669Y9142D01*
Y11110D01*
X38679Y11112D01*
X38709Y11114D01*
X39157Y11121D01*
X39665Y11122D01*
Y9154D01*
D02*
G37*
D10*
X69685Y13780D02*
X71653Y15748D01*
X69488Y13780D02*
X69685D01*
X97244Y6693D02*
Y10335D01*
X96457Y5906D02*
X97244Y6693D01*
X36417Y13780D02*
X37008D01*
X34587Y11949D02*
X36417Y13780D01*
X32815Y11949D02*
X34587D01*
X32283Y11417D02*
X32815Y11949D01*
X82382Y23622D02*
X82675Y23329D01*
X83404Y22629D02*
X83670D01*
X82704Y23329D02*
X83404Y22629D01*
X82675Y23329D02*
X82704D01*
X78051Y23622D02*
X82382D01*
X85433Y42815D02*
Y44783D01*
X71122Y24862D02*
X71653Y25394D01*
X69735Y24862D02*
X71122D01*
X68503Y23630D02*
X69735Y24862D01*
X66543Y23630D02*
X68503D01*
X66142Y23228D02*
X66543Y23630D01*
X103150Y5906D02*
Y10335D01*
X106299Y35433D02*
X110531D01*
X85433Y37402D02*
Y42815D01*
X83670Y22629D02*
X83858Y22441D01*
X32087Y11220D02*
X32283Y11417D01*
X108268Y4331D02*
X108268Y4331D01*
X78051Y37402D02*
X82284D01*
X83465Y38583D02*
Y42815D01*
X82284Y37402D02*
X83465Y38583D01*
Y42815D02*
Y46850D01*
X82677Y47638D02*
X83465Y46850D01*
X110531Y37402D02*
X113203D01*
X113779Y37978D02*
Y40551D01*
X113203Y37402D02*
X113779Y37978D01*
X105118Y7663D02*
Y10335D01*
X105695Y7087D02*
X108268D01*
X105118Y7663D02*
X105695Y7087D01*
D11*
X56693Y29921D02*
Y30512D01*
X76098Y19685D02*
X78051D01*
X78043Y21646D02*
X78051Y21654D01*
D12*
X70230Y10487D02*
X74114Y14372D01*
X66535Y8268D02*
X68755Y10487D01*
X70230D01*
X66535Y8071D02*
Y8268D01*
X74114Y14372D02*
Y18898D01*
X80807Y9744D02*
Y13091D01*
X79134Y8071D02*
X80807Y9744D01*
X76968Y8071D02*
X79134D01*
X55315Y40157D02*
X55315Y40158D01*
X57874D01*
X57874Y40158D01*
X55413Y36713D02*
X63779D01*
X57874Y40157D02*
Y40158D01*
Y40157D02*
X58268Y39764D01*
X36811Y32776D02*
X36909Y32874D01*
X33563Y32776D02*
X36811D01*
X33465Y32677D02*
X33563Y32776D01*
X30251Y30821D02*
Y34188D01*
X24331Y24902D02*
X30251Y30821D01*
Y34188D02*
X36417Y40355D01*
X36909D01*
X19016Y28248D02*
X22023Y25240D01*
X23992D01*
X24331Y24902D01*
X42126Y44882D02*
Y48803D01*
X105118Y42815D02*
X107114D01*
X107874Y43575D01*
X105118Y42815D02*
Y43099D01*
X105217Y43198D01*
X107874Y43575D02*
Y44882D01*
X122244Y42283D02*
X122362Y42402D01*
Y46600D01*
X124187Y48425D02*
X128150D01*
X122362Y46600D02*
X124187Y48425D01*
X128150Y45787D02*
Y48425D01*
Y45787D02*
X129173Y44764D01*
X118701Y10236D02*
X118799Y10335D01*
X140551Y16142D02*
X143307Y18898D01*
X137008Y10236D02*
X140945D01*
X125472Y7663D02*
X134435D01*
X137008Y10236D01*
X118898D02*
X122899D01*
X125472Y7663D01*
X123425Y16142D02*
Y21181D01*
X122323Y22284D02*
X123425Y21181D01*
X122244Y22284D02*
X122323D01*
X116649D02*
X122244D01*
X114050Y19685D02*
X116649Y22284D01*
X110531Y19685D02*
X114050D01*
X110531Y27559D02*
X114291D01*
X119016Y32283D01*
X122244D01*
X62545Y44935D02*
Y46994D01*
Y44935D02*
X62598Y44882D01*
X97244Y42815D02*
Y50787D01*
X91339Y42815D02*
Y49287D01*
X90158Y50468D02*
X91339Y49287D01*
X90158Y50468D02*
Y50787D01*
X95276Y42815D02*
Y49213D01*
X93701Y50787D02*
X95276Y49213D01*
X110531Y17717D02*
X115822D01*
X116610Y18504D01*
X116929D01*
X110531Y15748D02*
X110630Y15846D01*
X119587D01*
X119882Y16142D01*
X78051Y25591D02*
X82677D01*
X98032Y31496D02*
X110531D01*
X66142Y19585D02*
X68801Y22244D01*
X71653D01*
X82677Y25591D02*
X85039D01*
X86614Y21260D02*
Y24016D01*
X85039Y25591D02*
X86614Y24016D01*
X82177Y16823D02*
X86614Y21260D01*
X82177Y14461D02*
Y16823D01*
X83465Y10335D02*
Y14247D01*
X71653Y22244D02*
X72275Y22865D01*
X73653D01*
X74114Y23327D02*
Y26862D01*
X73653Y22865D02*
X74114Y23327D01*
X80807Y13091D02*
X82177Y14461D01*
X122244Y27283D02*
X122362Y27165D01*
X127953D01*
X96850Y36220D02*
X99606Y33465D01*
X110531D01*
X77953Y35335D02*
X78051Y35433D01*
X71752Y35335D02*
X77953D01*
X71653Y35236D02*
X71752Y35335D01*
X99213Y28740D02*
X99532D01*
X100320Y29528D02*
X110531D01*
X99532Y28740D02*
X100320Y29528D01*
X62492Y47047D02*
X62545Y46994D01*
X98819Y25591D02*
X110531D01*
X71653Y18898D02*
X74402Y21646D01*
X28687Y44882D02*
Y46600D01*
X110630Y10236D02*
X118701D01*
X106693Y14173D02*
X110630Y10236D01*
X93307Y10335D02*
Y13712D01*
X93768Y14173D02*
X106693D01*
X93307Y13712D02*
X93768Y14173D01*
X118799Y10335D02*
X118898Y10236D01*
X87402Y10335D02*
Y14961D01*
X90158Y17717D02*
X110531D01*
X87402Y14961D02*
X90158Y17717D01*
X77953Y19587D02*
X78051Y19685D01*
X74803Y19587D02*
X77953D01*
Y15650D02*
X78051Y15748D01*
X77953Y12992D02*
Y15650D01*
X129173Y44764D02*
X142846D01*
X143307Y44303D01*
Y18898D02*
Y44303D01*
X122244Y42283D02*
X125472D01*
X140551Y10630D02*
Y16142D01*
Y10630D02*
X140945Y10236D01*
X57087Y48728D02*
X57177Y48819D01*
X57087Y44882D02*
Y48728D01*
X42110Y48819D02*
X42126Y48803D01*
X32177Y50591D02*
X34433D01*
X36205Y48819D01*
X62492Y50591D02*
X64854D01*
X66626Y48819D01*
X47138Y50591D02*
X49500D01*
X51272Y48819D01*
X28634Y46654D02*
X28687Y46600D01*
X65354Y14764D02*
X66142Y15551D01*
Y19585D01*
X56693Y28346D02*
Y29921D01*
Y28346D02*
X59449Y25591D01*
X68504D02*
X71653Y28740D01*
X59449Y25591D02*
X68504D01*
X51772Y36516D02*
Y36713D01*
X48819Y33563D02*
X51772Y36516D01*
X47638Y33563D02*
X48819D01*
X46949Y32874D02*
X47638Y33563D01*
X46949Y40355D02*
X47047Y40256D01*
X51673D01*
X51772Y40157D01*
X36909Y40355D02*
X46949D01*
X36909Y32874D02*
X46949D01*
X74114Y18898D02*
X74803Y19587D01*
X63189Y8071D02*
X66535D01*
X74402Y21646D02*
X78043D01*
X74114Y26862D02*
X74803Y27551D01*
X71653Y28740D02*
X74114D01*
X74803Y29429D01*
X78043Y27551D02*
X78051Y27559D01*
X74803Y27551D02*
X78043D01*
X77953Y29429D02*
X78051Y29528D01*
X74803Y29429D02*
X77953D01*
D14*
X37008Y17520D02*
D03*
Y13780D02*
D03*
Y10039D02*
D03*
X47047D02*
D03*
Y17520D02*
D03*
D15*
X113779Y43701D02*
D03*
Y40551D02*
D03*
X71653Y18898D02*
D03*
Y15748D02*
D03*
Y22244D02*
D03*
Y25394D02*
D03*
Y28740D02*
D03*
Y31890D02*
D03*
X32283Y14567D02*
D03*
Y11417D02*
D03*
Y18110D02*
D03*
Y21260D02*
D03*
D16*
X65354Y30512D02*
D03*
Y14764D02*
D03*
X55905Y30512D02*
D03*
Y14764D02*
D03*
D17*
X73425Y8071D02*
D03*
X76968D02*
D03*
X131693Y48425D02*
D03*
X128150D02*
D03*
X123425Y16142D02*
D03*
X119882D02*
D03*
X63189Y8071D02*
D03*
X59645D02*
D03*
X70079D02*
D03*
X66535D02*
D03*
X55413Y36811D02*
D03*
X51870D02*
D03*
X55315Y40157D02*
D03*
X51772D02*
D03*
D18*
X46949Y32874D02*
D03*
Y36615D02*
D03*
Y40355D02*
D03*
X36909D02*
D03*
Y36615D02*
D03*
Y32874D02*
D03*
D19*
X71653Y35236D02*
D03*
Y38780D02*
D03*
X28634Y50591D02*
D03*
Y47047D02*
D03*
X62492Y50591D02*
D03*
Y47047D02*
D03*
X47138Y50591D02*
D03*
Y47047D02*
D03*
X32177Y50591D02*
D03*
Y47047D02*
D03*
D20*
X78051Y37402D02*
D03*
Y35433D02*
D03*
Y33465D02*
D03*
Y31496D02*
D03*
Y29528D02*
D03*
Y27559D02*
D03*
Y25591D02*
D03*
Y23622D02*
D03*
Y21654D02*
D03*
Y19685D02*
D03*
Y17717D02*
D03*
Y15748D02*
D03*
X110531D02*
D03*
Y17717D02*
D03*
Y19685D02*
D03*
Y21654D02*
D03*
Y23622D02*
D03*
Y25591D02*
D03*
Y27559D02*
D03*
Y29528D02*
D03*
Y31496D02*
D03*
Y33465D02*
D03*
Y35433D02*
D03*
Y37402D02*
D03*
D21*
X83465Y10335D02*
D03*
X85433D02*
D03*
X87402D02*
D03*
X89370D02*
D03*
X91339D02*
D03*
X93307D02*
D03*
X95276D02*
D03*
X97244D02*
D03*
X99213D02*
D03*
X101181D02*
D03*
X103150D02*
D03*
X105118D02*
D03*
Y42815D02*
D03*
X103150D02*
D03*
X101181D02*
D03*
X99213D02*
D03*
X97244D02*
D03*
X95276D02*
D03*
X93307D02*
D03*
X91339D02*
D03*
X89370D02*
D03*
X87402D02*
D03*
X85433D02*
D03*
X83465D02*
D03*
D22*
X137598Y22284D02*
D03*
X122244D02*
D03*
X137598Y27283D02*
D03*
Y32283D02*
D03*
Y37284D02*
D03*
Y42283D02*
D03*
X122244Y27283D02*
D03*
Y32283D02*
D03*
Y37284D02*
D03*
Y42283D02*
D03*
D23*
X140551Y16142D02*
D03*
X137402D02*
D03*
X82677Y47638D02*
D03*
X79528D02*
D03*
X108268Y7087D02*
D03*
X111417D02*
D03*
X47638Y26075D02*
D03*
X44488D02*
D03*
X47638Y22441D02*
D03*
X44488D02*
D03*
D24*
X118898Y10236D02*
D03*
Y3543D02*
D03*
X140945D02*
D03*
Y10236D02*
D03*
D25*
X72531Y48819D02*
D03*
X66626D02*
D03*
X42110D02*
D03*
X36205D02*
D03*
X57177D02*
D03*
X51272D02*
D03*
D45*
X142520D02*
D03*
X28740Y3937D02*
D03*
X9892Y49213D02*
D03*
D46*
X70079Y8071D02*
X73425D01*
X71752Y5512D02*
Y8071D01*
Y5512D02*
X71752Y5512D01*
X71516Y19035D02*
X71653Y18898D01*
X69600Y19035D02*
X71516D01*
X68951Y19685D02*
X69600Y19035D01*
X68898Y19685D02*
X68951D01*
X47206Y44919D02*
Y47047D01*
X32246Y44919D02*
Y47047D01*
X32177D02*
X32246D01*
Y44919D02*
X32283Y44882D01*
X47138Y47047D02*
X47206D01*
Y44919D02*
X47244Y44882D01*
X32185Y14665D02*
X32283Y14567D01*
X131693Y48425D02*
X134646D01*
D47*
X51272Y26075D02*
Y28740D01*
X37008Y10039D02*
X37106Y10138D01*
X39665D01*
X41339Y11811D01*
Y15354D01*
X37008Y17520D02*
X37106Y17421D01*
X39272D01*
X41339Y15354D01*
X32244Y18150D02*
X32283Y18110D01*
X24390Y18150D02*
X32244D01*
X24331Y18209D02*
X24390Y18150D01*
X47047Y17520D02*
X47539D01*
X47638Y17618D02*
Y22441D01*
X47539Y17520D02*
X47638Y17618D01*
Y22441D02*
Y26075D01*
X51272D01*
X19016Y18209D02*
X24331D01*
X14764Y19854D02*
Y33465D01*
X18903Y18322D02*
X19016Y18209D01*
X16296Y18322D02*
X18903D01*
X14764Y19854D02*
X16296Y18322D01*
X18903Y34828D02*
X19016Y34941D01*
X16127Y34828D02*
X18903D01*
X14764Y33465D02*
X16127Y34828D01*
X19016Y34941D02*
X24331D01*
X110630Y40551D02*
X110630Y40551D01*
X113779D01*
X85042Y47638D02*
X85058Y47622D01*
X82677Y47638D02*
X85042D01*
X131799Y37008D02*
X137323D01*
X137598Y37284D01*
X108268Y4331D02*
Y7087D01*
X137441Y42126D02*
X137598Y42283D01*
X131496Y42126D02*
X137441D01*
D48*
X32283Y15157D02*
D03*
D49*
X33465Y17913D02*
D03*
D50*
X20472Y9547D02*
D03*
Y43602D02*
D03*
D51*
X24331Y14862D02*
D03*
Y18209D02*
D03*
Y21555D02*
D03*
Y24902D02*
D03*
Y28248D02*
D03*
Y31594D02*
D03*
Y34941D02*
D03*
Y38287D02*
D03*
X19016Y14862D02*
D03*
Y18209D02*
D03*
Y21555D02*
D03*
Y24902D02*
D03*
Y28248D02*
D03*
Y31594D02*
D03*
Y34941D02*
D03*
Y38287D02*
D03*
D52*
X7165Y9547D02*
D03*
Y43602D02*
D03*
D53*
X69488Y13780D02*
D03*
X11811Y19685D02*
D03*
Y27559D02*
D03*
Y35433D02*
D03*
X19685Y49213D02*
D03*
X25591D02*
D03*
X98425Y19685D02*
D03*
X82677Y35433D02*
D03*
X62992Y19685D02*
D03*
X51181Y11811D02*
D03*
X3937Y19685D02*
D03*
Y27559D02*
D03*
Y35433D02*
D03*
X7874Y39370D02*
D03*
Y31496D02*
D03*
Y23622D02*
D03*
Y15748D02*
D03*
X35433Y27559D02*
D03*
X31496Y39370D02*
D03*
X66929Y43307D02*
D03*
X114173Y3937D02*
D03*
X102362D02*
D03*
X74803D02*
D03*
X66929D02*
D03*
X59055D02*
D03*
X43307D02*
D03*
X35433D02*
D03*
X15748D02*
D03*
X7874D02*
D03*
X71752Y5512D02*
D03*
X63779Y36713D02*
D03*
X57874Y40158D02*
D03*
X33465Y32677D02*
D03*
X84252Y14697D02*
D03*
X110630Y40551D02*
D03*
X42126Y44882D02*
D03*
X51272Y28740D02*
D03*
X62598Y44882D02*
D03*
X97244Y50787D02*
D03*
X85058Y47622D02*
D03*
X82677Y25591D02*
D03*
X83858Y22441D02*
D03*
X127953Y27165D02*
D03*
X96850Y36220D02*
D03*
X98032Y31496D02*
D03*
X99213Y28740D02*
D03*
X98819Y25591D02*
D03*
X131799Y37008D02*
D03*
X77953Y12992D02*
D03*
X108268Y4331D02*
D03*
X131496Y42126D02*
D03*
X107874Y44882D02*
D03*
X116929Y18504D02*
D03*
X93701Y50787D02*
D03*
X90158D02*
D03*
X57087Y44882D02*
D03*
X28740D02*
D03*
X32283D02*
D03*
X47244D02*
D03*
X68898Y19685D02*
D03*
X43701Y36614D02*
D03*
X40157D02*
D03*
X134646Y48425D02*
D03*
X51272Y26075D02*
D03*
M02*
