G04*
G04 #@! TF.GenerationSoftware,Altium Limited,Altium Designer,20.2.6 (244)*
G04*
G04 Layer_Physical_Order=2*
G04 Layer_Color=36540*
%FSLAX25Y25*%
%MOIN*%
G70*
G04*
G04 #@! TF.SameCoordinates,1F00D8FF-E811-4F8C-9FFC-250B1BB78CBF*
G04*
G04*
G04 #@! TF.FilePolarity,Positive*
G04*
G01*
G75*
%ADD46C,0.01772*%
%ADD47C,0.01968*%
%ADD50O,0.09449X0.03543*%
%ADD51C,0.02559*%
%ADD52O,0.06693X0.03543*%
%ADD53C,0.01968*%
G36*
X141036Y52032D02*
X140736Y51907D01*
X139998Y51341D01*
X139431Y50602D01*
X139075Y49742D01*
X138953Y48819D01*
X139075Y47896D01*
X139431Y47036D01*
X139998Y46297D01*
X140736Y45730D01*
X141597Y45374D01*
X142520Y45252D01*
X143443Y45374D01*
X144303Y45730D01*
X145042Y46297D01*
X145608Y47036D01*
X145965Y47896D01*
X146086Y48819D01*
X146005Y49437D01*
X146492Y49568D01*
X146813Y48796D01*
X147018Y47778D01*
X147019Y47260D01*
X147020Y5906D01*
X147018Y5372D01*
X146813Y4352D01*
X146413Y3392D01*
X145834Y2529D01*
X145098Y1795D01*
X144233Y1218D01*
X143272Y821D01*
X142252Y618D01*
X141770D01*
X141747Y620D01*
X141734Y618D01*
X141732D01*
X141730Y618D01*
X141709Y616D01*
X141672Y623D01*
X133301Y624D01*
Y1575D01*
X133292Y1624D01*
X133297Y1675D01*
X133251Y2135D01*
X133208Y2279D01*
X133178Y2426D01*
X132826Y3277D01*
X132605Y3607D01*
X132605Y3607D01*
X131954Y4259D01*
X131623Y4480D01*
X130772Y4832D01*
X130625Y4861D01*
X130482Y4905D01*
X130021Y4950D01*
X129921Y4940D01*
X129821Y4950D01*
X129361Y4905D01*
X129217Y4861D01*
X129070Y4832D01*
X128220Y4480D01*
X127889Y4259D01*
X127237Y3607D01*
X127016Y3277D01*
X126664Y2426D01*
X126635Y2279D01*
X126591Y2135D01*
X126546Y1675D01*
X126551Y1624D01*
X126541Y1575D01*
Y618D01*
X31044D01*
X30875Y1118D01*
X31262Y1415D01*
X31829Y2154D01*
X32185Y3014D01*
X32307Y3937D01*
X32185Y4860D01*
X31829Y5720D01*
X31262Y6459D01*
X30523Y7026D01*
X29663Y7382D01*
X28740Y7503D01*
X27817Y7382D01*
X26957Y7026D01*
X26218Y6459D01*
X25652Y5720D01*
X25295Y4860D01*
X25174Y3937D01*
X25295Y3014D01*
X25652Y2154D01*
X26218Y1415D01*
X26606Y1118D01*
X26436Y618D01*
X5284D01*
X5190Y654D01*
X4734Y731D01*
X3913Y990D01*
X3155Y1370D01*
X2467Y1867D01*
X1867Y2467D01*
X1370Y3155D01*
X990Y3913D01*
X735Y4722D01*
X674Y5142D01*
X618Y5299D01*
Y47403D01*
X620Y47426D01*
X618Y47440D01*
Y47441D01*
X618Y47442D01*
X622Y47456D01*
X644Y47958D01*
X867Y48919D01*
X1263Y49821D01*
X1819Y50634D01*
X2515Y51331D01*
X3329Y51887D01*
X4231Y52283D01*
X5191Y52506D01*
X5683Y52526D01*
X5703Y52532D01*
X5730D01*
X5740Y52531D01*
X5750Y52532D01*
X7588D01*
X7758Y52032D01*
X7370Y51734D01*
X6804Y50996D01*
X6447Y50136D01*
X6326Y49213D01*
X6447Y48290D01*
X6804Y47429D01*
X7211Y46898D01*
X6965Y46398D01*
X5591D01*
X4867Y46303D01*
X4193Y46023D01*
X3614Y45579D01*
X3170Y45000D01*
X2890Y44326D01*
X2861Y44102D01*
X11470D01*
X11440Y44326D01*
X11161Y45000D01*
X10930Y45301D01*
X10928Y45310D01*
X11106Y45888D01*
X11675Y46124D01*
X12414Y46691D01*
X12981Y47429D01*
X13337Y48290D01*
X13458Y49213D01*
X13337Y50136D01*
X12981Y50996D01*
X12414Y51734D01*
X12027Y52032D01*
X12196Y52532D01*
X89196D01*
X89348Y52032D01*
X89087Y51858D01*
X88759Y51367D01*
X88644Y50787D01*
X88759Y50208D01*
X89087Y49717D01*
X89186Y49651D01*
X89035Y49151D01*
X85433D01*
X85238Y49112D01*
X85042Y49151D01*
X85042Y49151D01*
X79134D01*
X79134Y49151D01*
X78555Y49036D01*
X78064Y48708D01*
X70977Y41621D01*
X70649Y41130D01*
X70534Y40551D01*
X70534Y40551D01*
Y27855D01*
X70267Y27588D01*
X52785D01*
Y28740D01*
Y40854D01*
X52785Y40854D01*
X52670Y41434D01*
X52342Y41924D01*
X52342Y41925D01*
X48314Y45952D01*
X47886Y46238D01*
X44700Y49424D01*
X44241Y49731D01*
X43701Y49838D01*
X35827D01*
X35286Y49731D01*
X34828Y49424D01*
X31641Y46238D01*
X31213Y45952D01*
X30885Y45461D01*
X30770Y44882D01*
X30885Y44303D01*
X31213Y43812D01*
X31704Y43484D01*
X32283Y43369D01*
X32863Y43484D01*
X33354Y43812D01*
X33639Y44240D01*
X36412Y47012D01*
X43115D01*
X45888Y44240D01*
X46174Y43812D01*
X49758Y40227D01*
Y28740D01*
Y26075D01*
X49874Y25496D01*
X50202Y25005D01*
X50692Y24677D01*
X51272Y24561D01*
X70894D01*
X70894Y24561D01*
X71473Y24677D01*
X71964Y25005D01*
X73117Y26158D01*
X73117Y26158D01*
X73445Y26649D01*
X73561Y27228D01*
Y39924D01*
X79761Y46125D01*
X84979D01*
X85058Y46109D01*
X85285Y46154D01*
X85433Y46125D01*
X106318D01*
X106585Y45625D01*
X106476Y45461D01*
X106361Y44882D01*
X106476Y44303D01*
X106804Y43812D01*
X107295Y43484D01*
X107874Y43369D01*
X108453Y43484D01*
X108944Y43812D01*
X109272Y44303D01*
X109387Y44882D01*
X109272Y45461D01*
X109163Y45625D01*
X109430Y46125D01*
X111112D01*
X111114Y46123D01*
X111123Y46125D01*
X111168D01*
X111192Y46113D01*
X111533Y46095D01*
X111796Y46049D01*
X112009Y45978D01*
X112178Y45887D01*
X112312Y45777D01*
X112422Y45643D01*
X112513Y45474D01*
X112584Y45260D01*
X112631Y44998D01*
X112648Y44657D01*
X112660Y44633D01*
Y43613D01*
X112658Y43610D01*
X112660Y43602D01*
Y43556D01*
X112648Y43532D01*
X112631Y43191D01*
X112584Y42929D01*
X112513Y42715D01*
X112422Y42546D01*
X112312Y42412D01*
X112178Y42302D01*
X112009Y42211D01*
X111796Y42140D01*
X111533Y42094D01*
X111192Y42076D01*
X111168Y42064D01*
X110630D01*
X110051Y41949D01*
X109560Y41621D01*
X109232Y41130D01*
X109117Y40551D01*
X109232Y39972D01*
X109560Y39481D01*
X110051Y39153D01*
X110630Y39038D01*
X111168D01*
X111192Y39026D01*
X111533Y39009D01*
X111796Y38962D01*
X112009Y38891D01*
X112178Y38800D01*
X112312Y38690D01*
X112422Y38556D01*
X112513Y38387D01*
X112584Y38174D01*
X112631Y37911D01*
X112648Y37570D01*
X112660Y37546D01*
Y37500D01*
X112658Y37492D01*
X112660Y37490D01*
Y10469D01*
X110791Y8600D01*
X107874D01*
X107874Y8600D01*
X107874Y8600D01*
X75824D01*
X75184Y9239D01*
X75184Y9239D01*
X73470Y10954D01*
Y16626D01*
X73355Y17205D01*
X73027Y17696D01*
X73027Y17696D01*
X69968Y20755D01*
X69477Y21083D01*
X68898Y21198D01*
X68318Y21083D01*
X67827Y20755D01*
X67500Y20264D01*
X67384Y19685D01*
X67500Y19106D01*
X67827Y18615D01*
X70443Y15999D01*
Y10327D01*
X70443Y10327D01*
X70559Y9748D01*
X70887Y9257D01*
X72166Y7977D01*
X70949Y6761D01*
X70682Y6582D01*
X70354Y6091D01*
X70239Y5512D01*
X70354Y4933D01*
X70682Y4442D01*
X71173Y4114D01*
X71752Y3999D01*
X72331Y4114D01*
X72822Y4442D01*
X73150Y4933D01*
X73158Y4973D01*
X74172Y5987D01*
X74618Y5689D01*
X75197Y5573D01*
X106754D01*
Y4331D01*
X106870Y3752D01*
X107198Y3261D01*
X107689Y2933D01*
X108268Y2817D01*
X108847Y2933D01*
X109338Y3261D01*
X109666Y3752D01*
X109781Y4331D01*
Y5573D01*
X111417D01*
X111417Y5573D01*
X111996Y5689D01*
X112487Y6016D01*
X115243Y8772D01*
X115571Y9263D01*
X115687Y9843D01*
Y16948D01*
X116187Y17215D01*
X116350Y17106D01*
X116929Y16991D01*
X117508Y17106D01*
X117999Y17434D01*
X118327Y17925D01*
X118442Y18504D01*
X118327Y19083D01*
X117999Y19574D01*
X117508Y19902D01*
X116929Y20017D01*
X116350Y19902D01*
X116187Y19793D01*
X115687Y20060D01*
Y40443D01*
X115688Y40445D01*
X115687Y40453D01*
Y40649D01*
X115688Y40657D01*
X115687Y40660D01*
Y44633D01*
X115698Y44657D01*
X115716Y44998D01*
X115762Y45260D01*
X115833Y45474D01*
X115924Y45643D01*
X116034Y45777D01*
X116169Y45887D01*
X116338Y45978D01*
X116551Y46049D01*
X116814Y46095D01*
X117154Y46113D01*
X117178Y46125D01*
X117224D01*
X117232Y46123D01*
X117235Y46125D01*
X133858D01*
X133858Y46125D01*
X134437Y46240D01*
X134928Y46568D01*
X135716Y47355D01*
X135716Y47355D01*
X136044Y47846D01*
X136159Y48425D01*
X136044Y49004D01*
X135716Y49495D01*
X135225Y49823D01*
X134646Y49938D01*
X134066Y49823D01*
X133576Y49495D01*
X133576Y49495D01*
X133231Y49151D01*
X114282D01*
X114279Y49153D01*
X114271Y49151D01*
X114075D01*
X114067Y49153D01*
X114065Y49151D01*
X98367D01*
X98215Y49651D01*
X98314Y49717D01*
X98642Y50208D01*
X98757Y50787D01*
X98642Y51367D01*
X98314Y51858D01*
X98054Y52032D01*
X98205Y52532D01*
X140937D01*
X141036Y52032D01*
D02*
G37*
G36*
X117126Y46654D02*
X116752Y46634D01*
X116417Y46575D01*
X116122Y46476D01*
X115866Y46339D01*
X115650Y46161D01*
X115472Y45945D01*
X115335Y45689D01*
X115236Y45394D01*
X115177Y45059D01*
X115157Y44685D01*
X113189D01*
X113169Y45059D01*
X113110Y45394D01*
X113012Y45689D01*
X112874Y45945D01*
X112697Y46161D01*
X112480Y46339D01*
X112224Y46476D01*
X111929Y46575D01*
X111594Y46634D01*
X111221Y46654D01*
X114173Y48622D01*
X117126Y46654D01*
D02*
G37*
G36*
X113189Y43504D02*
Y43504D01*
X115157Y40551D01*
X113189Y37598D01*
Y37598D01*
X113189Y37598D01*
X113169Y37972D01*
X113110Y38307D01*
X113012Y38602D01*
X112874Y38858D01*
X112697Y39075D01*
X112480Y39252D01*
X112224Y39390D01*
X112028Y39455D01*
X111929Y39488D01*
X111870Y39499D01*
X111594Y39547D01*
X111240Y39566D01*
X111221Y39567D01*
Y41535D01*
X111594Y41555D01*
X111929Y41614D01*
X112224Y41713D01*
X112480Y41850D01*
X112697Y42028D01*
X112874Y42244D01*
X113012Y42500D01*
X113110Y42795D01*
X113169Y43130D01*
X113189Y43504D01*
X113189Y43504D01*
D02*
G37*
%LPC*%
G36*
X23425Y46398D02*
X20972D01*
Y44102D01*
X26155D01*
X26125Y44326D01*
X25846Y45000D01*
X25402Y45579D01*
X24823Y46023D01*
X24149Y46303D01*
X23425Y46398D01*
D02*
G37*
G36*
X19972D02*
X17520D01*
X16796Y46303D01*
X16122Y46023D01*
X15543Y45579D01*
X15099Y45000D01*
X14819Y44326D01*
X14790Y44102D01*
X19972D01*
Y46398D01*
D02*
G37*
G36*
X62598Y46395D02*
X62019Y46280D01*
X61528Y45952D01*
X61200Y45461D01*
X61085Y44882D01*
X61200Y44303D01*
X61528Y43812D01*
X62019Y43484D01*
X62598Y43369D01*
X63178Y43484D01*
X63669Y43812D01*
X63997Y44303D01*
X64112Y44882D01*
X63997Y45461D01*
X63669Y45952D01*
X63178Y46280D01*
X62598Y46395D01*
D02*
G37*
G36*
X57087D02*
X56507Y46280D01*
X56016Y45952D01*
X55689Y45461D01*
X55573Y44882D01*
X55689Y44303D01*
X56016Y43812D01*
X56507Y43484D01*
X57087Y43369D01*
X57666Y43484D01*
X58157Y43812D01*
X58485Y44303D01*
X58600Y44882D01*
X58485Y45461D01*
X58157Y45952D01*
X57666Y46280D01*
X57087Y46395D01*
D02*
G37*
G36*
X42126D02*
X41547Y46280D01*
X41056Y45952D01*
X40728Y45461D01*
X40613Y44882D01*
X40728Y44303D01*
X41056Y43812D01*
X41547Y43484D01*
X42126Y43369D01*
X42705Y43484D01*
X43196Y43812D01*
X43524Y44303D01*
X43639Y44882D01*
X43524Y45461D01*
X43196Y45952D01*
X42705Y46280D01*
X42126Y46395D01*
D02*
G37*
G36*
X28740D02*
X28161Y46280D01*
X27670Y45952D01*
X27342Y45461D01*
X27227Y44882D01*
X27342Y44303D01*
X27670Y43812D01*
X28161Y43484D01*
X28740Y43369D01*
X29319Y43484D01*
X29810Y43812D01*
X30138Y44303D01*
X30253Y44882D01*
X30138Y45461D01*
X29810Y45952D01*
X29319Y46280D01*
X28740Y46395D01*
D02*
G37*
G36*
X11470Y43102D02*
X7665D01*
Y40807D01*
X8740D01*
X9464Y40902D01*
X10138Y41181D01*
X10717Y41626D01*
X11161Y42205D01*
X11440Y42879D01*
X11470Y43102D01*
D02*
G37*
G36*
X6665D02*
X2861D01*
X2890Y42879D01*
X3170Y42205D01*
X3614Y41626D01*
X4193Y41181D01*
X4867Y40902D01*
X5591Y40807D01*
X6665D01*
Y43102D01*
D02*
G37*
G36*
X131496Y43639D02*
X130917Y43524D01*
X130426Y43196D01*
X130098Y42705D01*
X129983Y42126D01*
X130098Y41547D01*
X130426Y41056D01*
X130917Y40728D01*
X131496Y40613D01*
X132075Y40728D01*
X132566Y41056D01*
X132894Y41547D01*
X133009Y42126D01*
X132894Y42705D01*
X132566Y43196D01*
X132075Y43524D01*
X131496Y43639D01*
D02*
G37*
G36*
X26155Y43102D02*
X14790D01*
X14819Y42879D01*
X15099Y42205D01*
X15543Y41626D01*
X16122Y41181D01*
X16796Y40902D01*
X17520Y40807D01*
X17783D01*
X17935Y40307D01*
X17372Y39931D01*
X16869Y39177D01*
X16791Y38787D01*
X21240D01*
X21163Y39177D01*
X20659Y39931D01*
X20097Y40307D01*
X20248Y40807D01*
X23098D01*
X23250Y40307D01*
X22687Y39931D01*
X22183Y39177D01*
X22106Y38787D01*
X26555D01*
X26478Y39177D01*
X25974Y39931D01*
X25220Y40435D01*
X24617Y40555D01*
X24566Y41075D01*
X24823Y41181D01*
X25402Y41626D01*
X25846Y42205D01*
X26125Y42879D01*
X26155Y43102D01*
D02*
G37*
G36*
X57874Y41672D02*
X57295Y41556D01*
X56804Y41228D01*
X56476Y40737D01*
X56361Y40158D01*
X56476Y39579D01*
X56804Y39088D01*
X57295Y38760D01*
X57874Y38645D01*
X58453Y38760D01*
X58944Y39088D01*
X59272Y39579D01*
X59387Y40158D01*
X59272Y40737D01*
X58944Y41228D01*
X58453Y41556D01*
X57874Y41672D01*
D02*
G37*
G36*
X131799Y38521D02*
X131220Y38406D01*
X130729Y38078D01*
X130401Y37587D01*
X130286Y37008D01*
X130401Y36429D01*
X130729Y35938D01*
X131220Y35610D01*
X131799Y35495D01*
X132378Y35610D01*
X132869Y35938D01*
X133197Y36429D01*
X133312Y37008D01*
X133197Y37587D01*
X132869Y38078D01*
X132378Y38406D01*
X131799Y38521D01*
D02*
G37*
G36*
X63779Y38226D02*
X63200Y38111D01*
X62709Y37783D01*
X62381Y37292D01*
X62266Y36713D01*
X62381Y36134D01*
X62709Y35642D01*
X63200Y35315D01*
X63779Y35199D01*
X64359Y35315D01*
X64850Y35642D01*
X65178Y36134D01*
X65293Y36713D01*
X65178Y37292D01*
X64850Y37783D01*
X64359Y38111D01*
X63779Y38226D01*
D02*
G37*
G36*
X96850Y37734D02*
X96271Y37619D01*
X95780Y37291D01*
X95452Y36800D01*
X95337Y36220D01*
X95452Y35641D01*
X95780Y35150D01*
X96271Y34822D01*
X96850Y34707D01*
X97430Y34822D01*
X97921Y35150D01*
X98248Y35641D01*
X98364Y36220D01*
X98248Y36800D01*
X97921Y37291D01*
X97430Y37619D01*
X96850Y37734D01*
D02*
G37*
G36*
X33465Y34190D02*
X32885Y34075D01*
X32394Y33747D01*
X32066Y33256D01*
X31951Y32677D01*
X32066Y32098D01*
X32394Y31607D01*
X32885Y31279D01*
X33465Y31164D01*
X34044Y31279D01*
X34535Y31607D01*
X34863Y32098D01*
X34978Y32677D01*
X34863Y33256D01*
X34535Y33747D01*
X34044Y34075D01*
X33465Y34190D01*
D02*
G37*
G36*
X127953Y28679D02*
X127374Y28563D01*
X126883Y28235D01*
X126555Y27744D01*
X126439Y27165D01*
X126555Y26586D01*
X126883Y26095D01*
X127374Y25767D01*
X127953Y25652D01*
X128532Y25767D01*
X129023Y26095D01*
X129351Y26586D01*
X129466Y27165D01*
X129351Y27744D01*
X129023Y28235D01*
X128532Y28563D01*
X127953Y28679D01*
D02*
G37*
G36*
X98032Y33009D02*
X97452Y32894D01*
X96961Y32566D01*
X96633Y32075D01*
X96518Y31496D01*
X96633Y30917D01*
X96961Y30426D01*
X97452Y30098D01*
X97700Y30049D01*
X97931Y29493D01*
X97815Y29319D01*
X97699Y28740D01*
X97815Y28161D01*
X98142Y27670D01*
X98363Y27523D01*
X98257Y26992D01*
X98240Y26989D01*
X97749Y26661D01*
X97421Y26170D01*
X97306Y25591D01*
X97421Y25011D01*
X97749Y24521D01*
X98240Y24192D01*
X98819Y24077D01*
X99398Y24192D01*
X99889Y24521D01*
X100217Y25011D01*
X100332Y25591D01*
X100217Y26170D01*
X99889Y26661D01*
X99669Y26808D01*
X99774Y27339D01*
X99792Y27342D01*
X100283Y27670D01*
X100611Y28161D01*
X100726Y28740D01*
X100611Y29319D01*
X100283Y29810D01*
X99792Y30138D01*
X99544Y30188D01*
X99314Y30743D01*
X99430Y30917D01*
X99545Y31496D01*
X99430Y32075D01*
X99102Y32566D01*
X98611Y32894D01*
X98032Y33009D01*
D02*
G37*
G36*
X82677Y27104D02*
X82098Y26989D01*
X81607Y26661D01*
X81279Y26170D01*
X81164Y25591D01*
X81279Y25011D01*
X81607Y24521D01*
X82098Y24192D01*
X82677Y24077D01*
X83256Y24192D01*
X83747Y24521D01*
X84075Y25011D01*
X84190Y25591D01*
X84075Y26170D01*
X83747Y26661D01*
X83256Y26989D01*
X82677Y27104D01*
D02*
G37*
G36*
X26555Y37787D02*
X22106D01*
X22183Y37398D01*
X22687Y36644D01*
X22766Y36591D01*
X22853Y35932D01*
X22654Y35635D01*
X22516Y34941D01*
X22654Y34247D01*
X23048Y33658D01*
X23258Y33518D01*
Y33018D01*
X23048Y32877D01*
X22654Y32289D01*
X22516Y31594D01*
X22654Y30900D01*
X23048Y30312D01*
X23258Y30171D01*
Y29671D01*
X23048Y29531D01*
X22654Y28942D01*
X22516Y28248D01*
X22654Y27554D01*
X23048Y26965D01*
X23258Y26825D01*
Y26325D01*
X23048Y26184D01*
X22654Y25596D01*
X22516Y24902D01*
X22654Y24207D01*
X23048Y23619D01*
X23258Y23478D01*
Y22978D01*
X23048Y22838D01*
X22654Y22249D01*
X22516Y21555D01*
X22654Y20861D01*
X23048Y20272D01*
X23258Y20132D01*
Y19632D01*
X23048Y19492D01*
X22654Y18903D01*
X22516Y18209D01*
X22654Y17514D01*
X22853Y17218D01*
X22766Y16558D01*
X22687Y16506D01*
X22183Y15752D01*
X22106Y15362D01*
X26555D01*
X26478Y15752D01*
X25974Y16506D01*
X25895Y16558D01*
X25809Y17218D01*
X26007Y17514D01*
X26145Y18209D01*
X26007Y18903D01*
X25614Y19492D01*
X25404Y19632D01*
Y20132D01*
X25614Y20272D01*
X26007Y20861D01*
X26145Y21555D01*
X26007Y22249D01*
X25614Y22838D01*
X25404Y22978D01*
Y23478D01*
X25614Y23619D01*
X26007Y24207D01*
X26145Y24902D01*
X26007Y25596D01*
X25614Y26184D01*
X25404Y26325D01*
Y26825D01*
X25614Y26965D01*
X26007Y27554D01*
X26145Y28248D01*
X26007Y28942D01*
X25614Y29531D01*
X25404Y29671D01*
Y30171D01*
X25614Y30312D01*
X26007Y30900D01*
X26145Y31594D01*
X26007Y32289D01*
X25614Y32877D01*
X25404Y33018D01*
Y33518D01*
X25614Y33658D01*
X26007Y34247D01*
X26145Y34941D01*
X26007Y35635D01*
X25809Y35932D01*
X25895Y36591D01*
X25974Y36644D01*
X26478Y37398D01*
X26555Y37787D01*
D02*
G37*
G36*
X21240D02*
X16791D01*
X16869Y37398D01*
X17372Y36644D01*
X17451Y36591D01*
X17538Y35932D01*
X17339Y35635D01*
X17201Y34941D01*
X17339Y34247D01*
X17733Y33658D01*
X17943Y33518D01*
Y33018D01*
X17733Y32877D01*
X17339Y32289D01*
X17201Y31594D01*
X17339Y30900D01*
X17733Y30312D01*
X17943Y30171D01*
Y29671D01*
X17733Y29531D01*
X17339Y28942D01*
X17201Y28248D01*
X17339Y27554D01*
X17733Y26965D01*
X17943Y26825D01*
Y26325D01*
X17733Y26184D01*
X17339Y25596D01*
X17201Y24902D01*
X17339Y24207D01*
X17733Y23619D01*
X17943Y23478D01*
Y22978D01*
X17733Y22838D01*
X17339Y22249D01*
X17201Y21555D01*
X17339Y20861D01*
X17733Y20272D01*
X17943Y20132D01*
Y19632D01*
X17733Y19492D01*
X17339Y18903D01*
X17201Y18209D01*
X17339Y17514D01*
X17538Y17218D01*
X17451Y16558D01*
X17372Y16506D01*
X16869Y15752D01*
X16791Y15362D01*
X21240D01*
X21163Y15752D01*
X20659Y16506D01*
X20580Y16558D01*
X20494Y17218D01*
X20692Y17514D01*
X20830Y18209D01*
X20692Y18903D01*
X20299Y19492D01*
X20089Y19632D01*
Y20132D01*
X20299Y20272D01*
X20692Y20861D01*
X20830Y21555D01*
X20692Y22249D01*
X20299Y22838D01*
X20089Y22978D01*
Y23478D01*
X20299Y23619D01*
X20692Y24207D01*
X20830Y24902D01*
X20692Y25596D01*
X20299Y26184D01*
X20089Y26325D01*
Y26825D01*
X20299Y26965D01*
X20692Y27554D01*
X20830Y28248D01*
X20692Y28942D01*
X20299Y29531D01*
X20089Y29671D01*
Y30171D01*
X20299Y30312D01*
X20692Y30900D01*
X20830Y31594D01*
X20692Y32289D01*
X20299Y32877D01*
X20089Y33018D01*
Y33518D01*
X20299Y33658D01*
X20692Y34247D01*
X20830Y34941D01*
X20692Y35635D01*
X20494Y35932D01*
X20580Y36591D01*
X20659Y36644D01*
X21163Y37398D01*
X21240Y37787D01*
D02*
G37*
G36*
X84252Y16210D02*
X83673Y16095D01*
X83182Y15767D01*
X82854Y15276D01*
X82739Y14697D01*
X82854Y14118D01*
X83182Y13627D01*
X83673Y13299D01*
X84252Y13183D01*
X84831Y13299D01*
X85322Y13627D01*
X85650Y14118D01*
X85765Y14697D01*
X85650Y15276D01*
X85322Y15767D01*
X84831Y16095D01*
X84252Y16210D01*
D02*
G37*
G36*
X26555Y14362D02*
X22106D01*
X22183Y13973D01*
X22687Y13219D01*
X23250Y12843D01*
X23098Y12343D01*
X20248D01*
X20097Y12843D01*
X20659Y13219D01*
X21163Y13973D01*
X21240Y14362D01*
X16791D01*
X16869Y13973D01*
X17372Y13219D01*
X17935Y12843D01*
X17783Y12343D01*
X17520D01*
X16796Y12247D01*
X16122Y11968D01*
X15543Y11524D01*
X15099Y10945D01*
X14819Y10271D01*
X14790Y10047D01*
X26155D01*
X26125Y10271D01*
X25846Y10945D01*
X25402Y11524D01*
X24823Y11968D01*
X24566Y12075D01*
X24617Y12595D01*
X25220Y12715D01*
X25974Y13219D01*
X26478Y13973D01*
X26555Y14362D01*
D02*
G37*
G36*
X77953Y14505D02*
X77374Y14390D01*
X76883Y14062D01*
X76555Y13571D01*
X76439Y12992D01*
X76555Y12413D01*
X76883Y11922D01*
X77374Y11594D01*
X77953Y11479D01*
X78532Y11594D01*
X79023Y11922D01*
X79351Y12413D01*
X79466Y12992D01*
X79351Y13571D01*
X79023Y14062D01*
X78532Y14390D01*
X77953Y14505D01*
D02*
G37*
G36*
X129921Y14318D02*
X129150Y14165D01*
X128496Y13728D01*
X128060Y13074D01*
X127906Y12303D01*
X128060Y11532D01*
X128496Y10878D01*
X129150Y10441D01*
X129921Y10288D01*
X130692Y10441D01*
X131346Y10878D01*
X131783Y11532D01*
X131936Y12303D01*
X131783Y13074D01*
X131346Y13728D01*
X130692Y14165D01*
X129921Y14318D01*
D02*
G37*
G36*
X8740Y12343D02*
X7665D01*
Y10047D01*
X11470D01*
X11440Y10271D01*
X11161Y10945D01*
X10717Y11524D01*
X10138Y11968D01*
X9464Y12247D01*
X8740Y12343D01*
D02*
G37*
G36*
X6665D02*
X5591D01*
X4867Y12247D01*
X4193Y11968D01*
X3614Y11524D01*
X3170Y10945D01*
X2890Y10271D01*
X2861Y10047D01*
X6665D01*
Y12343D01*
D02*
G37*
G36*
X26155Y9047D02*
X20972D01*
Y6752D01*
X23425D01*
X24149Y6847D01*
X24823Y7126D01*
X25402Y7570D01*
X25846Y8150D01*
X26125Y8824D01*
X26155Y9047D01*
D02*
G37*
G36*
X19972D02*
X14790D01*
X14819Y8824D01*
X15099Y8150D01*
X15543Y7570D01*
X16122Y7126D01*
X16796Y6847D01*
X17520Y6752D01*
X19972D01*
Y9047D01*
D02*
G37*
G36*
X11470D02*
X7665D01*
Y6752D01*
X8740D01*
X9464Y6847D01*
X10138Y7126D01*
X10717Y7570D01*
X11161Y8150D01*
X11440Y8824D01*
X11470Y9047D01*
D02*
G37*
G36*
X6665D02*
X2861D01*
X2890Y8824D01*
X3170Y8150D01*
X3614Y7570D01*
X4193Y7126D01*
X4867Y6847D01*
X5591Y6752D01*
X6665D01*
Y9047D01*
D02*
G37*
%LPD*%
D46*
X71752Y5512D02*
Y5565D01*
X74114Y7927D01*
Y8169D01*
X43701Y48425D02*
X47244Y44882D01*
X35827Y48425D02*
X43701D01*
X32283Y44882D02*
X35827Y48425D01*
D47*
X68898Y19685D02*
X71957Y16626D01*
Y10327D02*
Y16626D01*
Y10327D02*
X74114Y8169D01*
X75197Y7087D01*
X107874D01*
X111417D01*
X108268Y4331D02*
Y6693D01*
X107874Y7087D02*
X108268Y6693D01*
X51272Y26075D02*
Y28740D01*
Y40854D01*
X79134Y47638D02*
X85042D01*
X85058Y47622D01*
X47244Y44882D02*
X51272Y40854D01*
X85433Y47638D02*
X114173D01*
Y40551D02*
Y47638D01*
Y9843D02*
Y40551D01*
X110630Y40551D02*
X114173D01*
X114173Y40551D01*
Y47638D02*
X133858D01*
X134646Y48425D01*
X72047Y40551D02*
X79134Y47638D01*
X72047Y27228D02*
Y40551D01*
X111417Y7087D02*
X114173Y9843D01*
X70894Y26075D02*
X72047Y27228D01*
X51272Y26075D02*
X70894D01*
D50*
X20472Y9547D02*
D03*
Y43602D02*
D03*
D51*
X24331Y14862D02*
D03*
Y38287D02*
D03*
X19016Y14862D02*
D03*
Y38287D02*
D03*
D52*
X7165Y9547D02*
D03*
Y43602D02*
D03*
D53*
X69488Y13780D02*
D03*
X11811Y19685D02*
D03*
Y27559D02*
D03*
Y35433D02*
D03*
X19685Y49213D02*
D03*
X25591D02*
D03*
X98425Y19685D02*
D03*
X82677Y35433D02*
D03*
X62992Y19685D02*
D03*
X51181Y11811D02*
D03*
X3937Y19685D02*
D03*
Y27559D02*
D03*
Y35433D02*
D03*
X7874Y39370D02*
D03*
Y31496D02*
D03*
Y23622D02*
D03*
Y15748D02*
D03*
X35433Y27559D02*
D03*
X31496Y39370D02*
D03*
X66929Y43307D02*
D03*
X114173Y3937D02*
D03*
X102362D02*
D03*
X74803D02*
D03*
X66929D02*
D03*
X59055D02*
D03*
X43307D02*
D03*
X35433D02*
D03*
X15748D02*
D03*
X7874D02*
D03*
X71752Y5512D02*
D03*
X110630Y40551D02*
D03*
X51272Y28740D02*
D03*
X85058Y47622D02*
D03*
X83858Y22441D02*
D03*
X108268Y4331D02*
D03*
X32283Y44882D02*
D03*
X47244D02*
D03*
X68898Y19685D02*
D03*
X43701Y36614D02*
D03*
X40157D02*
D03*
X134646Y48425D02*
D03*
X51272Y26075D02*
D03*
M02*
