G04*
G04 #@! TF.GenerationSoftware,Altium Limited,Altium Designer,20.2.6 (244)*
G04*
G04 Layer_Physical_Order=4*
G04 Layer_Color=16711680*
%FSLAX25Y25*%
%MOIN*%
G70*
G04*
G04 #@! TF.SameCoordinates,1F00D8FF-E811-4F8C-9FFC-250B1BB78CBF*
G04*
G04*
G04 #@! TF.FilePolarity,Positive*
G04*
G01*
G75*
%ADD10C,0.00984*%
%ADD12C,0.00787*%
%ADD22R,0.09449X0.02992*%
%ADD45C,0.03000*%
%ADD47C,0.01968*%
%ADD50O,0.09449X0.03543*%
%ADD51C,0.02559*%
%ADD52O,0.06693X0.03543*%
%ADD53C,0.01968*%
%ADD54C,0.06299*%
G36*
X89455Y50098D02*
X89395Y50155D01*
X89330Y50205D01*
X89262Y50249D01*
X89189Y50287D01*
X89113Y50320D01*
X89031Y50346D01*
X88946Y50367D01*
X88857Y50382D01*
X88763Y50391D01*
X88665Y50394D01*
Y51181D01*
X88763Y51184D01*
X88857Y51193D01*
X88946Y51208D01*
X89031Y51228D01*
X89113Y51255D01*
X89189Y51287D01*
X89262Y51326D01*
X89330Y51370D01*
X89395Y51420D01*
X89455Y51476D01*
Y50098D01*
D02*
G37*
G36*
X97234Y49803D02*
X97152Y49801D01*
X97071Y49790D01*
X96992Y49773D01*
X96913Y49749D01*
X96836Y49718D01*
X96760Y49679D01*
X96685Y49634D01*
X96611Y49581D01*
X96538Y49521D01*
X96467Y49454D01*
X95910Y50010D01*
X95977Y50082D01*
X96038Y50154D01*
X96090Y50228D01*
X96136Y50303D01*
X96175Y50379D01*
X96206Y50456D01*
X96230Y50535D01*
X96247Y50615D01*
X96257Y50696D01*
X96260Y50778D01*
X97234Y49803D01*
D02*
G37*
G36*
X93691D02*
X93609Y49801D01*
X93528Y49790D01*
X93448Y49773D01*
X93370Y49749D01*
X93292Y49718D01*
X93216Y49679D01*
X93141Y49634D01*
X93068Y49581D01*
X92995Y49521D01*
X92924Y49454D01*
X92367Y50010D01*
X92434Y50082D01*
X92494Y50154D01*
X92547Y50228D01*
X92593Y50303D01*
X92631Y50379D01*
X92663Y50456D01*
X92687Y50535D01*
X92704Y50615D01*
X92714Y50696D01*
X92717Y50778D01*
X93691Y49803D01*
D02*
G37*
G36*
X29137Y46277D02*
X29146Y46183D01*
X29160Y46093D01*
X29181Y46008D01*
X29208Y45927D01*
X29240Y45850D01*
X29278Y45777D01*
X29323Y45709D01*
X29373Y45645D01*
X29429Y45585D01*
X28051D01*
X28107Y45645D01*
X28157Y45709D01*
X28202Y45777D01*
X28240Y45850D01*
X28273Y45927D01*
X28299Y46008D01*
X28320Y46093D01*
X28335Y46183D01*
X28343Y46277D01*
X28346Y46374D01*
X29134D01*
X29137Y46277D01*
D02*
G37*
G36*
X58420Y45659D02*
X58353Y45588D01*
X58293Y45515D01*
X58240Y45441D01*
X58195Y45366D01*
X58156Y45290D01*
X58125Y45213D01*
X58100Y45134D01*
X58083Y45055D01*
X58074Y44974D01*
X58071Y44892D01*
X57096Y45866D01*
X57179Y45869D01*
X57260Y45879D01*
X57339Y45896D01*
X57418Y45920D01*
X57495Y45951D01*
X57571Y45990D01*
X57646Y46036D01*
X57720Y46088D01*
X57792Y46149D01*
X57864Y46216D01*
X58420Y45659D01*
D02*
G37*
G36*
X43460D02*
X43393Y45588D01*
X43333Y45515D01*
X43280Y45441D01*
X43234Y45366D01*
X43196Y45290D01*
X43164Y45213D01*
X43140Y45134D01*
X43123Y45055D01*
X43113Y44974D01*
X43110Y44892D01*
X42136Y45866D01*
X42218Y45869D01*
X42299Y45879D01*
X42379Y45896D01*
X42457Y45920D01*
X42534Y45951D01*
X42610Y45990D01*
X42685Y46036D01*
X42759Y46088D01*
X42832Y46149D01*
X42903Y46216D01*
X43460Y45659D01*
D02*
G37*
G36*
X141036Y52032D02*
X140736Y51907D01*
X139998Y51341D01*
X139431Y50602D01*
X139075Y49742D01*
X138953Y48819D01*
X139075Y47896D01*
X139431Y47036D01*
X139998Y46297D01*
X140736Y45730D01*
X141597Y45374D01*
X142520Y45252D01*
X143443Y45374D01*
X144303Y45730D01*
X145042Y46297D01*
X145608Y47036D01*
X145965Y47896D01*
X146086Y48819D01*
X146005Y49437D01*
X146492Y49568D01*
X146813Y48796D01*
X147018Y47778D01*
X147019Y47260D01*
X147020Y5906D01*
X147018Y5372D01*
X146813Y4352D01*
X146413Y3392D01*
X145834Y2529D01*
X145098Y1795D01*
X144233Y1218D01*
X143272Y821D01*
X142252Y618D01*
X141770D01*
X141747Y620D01*
X141734Y618D01*
X141732D01*
X141730Y618D01*
X141709Y616D01*
X141672Y623D01*
X133301Y624D01*
Y1575D01*
X133292Y1624D01*
X133297Y1675D01*
X133251Y2135D01*
X133208Y2279D01*
X133178Y2426D01*
X132826Y3277D01*
X132605Y3607D01*
X132605Y3607D01*
X131954Y4259D01*
X131623Y4480D01*
X130772Y4832D01*
X130625Y4861D01*
X130482Y4905D01*
X130021Y4950D01*
X129921Y4940D01*
X129821Y4950D01*
X129361Y4905D01*
X129217Y4861D01*
X129070Y4832D01*
X128220Y4480D01*
X127889Y4259D01*
X127237Y3607D01*
X127016Y3277D01*
X126664Y2426D01*
X126635Y2279D01*
X126591Y2135D01*
X126546Y1675D01*
X126551Y1624D01*
X126541Y1575D01*
Y618D01*
X31044D01*
X30875Y1118D01*
X31262Y1415D01*
X31829Y2154D01*
X32185Y3014D01*
X32307Y3937D01*
X32185Y4860D01*
X31829Y5720D01*
X31262Y6459D01*
X30523Y7026D01*
X29663Y7382D01*
X28740Y7503D01*
X27817Y7382D01*
X26957Y7026D01*
X26218Y6459D01*
X25652Y5720D01*
X25295Y4860D01*
X25174Y3937D01*
X25295Y3014D01*
X25652Y2154D01*
X26218Y1415D01*
X26606Y1118D01*
X26436Y618D01*
X5284D01*
X5190Y654D01*
X4734Y731D01*
X3913Y990D01*
X3155Y1370D01*
X2467Y1867D01*
X1867Y2467D01*
X1370Y3155D01*
X990Y3913D01*
X735Y4722D01*
X674Y5142D01*
X618Y5299D01*
Y47403D01*
X620Y47426D01*
X618Y47440D01*
Y47441D01*
X618Y47442D01*
X622Y47456D01*
X644Y47958D01*
X867Y48919D01*
X1263Y49821D01*
X1819Y50634D01*
X2515Y51331D01*
X3329Y51887D01*
X4231Y52283D01*
X5191Y52506D01*
X5683Y52526D01*
X5703Y52532D01*
X5730D01*
X5740Y52531D01*
X5750Y52532D01*
X7588D01*
X7758Y52032D01*
X7370Y51734D01*
X6804Y50996D01*
X6447Y50136D01*
X6326Y49213D01*
X6447Y48290D01*
X6804Y47429D01*
X7211Y46898D01*
X6965Y46398D01*
X5591D01*
X4867Y46303D01*
X4193Y46023D01*
X3614Y45579D01*
X3170Y45000D01*
X2890Y44326D01*
X2861Y44102D01*
X11470D01*
X11440Y44326D01*
X11161Y45000D01*
X10930Y45301D01*
X10928Y45310D01*
X11106Y45888D01*
X11675Y46124D01*
X12414Y46691D01*
X12981Y47429D01*
X13337Y48290D01*
X13458Y49213D01*
X13337Y50136D01*
X12981Y50996D01*
X12414Y51734D01*
X12027Y52032D01*
X12196Y52532D01*
X89196D01*
X89348Y52032D01*
X89139Y51892D01*
X89085Y51872D01*
X89043Y51832D01*
X89016Y51811D01*
X88988Y51793D01*
X88957Y51777D01*
X88922Y51762D01*
X88883Y51749D01*
X88838Y51738D01*
X88787Y51730D01*
X88729Y51724D01*
X88649Y51722D01*
X88596Y51699D01*
X30995D01*
X30647Y51629D01*
X30351Y51432D01*
X28096Y49176D01*
X27898Y48881D01*
X27829Y48532D01*
Y46443D01*
X27806Y46391D01*
X27803Y46310D01*
X27798Y46252D01*
X27789Y46201D01*
X27778Y46156D01*
X27765Y46117D01*
X27751Y46082D01*
X27734Y46051D01*
X27716Y46023D01*
X27696Y45997D01*
X27656Y45954D01*
X27636Y45900D01*
X27342Y45461D01*
X27227Y44882D01*
X27342Y44303D01*
X27670Y43812D01*
X28161Y43484D01*
X28740Y43369D01*
X29319Y43484D01*
X29810Y43812D01*
X30138Y44303D01*
X30253Y44882D01*
X30138Y45461D01*
X29845Y45900D01*
X29824Y45954D01*
X29785Y45997D01*
X29764Y46023D01*
X29746Y46051D01*
X29730Y46082D01*
X29715Y46117D01*
X29702Y46156D01*
X29691Y46201D01*
X29683Y46252D01*
X29677Y46310D01*
X29675Y46391D01*
X29651Y46443D01*
Y48155D01*
X31373Y49876D01*
X45178D01*
X45370Y49414D01*
X42586Y46630D01*
X42532Y46610D01*
X42473Y46554D01*
X42429Y46518D01*
X42386Y46487D01*
X42347Y46463D01*
X42310Y46444D01*
X42275Y46430D01*
X42242Y46420D01*
X42209Y46413D01*
X42176Y46409D01*
X42118Y46407D01*
X42065Y46383D01*
X41547Y46280D01*
X41056Y45952D01*
X40728Y45461D01*
X40613Y44882D01*
X40728Y44303D01*
X41056Y43812D01*
X41547Y43484D01*
X42126Y43369D01*
X42705Y43484D01*
X43196Y43812D01*
X43524Y44303D01*
X43627Y44821D01*
X43651Y44874D01*
X43653Y44932D01*
X43657Y44965D01*
X43664Y44998D01*
X43674Y45031D01*
X43688Y45066D01*
X43707Y45103D01*
X43731Y45142D01*
X43762Y45184D01*
X43799Y45229D01*
X43854Y45288D01*
X43874Y45341D01*
X47122Y48589D01*
X58852D01*
X59043Y48127D01*
X57546Y46630D01*
X57493Y46610D01*
X57434Y46554D01*
X57389Y46518D01*
X57347Y46487D01*
X57307Y46463D01*
X57271Y46444D01*
X57236Y46430D01*
X57202Y46420D01*
X57170Y46413D01*
X57137Y46409D01*
X57078Y46407D01*
X57026Y46383D01*
X56507Y46280D01*
X56016Y45952D01*
X55689Y45461D01*
X55573Y44882D01*
X55689Y44303D01*
X56016Y43812D01*
X56507Y43484D01*
X57087Y43369D01*
X57666Y43484D01*
X58157Y43812D01*
X58485Y44303D01*
X58588Y44821D01*
X58612Y44874D01*
X58614Y44932D01*
X58618Y44965D01*
X58625Y44998D01*
X58635Y45031D01*
X58649Y45066D01*
X58668Y45103D01*
X58692Y45142D01*
X58722Y45184D01*
X58759Y45229D01*
X58815Y45288D01*
X58835Y45341D01*
X60795Y47301D01*
X81184D01*
X83460Y45025D01*
X83756Y44827D01*
X84104Y44758D01*
X92126D01*
X92475Y44827D01*
X92770Y45025D01*
X96785Y49039D01*
X96838Y49060D01*
X96897Y49115D01*
X96941Y49152D01*
X96984Y49182D01*
X97023Y49206D01*
X97060Y49225D01*
X97095Y49239D01*
X97128Y49249D01*
X97161Y49256D01*
X97194Y49260D01*
X97252Y49262D01*
X97305Y49286D01*
X97823Y49389D01*
X98314Y49717D01*
X98642Y50208D01*
X98757Y50787D01*
X98642Y51367D01*
X98314Y51858D01*
X98054Y52032D01*
X98205Y52532D01*
X140937D01*
X141036Y52032D01*
D02*
G37*
%LPC*%
G36*
X134646Y49938D02*
X134066Y49823D01*
X133576Y49495D01*
X133247Y49004D01*
X133132Y48425D01*
X133247Y47846D01*
X133576Y47355D01*
X134066Y47027D01*
X134646Y46912D01*
X135225Y47027D01*
X135716Y47355D01*
X136044Y47846D01*
X136159Y48425D01*
X136044Y49004D01*
X135716Y49495D01*
X135225Y49823D01*
X134646Y49938D01*
D02*
G37*
G36*
X23425Y46398D02*
X20972D01*
Y44102D01*
X26155D01*
X26125Y44326D01*
X25846Y45000D01*
X25402Y45579D01*
X24823Y46023D01*
X24149Y46303D01*
X23425Y46398D01*
D02*
G37*
G36*
X19972D02*
X17520D01*
X16796Y46303D01*
X16122Y46023D01*
X15543Y45579D01*
X15099Y45000D01*
X14819Y44326D01*
X14790Y44102D01*
X19972D01*
Y46398D01*
D02*
G37*
G36*
X47244Y46395D02*
X46665Y46280D01*
X46174Y45952D01*
X45846Y45461D01*
X45731Y44882D01*
X45846Y44303D01*
X46174Y43812D01*
X46665Y43484D01*
X47244Y43369D01*
X47823Y43484D01*
X48314Y43812D01*
X48642Y44303D01*
X48757Y44882D01*
X48642Y45461D01*
X48314Y45952D01*
X47823Y46280D01*
X47244Y46395D01*
D02*
G37*
G36*
X32283D02*
X31704Y46280D01*
X31213Y45952D01*
X30885Y45461D01*
X30770Y44882D01*
X30885Y44303D01*
X31213Y43812D01*
X31704Y43484D01*
X32283Y43369D01*
X32863Y43484D01*
X33354Y43812D01*
X33682Y44303D01*
X33797Y44882D01*
X33682Y45461D01*
X33354Y45952D01*
X32863Y46280D01*
X32283Y46395D01*
D02*
G37*
G36*
X11470Y43102D02*
X7665D01*
Y40807D01*
X8740D01*
X9464Y40902D01*
X10138Y41181D01*
X10717Y41626D01*
X11161Y42205D01*
X11440Y42879D01*
X11470Y43102D01*
D02*
G37*
G36*
X6665D02*
X2861D01*
X2890Y42879D01*
X3170Y42205D01*
X3614Y41626D01*
X4193Y41181D01*
X4867Y40902D01*
X5591Y40807D01*
X6665D01*
Y43102D01*
D02*
G37*
G36*
X26155D02*
X14790D01*
X14819Y42879D01*
X15099Y42205D01*
X15543Y41626D01*
X16122Y41181D01*
X16796Y40902D01*
X17520Y40807D01*
X17783D01*
X17935Y40307D01*
X17372Y39931D01*
X16869Y39177D01*
X16791Y38787D01*
X21240D01*
X21163Y39177D01*
X20659Y39931D01*
X20097Y40307D01*
X20248Y40807D01*
X23098D01*
X23250Y40307D01*
X22687Y39931D01*
X22183Y39177D01*
X22106Y38787D01*
X26555D01*
X26478Y39177D01*
X25974Y39931D01*
X25220Y40435D01*
X24617Y40555D01*
X24566Y41075D01*
X24823Y41181D01*
X25402Y41626D01*
X25846Y42205D01*
X26125Y42879D01*
X26155Y43102D01*
D02*
G37*
G36*
X57874Y41672D02*
X57295Y41556D01*
X56804Y41228D01*
X56476Y40737D01*
X56361Y40158D01*
X56476Y39579D01*
X56804Y39088D01*
X57295Y38760D01*
X57874Y38645D01*
X58453Y38760D01*
X58944Y39088D01*
X59272Y39579D01*
X59387Y40158D01*
X59272Y40737D01*
X58944Y41228D01*
X58453Y41556D01*
X57874Y41672D01*
D02*
G37*
G36*
X116142Y45020D02*
X115189Y44894D01*
X114301Y44526D01*
X113539Y43942D01*
X112954Y43179D01*
X112857Y42946D01*
X112803Y42905D01*
X112801Y42893D01*
X112792Y42885D01*
X112699Y42711D01*
X112608Y42587D01*
X112502Y42478D01*
X112375Y42382D01*
X112224Y42296D01*
X112046Y42222D01*
X111838Y42161D01*
X111599Y42115D01*
X111329Y42087D01*
X111012Y42076D01*
X110986Y42064D01*
X110630D01*
X110051Y41949D01*
X109560Y41621D01*
X109560Y41621D01*
X108772Y40834D01*
X108444Y40343D01*
X108343Y39835D01*
X108317Y39776D01*
X108310Y39464D01*
X108291Y39204D01*
X108261Y38987D01*
X108222Y38815D01*
X108179Y38690D01*
X108141Y38615D01*
X108121Y38590D01*
X108068Y38584D01*
X108046Y38571D01*
X100878D01*
Y34579D01*
X111327D01*
Y36940D01*
X111356Y37087D01*
Y38055D01*
X111356Y38055D01*
X111360Y38572D01*
X111378Y38617D01*
X111863Y39011D01*
X112170Y38997D01*
X112437Y38964D01*
X112694Y38917D01*
X112937Y38858D01*
X113163Y38787D01*
X113376Y38703D01*
X113573Y38609D01*
X113757Y38502D01*
X113946Y38372D01*
X113966Y38368D01*
X113978Y38352D01*
X114053Y38341D01*
X114301Y38151D01*
X115189Y37783D01*
X116142Y37657D01*
X117095Y37783D01*
X117982Y38151D01*
X118745Y38736D01*
X119330Y39498D01*
X119697Y40386D01*
X119823Y41339D01*
X119697Y42291D01*
X119330Y43179D01*
X118745Y43942D01*
X117982Y44526D01*
X117095Y44894D01*
X116142Y45020D01*
D02*
G37*
G36*
X107874Y46395D02*
X107295Y46280D01*
X106855Y45986D01*
X106801Y45966D01*
X106759Y45926D01*
X106733Y45906D01*
X106704Y45888D01*
X106674Y45871D01*
X106639Y45857D01*
X106600Y45844D01*
X106555Y45833D01*
X106503Y45824D01*
X106446Y45819D01*
X106365Y45816D01*
X106313Y45793D01*
X104331D01*
X103982Y45724D01*
X103686Y45526D01*
X98568Y40408D01*
X98371Y40113D01*
X98301Y39764D01*
Y37592D01*
X98208Y37518D01*
X97801Y37370D01*
X97430Y37619D01*
X96850Y37734D01*
X96473Y37659D01*
X95972Y37975D01*
Y38571D01*
X85524D01*
Y37580D01*
X85028Y37520D01*
X82899Y39650D01*
X82878Y39704D01*
X82788Y39799D01*
X82722Y39876D01*
X82672Y39944D01*
X82636Y40001D01*
X82614Y40044D01*
X82604Y40072D01*
X82603Y40078D01*
X82609Y40100D01*
X82600Y40170D01*
X82689Y40386D01*
X82815Y41339D01*
X82689Y42291D01*
X82322Y43179D01*
X81737Y43942D01*
X80974Y44526D01*
X80087Y44894D01*
X79134Y45020D01*
X78181Y44894D01*
X77293Y44526D01*
X76531Y43942D01*
X75946Y43179D01*
X75578Y42291D01*
X75453Y41339D01*
X75578Y40386D01*
X75946Y39498D01*
X76531Y38736D01*
X77293Y38151D01*
X78181Y37783D01*
X79134Y37657D01*
X80087Y37783D01*
X80974Y38151D01*
X81216Y38336D01*
X81722Y38228D01*
X81749Y38222D01*
X84041Y35930D01*
X84336Y35733D01*
X84685Y35664D01*
X85181D01*
X85234Y35640D01*
X85367Y35637D01*
X85463Y35628D01*
X85524Y35618D01*
Y34579D01*
X95969D01*
X96320Y34223D01*
X95686Y33588D01*
X95673D01*
X95673Y33588D01*
X92925D01*
X92837Y33571D01*
X85524D01*
Y32453D01*
X85463Y32443D01*
X85367Y32434D01*
X85234Y32431D01*
X85181Y32407D01*
X83113D01*
X83061Y32431D01*
X82932Y32434D01*
X82836Y32443D01*
X82761Y32455D01*
X82708Y32469D01*
X82681Y32479D01*
X82675Y32486D01*
X82675Y32487D01*
X82674Y32487D01*
X82673Y32488D01*
X82322Y33337D01*
X81737Y34099D01*
X80974Y34684D01*
X80087Y35052D01*
X79134Y35177D01*
X78181Y35052D01*
X77293Y34684D01*
X76531Y34099D01*
X75946Y33337D01*
X75578Y32449D01*
X75453Y31496D01*
X75465Y31405D01*
X75016Y31184D01*
X65714Y40486D01*
X65712Y40497D01*
X65514Y40792D01*
X63510Y42797D01*
Y43321D01*
X63533Y43373D01*
X63535Y43453D01*
X63541Y43511D01*
X63549Y43562D01*
X63560Y43608D01*
X63573Y43647D01*
X63588Y43682D01*
X63604Y43712D01*
X63622Y43740D01*
X63643Y43767D01*
X63683Y43809D01*
X63703Y43863D01*
X63997Y44303D01*
X64112Y44882D01*
X63997Y45461D01*
X63669Y45952D01*
X63178Y46280D01*
X62598Y46395D01*
X62019Y46280D01*
X61528Y45952D01*
X61200Y45461D01*
X61085Y44882D01*
X61200Y44303D01*
X61494Y43863D01*
X61514Y43809D01*
X61554Y43767D01*
X61575Y43740D01*
X61593Y43712D01*
X61609Y43681D01*
X61624Y43647D01*
X61637Y43608D01*
X61647Y43562D01*
X61656Y43511D01*
X61661Y43453D01*
X61664Y43373D01*
X61687Y43321D01*
Y42420D01*
X61757Y42071D01*
X61954Y41775D01*
X64026Y39703D01*
X64028Y39693D01*
X64226Y39397D01*
X76815Y26808D01*
X77110Y26611D01*
X77459Y26542D01*
X79270D01*
X79477Y26041D01*
X78490Y25054D01*
X78292Y24758D01*
X78223Y24409D01*
Y23665D01*
X78199Y23612D01*
X78196Y23483D01*
X78187Y23388D01*
X78175Y23312D01*
X78161Y23259D01*
X78151Y23233D01*
X78144Y23226D01*
X78143Y23226D01*
X78143Y23225D01*
X78142Y23224D01*
X77293Y22873D01*
X76531Y22288D01*
X75946Y21526D01*
X75578Y20638D01*
X75453Y19685D01*
X75578Y18732D01*
X75946Y17844D01*
X76531Y17082D01*
X77293Y16497D01*
X78181Y16129D01*
X79134Y16004D01*
X80087Y16129D01*
X80935Y16481D01*
X80936Y16481D01*
X80937Y16481D01*
X80938Y16481D01*
X80947Y16481D01*
X80973Y16470D01*
X81021Y16442D01*
X81082Y16398D01*
X81156Y16336D01*
X81250Y16247D01*
X81304Y16227D01*
X81600Y15931D01*
X81895Y15733D01*
X82244Y15664D01*
X82557D01*
X82832Y15164D01*
X82739Y14697D01*
X82854Y14118D01*
X83182Y13627D01*
X83493Y13419D01*
X83341Y12919D01*
X79672D01*
X79593Y13015D01*
X79562Y13059D01*
X79532Y13106D01*
X79506Y13153D01*
X79484Y13198D01*
X79467Y13242D01*
X79452Y13285D01*
X79437Y13345D01*
X79381Y13418D01*
X79351Y13571D01*
X79023Y14062D01*
X78532Y14390D01*
X77953Y14505D01*
X77374Y14390D01*
X76883Y14062D01*
X76555Y13571D01*
X76439Y12992D01*
X76555Y12413D01*
X76883Y11922D01*
X77374Y11594D01*
X77953Y11479D01*
X78188Y11526D01*
X78288Y11505D01*
X78335Y11513D01*
X78348Y11514D01*
X78359Y11514D01*
X78372Y11512D01*
X78388Y11507D01*
X78410Y11498D01*
X78437Y11483D01*
X78471Y11460D01*
X78510Y11428D01*
X78568Y11375D01*
X78626Y11353D01*
X78664Y11303D01*
X78712Y11297D01*
X78908Y11166D01*
X79257Y11097D01*
X124606D01*
X124955Y11166D01*
X125251Y11364D01*
X132443Y18556D01*
X132641Y18852D01*
X132710Y19200D01*
Y35447D01*
X132734Y35499D01*
X132736Y35579D01*
X132741Y35637D01*
X132750Y35688D01*
X132761Y35734D01*
X132774Y35773D01*
X132788Y35808D01*
X132805Y35838D01*
X132823Y35866D01*
X132843Y35893D01*
X132883Y35935D01*
X132903Y35989D01*
X133197Y36429D01*
X133312Y37008D01*
X133197Y37587D01*
X132869Y38078D01*
X132378Y38406D01*
X131799Y38521D01*
X131332Y38428D01*
X130832Y38703D01*
Y40173D01*
X131037Y40378D01*
X131090Y40398D01*
X131149Y40453D01*
X131193Y40490D01*
X131236Y40521D01*
X131275Y40545D01*
X131312Y40563D01*
X131347Y40578D01*
X131380Y40588D01*
X131413Y40595D01*
X131446Y40599D01*
X131504Y40601D01*
X131557Y40625D01*
X132075Y40728D01*
X132566Y41056D01*
X132894Y41547D01*
X133009Y42126D01*
X132894Y42705D01*
X132566Y43196D01*
X132075Y43524D01*
X131496Y43639D01*
X130917Y43524D01*
X130426Y43196D01*
X130098Y42705D01*
X129995Y42187D01*
X129971Y42134D01*
X129969Y42076D01*
X129965Y42043D01*
X129958Y42010D01*
X129948Y41977D01*
X129934Y41942D01*
X129915Y41905D01*
X129891Y41866D01*
X129860Y41823D01*
X129824Y41779D01*
X129768Y41720D01*
X129748Y41666D01*
X129277Y41195D01*
X129079Y40900D01*
X129010Y40551D01*
Y28820D01*
X128598Y28561D01*
X128510Y28568D01*
X127953Y28679D01*
X127374Y28563D01*
X126883Y28235D01*
X126555Y27744D01*
X126439Y27165D01*
X126555Y26586D01*
X126848Y26147D01*
X126868Y26093D01*
X126908Y26050D01*
X126929Y26024D01*
X126947Y25996D01*
X126963Y25965D01*
X126978Y25930D01*
X126991Y25891D01*
X127002Y25846D01*
X127010Y25795D01*
X127016Y25737D01*
X127018Y25656D01*
X127042Y25604D01*
Y22031D01*
X124426Y19415D01*
X118490D01*
X118438Y19439D01*
X118358Y19441D01*
X118300Y19446D01*
X118248Y19455D01*
X118203Y19466D01*
X118164Y19479D01*
X118129Y19493D01*
X118099Y19510D01*
X118070Y19528D01*
X118044Y19548D01*
X118002Y19588D01*
X117948Y19609D01*
X117508Y19902D01*
X116929Y20017D01*
X116350Y19902D01*
X115859Y19574D01*
X115531Y19083D01*
X115416Y18504D01*
X115531Y17925D01*
X115859Y17434D01*
X116350Y17106D01*
X116929Y16991D01*
X117508Y17106D01*
X117948Y17399D01*
X118002Y17420D01*
X118044Y17459D01*
X118071Y17480D01*
X118099Y17498D01*
X118130Y17515D01*
X118164Y17529D01*
X118203Y17542D01*
X118248Y17553D01*
X118300Y17561D01*
X118358Y17567D01*
X118438Y17569D01*
X118490Y17593D01*
X124803D01*
X125152Y17662D01*
X125447Y17860D01*
X128510Y20922D01*
X128850Y20838D01*
X129010Y20729D01*
Y20162D01*
X123055Y14207D01*
X111827D01*
Y16075D01*
X106102D01*
X100378D01*
Y14207D01*
X96281D01*
X95972Y14579D01*
Y18571D01*
X85524D01*
Y17532D01*
X85463Y17522D01*
X85367Y17513D01*
X85234Y17510D01*
X85181Y17486D01*
X82622D01*
X82592Y17515D01*
X82572Y17569D01*
X82483Y17663D01*
X82421Y17736D01*
X82377Y17798D01*
X82349Y17846D01*
X82337Y17872D01*
X82338Y17881D01*
X82338Y17882D01*
X82338Y17883D01*
X82338Y17884D01*
X82689Y18732D01*
X82815Y19685D01*
X82689Y20638D01*
X82322Y21526D01*
X81737Y22288D01*
X80974Y22873D01*
X80126Y23224D01*
X80125Y23225D01*
X80125Y23226D01*
X80124Y23226D01*
X80117Y23233D01*
X80107Y23259D01*
X80093Y23312D01*
X80081Y23388D01*
X80072Y23483D01*
X80069Y23612D01*
X80045Y23665D01*
Y24032D01*
X80692Y24679D01*
X81116D01*
X81168Y24656D01*
X81249Y24654D01*
X81307Y24648D01*
X81358Y24640D01*
X81403Y24629D01*
X81442Y24616D01*
X81477Y24601D01*
X81508Y24585D01*
X81536Y24567D01*
X81562Y24546D01*
X81605Y24506D01*
X81659Y24486D01*
X82098Y24192D01*
X82677Y24077D01*
X83256Y24192D01*
X83747Y24521D01*
X84075Y25011D01*
X84190Y25591D01*
X84075Y26170D01*
X83747Y26661D01*
X83256Y26989D01*
X83149Y27010D01*
X82985Y27553D01*
X83655Y28223D01*
X85524D01*
Y24579D01*
X95972D01*
Y26505D01*
X96472Y26656D01*
X96489Y26632D01*
X97071Y26050D01*
X97091Y25997D01*
X97146Y25938D01*
X97183Y25893D01*
X97214Y25851D01*
X97238Y25811D01*
X97256Y25775D01*
X97271Y25740D01*
X97281Y25706D01*
X97288Y25674D01*
X97292Y25640D01*
X97294Y25582D01*
X97318Y25530D01*
X97421Y25011D01*
X97749Y24521D01*
X98240Y24192D01*
X98819Y24077D01*
X99398Y24192D01*
X99878Y24513D01*
X99948Y24500D01*
X100378Y24352D01*
Y24079D01*
X105602D01*
Y26575D01*
X106102D01*
Y27075D01*
X111827D01*
Y28579D01*
X111827Y29071D01*
X111827D01*
Y29079D01*
X111827D01*
Y29763D01*
X112327Y29863D01*
X112517Y29403D01*
X113182Y28536D01*
X114049Y27871D01*
X115059Y27453D01*
X115642Y27376D01*
Y31496D01*
Y35616D01*
X115059Y35539D01*
X114049Y35121D01*
X113182Y34456D01*
X112517Y33589D01*
X112327Y33129D01*
X111827Y33229D01*
Y34071D01*
X106602D01*
Y31575D01*
X106102D01*
Y31075D01*
X100378D01*
Y30436D01*
X99953Y30167D01*
X99512Y30320D01*
X99341Y30784D01*
X99430Y30917D01*
X99545Y31496D01*
X99430Y32075D01*
X99102Y32566D01*
X98611Y32894D01*
X98331Y32950D01*
X98167Y33492D01*
X99857Y35182D01*
X100054Y35478D01*
X100124Y35827D01*
Y39386D01*
X104708Y43971D01*
X106313D01*
X106365Y43947D01*
X106446Y43945D01*
X106503Y43939D01*
X106555Y43931D01*
X106600Y43920D01*
X106639Y43907D01*
X106674Y43892D01*
X106704Y43876D01*
X106733Y43858D01*
X106759Y43837D01*
X106801Y43798D01*
X106855Y43777D01*
X107295Y43484D01*
X107874Y43369D01*
X108453Y43484D01*
X108944Y43812D01*
X109272Y44303D01*
X109387Y44882D01*
X109272Y45461D01*
X108944Y45952D01*
X108453Y46280D01*
X107874Y46395D01*
D02*
G37*
G36*
X63779Y38226D02*
X63200Y38111D01*
X62709Y37783D01*
X62381Y37292D01*
X62266Y36713D01*
X62381Y36134D01*
X62709Y35642D01*
X63200Y35315D01*
X63779Y35199D01*
X64359Y35315D01*
X64850Y35642D01*
X65178Y36134D01*
X65293Y36713D01*
X65178Y37292D01*
X64850Y37783D01*
X64359Y38111D01*
X63779Y38226D01*
D02*
G37*
G36*
X105602Y34071D02*
X100378D01*
Y32075D01*
X105602D01*
Y34071D01*
D02*
G37*
G36*
X116642Y35616D02*
Y31996D01*
X120261D01*
X120185Y32579D01*
X119766Y33589D01*
X119101Y34456D01*
X118234Y35121D01*
X117225Y35539D01*
X116642Y35616D01*
D02*
G37*
G36*
X120261Y30996D02*
X116642D01*
Y27376D01*
X117225Y27453D01*
X118234Y27871D01*
X119101Y28536D01*
X119766Y29403D01*
X120185Y30413D01*
X120261Y30996D01*
D02*
G37*
G36*
X26555Y37787D02*
X22106D01*
X22183Y37398D01*
X22687Y36644D01*
X22766Y36591D01*
X22853Y35932D01*
X22654Y35635D01*
X22516Y34941D01*
X22654Y34247D01*
X23048Y33658D01*
X23258Y33518D01*
Y33018D01*
X23048Y32877D01*
X22654Y32289D01*
X22516Y31594D01*
X22654Y30900D01*
X23048Y30312D01*
X23258Y30171D01*
Y29671D01*
X23048Y29531D01*
X22654Y28942D01*
X22521Y28270D01*
X22510Y28246D01*
X22508Y28126D01*
X22500Y28030D01*
X22486Y27942D01*
X22468Y27863D01*
X22445Y27790D01*
X22418Y27724D01*
X22387Y27664D01*
X22351Y27608D01*
X22311Y27556D01*
X22250Y27488D01*
X22231Y27437D01*
X20946Y26152D01*
X20902D01*
X20851Y26175D01*
X20762Y26178D01*
X20687Y26186D01*
X20608Y26199D01*
X20532Y26217D01*
X20338Y26278D01*
X20253Y26312D01*
X20235Y26321D01*
X20169Y26809D01*
X20199Y26899D01*
X20299Y26965D01*
X20692Y27554D01*
X20830Y28248D01*
X20692Y28942D01*
X20299Y29531D01*
X20089Y29671D01*
Y30171D01*
X20299Y30312D01*
X20692Y30900D01*
X20830Y31594D01*
X20692Y32289D01*
X20299Y32877D01*
X20089Y33018D01*
Y33518D01*
X20299Y33658D01*
X20692Y34247D01*
X20830Y34941D01*
X20692Y35635D01*
X20494Y35932D01*
X20580Y36591D01*
X20659Y36644D01*
X21163Y37398D01*
X21240Y37787D01*
X16791D01*
X16869Y37398D01*
X17372Y36644D01*
X17451Y36591D01*
X17538Y35932D01*
X17339Y35635D01*
X17201Y34941D01*
X17339Y34247D01*
X17733Y33658D01*
X17943Y33518D01*
Y33018D01*
X17733Y32877D01*
X17339Y32289D01*
X17201Y31594D01*
X17339Y30900D01*
X17733Y30312D01*
X17943Y30171D01*
Y29671D01*
X17733Y29531D01*
X17339Y28942D01*
X17201Y28248D01*
X17339Y27554D01*
X17733Y26965D01*
X17943Y26825D01*
Y26325D01*
X17733Y26184D01*
X17339Y25596D01*
X17201Y24902D01*
X17339Y24207D01*
X17733Y23619D01*
X17943Y23478D01*
Y22978D01*
X17733Y22838D01*
X17339Y22249D01*
X17201Y21555D01*
X17339Y20861D01*
X17733Y20272D01*
X17943Y20132D01*
Y19632D01*
X17733Y19492D01*
X17339Y18903D01*
X17201Y18209D01*
X17339Y17514D01*
X17538Y17218D01*
X17451Y16558D01*
X17372Y16506D01*
X16869Y15752D01*
X16791Y15362D01*
X19016D01*
Y14362D01*
X16791D01*
X16869Y13973D01*
X17372Y13219D01*
X17935Y12843D01*
X17783Y12343D01*
X17520D01*
X16796Y12247D01*
X16122Y11968D01*
X15543Y11524D01*
X15099Y10945D01*
X14819Y10271D01*
X14790Y10047D01*
X26155D01*
X26125Y10271D01*
X25846Y10945D01*
X25402Y11524D01*
X24823Y11968D01*
X24566Y12075D01*
X24617Y12595D01*
X25220Y12715D01*
X25974Y13219D01*
X26478Y13973D01*
X26555Y14362D01*
X24331D01*
Y15362D01*
X26555D01*
X26478Y15752D01*
X25974Y16506D01*
X25895Y16558D01*
X25809Y17218D01*
X26007Y17514D01*
X26145Y18209D01*
X26007Y18903D01*
X25614Y19492D01*
X25404Y19632D01*
Y20132D01*
X25614Y20272D01*
X26007Y20861D01*
X26145Y21555D01*
X26007Y22249D01*
X25614Y22838D01*
X25404Y22978D01*
Y23478D01*
X25614Y23619D01*
X26007Y24207D01*
X26145Y24902D01*
X26007Y25596D01*
X25614Y26184D01*
X25404Y26325D01*
Y26825D01*
X25595Y26952D01*
X25619Y26962D01*
X25706Y27045D01*
X25780Y27108D01*
X25851Y27160D01*
X25921Y27203D01*
X25988Y27238D01*
X26054Y27266D01*
X26118Y27286D01*
X26183Y27301D01*
X26248Y27310D01*
X26340Y27314D01*
X26389Y27337D01*
X29035D01*
X29384Y27406D01*
X29680Y27604D01*
X33005Y30929D01*
X33059Y30949D01*
X33117Y31005D01*
X33162Y31042D01*
X33204Y31072D01*
X33244Y31096D01*
X33281Y31115D01*
X33315Y31129D01*
X33349Y31139D01*
X33382Y31146D01*
X33415Y31150D01*
X33473Y31152D01*
X33525Y31176D01*
X34044Y31279D01*
X34535Y31607D01*
X34863Y32098D01*
X34978Y32677D01*
X34863Y33256D01*
X34535Y33747D01*
X34044Y34075D01*
X33465Y34190D01*
X32885Y34075D01*
X32394Y33747D01*
X32066Y33256D01*
X31963Y32738D01*
X31940Y32685D01*
X31938Y32627D01*
X31934Y32594D01*
X31926Y32561D01*
X31916Y32528D01*
X31902Y32493D01*
X31883Y32456D01*
X31859Y32417D01*
X31829Y32375D01*
X31792Y32330D01*
X31737Y32271D01*
X31716Y32218D01*
X28658Y29159D01*
X26389D01*
X26340Y29182D01*
X26248Y29186D01*
X26183Y29195D01*
X26118Y29210D01*
X26054Y29230D01*
X25988Y29258D01*
X25921Y29293D01*
X25851Y29336D01*
X25780Y29388D01*
X25706Y29451D01*
X25619Y29534D01*
X25595Y29544D01*
X25404Y29671D01*
Y30171D01*
X25614Y30312D01*
X26007Y30900D01*
X26145Y31594D01*
X26007Y32289D01*
X25614Y32877D01*
X25404Y33018D01*
Y33518D01*
X25614Y33658D01*
X26007Y34247D01*
X26145Y34941D01*
X26007Y35635D01*
X25809Y35932D01*
X25895Y36591D01*
X25974Y36644D01*
X26478Y37398D01*
X26555Y37787D01*
D02*
G37*
G36*
X51272Y30253D02*
X50692Y30138D01*
X50202Y29810D01*
X49874Y29319D01*
X49758Y28740D01*
X49874Y28161D01*
X50202Y27670D01*
X50220Y27657D01*
Y27158D01*
X50202Y27145D01*
X49874Y26654D01*
X49758Y26075D01*
X49874Y25496D01*
X50202Y25005D01*
X50692Y24677D01*
X51272Y24561D01*
X51851Y24677D01*
X52342Y25005D01*
X52670Y25496D01*
X52785Y26075D01*
X52670Y26654D01*
X52342Y27145D01*
X52323Y27158D01*
Y27657D01*
X52342Y27670D01*
X52670Y28161D01*
X52785Y28740D01*
X52670Y29319D01*
X52342Y29810D01*
X51851Y30138D01*
X51272Y30253D01*
D02*
G37*
G36*
X111827Y26075D02*
X106602D01*
Y24079D01*
X111827D01*
Y26075D01*
D02*
G37*
G36*
X111327Y23571D02*
X100878D01*
Y19579D01*
X111327D01*
Y23571D01*
D02*
G37*
G36*
X95972D02*
X85524D01*
Y19579D01*
X95972D01*
Y23571D01*
D02*
G37*
G36*
X68898Y21198D02*
X68318Y21083D01*
X67827Y20755D01*
X67500Y20264D01*
X67384Y19685D01*
X67500Y19106D01*
X67827Y18615D01*
X68318Y18287D01*
X68898Y18172D01*
X69477Y18287D01*
X69968Y18615D01*
X70296Y19106D01*
X70411Y19685D01*
X70296Y20264D01*
X69968Y20755D01*
X69477Y21083D01*
X68898Y21198D01*
D02*
G37*
G36*
X111827Y19071D02*
X106602D01*
Y17075D01*
X111827D01*
Y19071D01*
D02*
G37*
G36*
X105602D02*
X100378D01*
Y17075D01*
X105602D01*
Y19071D01*
D02*
G37*
G36*
X129921Y14318D02*
X129150Y14165D01*
X128496Y13728D01*
X128060Y13074D01*
X127906Y12303D01*
X128060Y11532D01*
X128496Y10878D01*
X129150Y10441D01*
X129921Y10288D01*
X130692Y10441D01*
X131346Y10878D01*
X131783Y11532D01*
X131936Y12303D01*
X131783Y13074D01*
X131346Y13728D01*
X130692Y14165D01*
X129921Y14318D01*
D02*
G37*
G36*
X8740Y12343D02*
X7665D01*
Y10047D01*
X11470D01*
X11440Y10271D01*
X11161Y10945D01*
X10717Y11524D01*
X10138Y11968D01*
X9464Y12247D01*
X8740Y12343D01*
D02*
G37*
G36*
X6665D02*
X5591D01*
X4867Y12247D01*
X4193Y11968D01*
X3614Y11524D01*
X3170Y10945D01*
X2890Y10271D01*
X2861Y10047D01*
X6665D01*
Y12343D01*
D02*
G37*
G36*
X26155Y9047D02*
X20972D01*
Y6752D01*
X23425D01*
X24149Y6847D01*
X24823Y7126D01*
X25402Y7570D01*
X25846Y8150D01*
X26125Y8824D01*
X26155Y9047D01*
D02*
G37*
G36*
X19972D02*
X14790D01*
X14819Y8824D01*
X15099Y8150D01*
X15543Y7570D01*
X16122Y7126D01*
X16796Y6847D01*
X17520Y6752D01*
X19972D01*
Y9047D01*
D02*
G37*
G36*
X11470D02*
X7665D01*
Y6752D01*
X8740D01*
X9464Y6847D01*
X10138Y7126D01*
X10717Y7570D01*
X11161Y8150D01*
X11440Y8824D01*
X11470Y9047D01*
D02*
G37*
G36*
X6665D02*
X2861D01*
X2890Y8824D01*
X3170Y8150D01*
X3614Y7570D01*
X4193Y7126D01*
X4867Y6847D01*
X5591Y6752D01*
X6665D01*
Y9047D01*
D02*
G37*
G36*
X71752Y7025D02*
X71173Y6910D01*
X70682Y6582D01*
X70354Y6091D01*
X70239Y5512D01*
X70354Y4933D01*
X70682Y4442D01*
X71173Y4114D01*
X71752Y3999D01*
X72331Y4114D01*
X72822Y4442D01*
X73150Y4933D01*
X73265Y5512D01*
X73150Y6091D01*
X72822Y6582D01*
X72331Y6910D01*
X71752Y7025D01*
D02*
G37*
G36*
X108268Y5844D02*
X107689Y5729D01*
X107198Y5401D01*
X106870Y4910D01*
X106754Y4331D01*
X106870Y3752D01*
X107198Y3261D01*
X107689Y2933D01*
X108268Y2817D01*
X108847Y2933D01*
X109338Y3261D01*
X109666Y3752D01*
X109781Y4331D01*
X109666Y4910D01*
X109338Y5401D01*
X108847Y5729D01*
X108268Y5844D01*
D02*
G37*
%LPD*%
G36*
X114253Y38818D02*
X114047Y38960D01*
X113826Y39088D01*
X113592Y39200D01*
X113344Y39297D01*
X113082Y39380D01*
X112807Y39447D01*
X112518Y39500D01*
X112215Y39537D01*
X111569Y39567D01*
X111030Y41535D01*
X111367Y41546D01*
X111679Y41579D01*
X111965Y41634D01*
X112227Y41711D01*
X112463Y41809D01*
X112675Y41929D01*
X112861Y42072D01*
X113022Y42236D01*
X113158Y42422D01*
X113269Y42630D01*
X114253Y38818D01*
D02*
G37*
G36*
X110815Y38059D02*
X108138Y38047D01*
X108274Y38065D01*
X108397Y38117D01*
X108505Y38203D01*
X108599Y38323D01*
X108678Y38478D01*
X108743Y38666D01*
X108793Y38890D01*
X108829Y39147D01*
X108851Y39438D01*
X108858Y39764D01*
X110827D01*
X110815Y38059D01*
D02*
G37*
G36*
X107171Y44193D02*
X107111Y44249D01*
X107047Y44299D01*
X106978Y44344D01*
X106906Y44382D01*
X106829Y44414D01*
X106748Y44441D01*
X106663Y44462D01*
X106573Y44476D01*
X106479Y44485D01*
X106381Y44488D01*
Y45276D01*
X106479Y45278D01*
X106573Y45287D01*
X106663Y45302D01*
X106748Y45323D01*
X106829Y45349D01*
X106906Y45382D01*
X106978Y45420D01*
X107047Y45465D01*
X107111Y45515D01*
X107171Y45571D01*
Y44193D01*
D02*
G37*
G36*
X63231Y44119D02*
X63181Y44055D01*
X63137Y43986D01*
X63098Y43914D01*
X63066Y43837D01*
X63039Y43756D01*
X63019Y43670D01*
X63004Y43581D01*
X62995Y43487D01*
X62992Y43389D01*
X62205D01*
X62202Y43487D01*
X62193Y43581D01*
X62178Y43670D01*
X62157Y43756D01*
X62131Y43837D01*
X62098Y43914D01*
X62060Y43986D01*
X62016Y44055D01*
X61966Y44119D01*
X61910Y44179D01*
X63287D01*
X63231Y44119D01*
D02*
G37*
G36*
X131486Y41142D02*
X131404Y41139D01*
X131323Y41129D01*
X131244Y41112D01*
X131165Y41088D01*
X131088Y41056D01*
X131012Y41018D01*
X130937Y40972D01*
X130863Y40919D01*
X130790Y40859D01*
X130719Y40792D01*
X130162Y41349D01*
X130229Y41420D01*
X130289Y41493D01*
X130342Y41567D01*
X130388Y41642D01*
X130427Y41718D01*
X130458Y41795D01*
X130482Y41873D01*
X130499Y41953D01*
X130509Y42034D01*
X130512Y42116D01*
X131486Y41142D01*
D02*
G37*
G36*
X82066Y40167D02*
X82059Y40087D01*
X82065Y40004D01*
X82084Y39918D01*
X82117Y39828D01*
X82164Y39735D01*
X82224Y39639D01*
X82298Y39539D01*
X82385Y39437D01*
X82486Y39331D01*
X82030Y38673D01*
X81925Y38773D01*
X81824Y38857D01*
X81728Y38924D01*
X81637Y38976D01*
X81550Y39012D01*
X81468Y39032D01*
X81391Y39035D01*
X81319Y39023D01*
X81251Y38995D01*
X81188Y38951D01*
X82087Y40244D01*
X82066Y40167D01*
D02*
G37*
G36*
X86036Y35787D02*
X86028Y35862D01*
X86004Y35929D01*
X85965Y35988D01*
X85910Y36039D01*
X85839Y36083D01*
X85752Y36118D01*
X85650Y36146D01*
X85532Y36165D01*
X85398Y36177D01*
X85248Y36181D01*
Y36968D01*
X85398Y36972D01*
X85532Y36984D01*
X85650Y37004D01*
X85752Y37031D01*
X85839Y37067D01*
X85910Y37110D01*
X85965Y37161D01*
X86004Y37220D01*
X86028Y37287D01*
X86036Y37362D01*
Y35787D01*
D02*
G37*
G36*
X95456Y36933D02*
X95480Y36866D01*
X95520Y36807D01*
X95576Y36756D01*
X95648Y36713D01*
X95736Y36677D01*
X95756Y36672D01*
X95805Y36688D01*
X95882Y36720D01*
X95955Y36759D01*
X96023Y36803D01*
X96087Y36853D01*
X96148Y36909D01*
Y36617D01*
X96248Y36614D01*
Y35827D01*
X96148Y35824D01*
Y35531D01*
X96087Y35588D01*
X96023Y35638D01*
X95955Y35682D01*
X95882Y35721D01*
X95805Y35753D01*
X95756Y35769D01*
X95736Y35764D01*
X95648Y35728D01*
X95576Y35685D01*
X95520Y35634D01*
X95480Y35575D01*
X95456Y35508D01*
X95448Y35433D01*
Y35824D01*
X95358Y35827D01*
Y36614D01*
X95448Y36617D01*
Y37008D01*
X95456Y36933D01*
D02*
G37*
G36*
X132432Y36245D02*
X132382Y36181D01*
X132337Y36112D01*
X132299Y36040D01*
X132266Y35963D01*
X132240Y35882D01*
X132219Y35796D01*
X132204Y35707D01*
X132195Y35613D01*
X132193Y35515D01*
X131405D01*
X131402Y35613D01*
X131393Y35707D01*
X131379Y35796D01*
X131358Y35882D01*
X131331Y35963D01*
X131299Y36040D01*
X131261Y36112D01*
X131216Y36181D01*
X131166Y36245D01*
X131110Y36305D01*
X132488D01*
X132432Y36245D01*
D02*
G37*
G36*
X86036Y30709D02*
X86028Y30784D01*
X86004Y30850D01*
X85965Y30909D01*
X85910Y30961D01*
X85839Y31004D01*
X85752Y31039D01*
X85650Y31067D01*
X85532Y31087D01*
X85398Y31098D01*
X85248Y31102D01*
Y31890D01*
X85398Y31894D01*
X85532Y31905D01*
X85650Y31925D01*
X85752Y31953D01*
X85839Y31988D01*
X85910Y32032D01*
X85965Y32083D01*
X86004Y32142D01*
X86028Y32209D01*
X86036Y32283D01*
Y30709D01*
D02*
G37*
G36*
X82210Y32209D02*
X82250Y32142D01*
X82304Y32083D01*
X82370Y32032D01*
X82450Y31988D01*
X82543Y31953D01*
X82649Y31925D01*
X82768Y31905D01*
X82901Y31894D01*
X83046Y31890D01*
Y31102D01*
X82901Y31098D01*
X82768Y31087D01*
X82649Y31067D01*
X82543Y31039D01*
X82450Y31004D01*
X82370Y30961D01*
X82304Y30909D01*
X82250Y30850D01*
X82210Y30784D01*
X82183Y30709D01*
Y32283D01*
X82210Y32209D01*
D02*
G37*
G36*
X128586Y26403D02*
X128535Y26338D01*
X128491Y26270D01*
X128453Y26197D01*
X128420Y26120D01*
X128394Y26039D01*
X128373Y25954D01*
X128358Y25864D01*
X128349Y25771D01*
X128347Y25673D01*
X127559D01*
X127556Y25771D01*
X127547Y25864D01*
X127532Y25954D01*
X127512Y26039D01*
X127485Y26120D01*
X127453Y26197D01*
X127414Y26270D01*
X127370Y26338D01*
X127320Y26403D01*
X127264Y26463D01*
X128642D01*
X128586Y26403D01*
D02*
G37*
G36*
X98113Y26857D02*
X98186Y26797D01*
X98260Y26744D01*
X98334Y26699D01*
X98410Y26660D01*
X98488Y26629D01*
X98566Y26605D01*
X98646Y26587D01*
X98727Y26577D01*
X98809Y26575D01*
X97835Y25600D01*
X97832Y25683D01*
X97822Y25763D01*
X97805Y25843D01*
X97781Y25922D01*
X97749Y25999D01*
X97711Y26075D01*
X97665Y26150D01*
X97612Y26224D01*
X97552Y26296D01*
X97485Y26368D01*
X98042Y26924D01*
X98113Y26857D01*
D02*
G37*
G36*
X81974Y24902D02*
X81914Y24958D01*
X81850Y25008D01*
X81782Y25052D01*
X81709Y25091D01*
X81632Y25123D01*
X81551Y25150D01*
X81466Y25170D01*
X81376Y25185D01*
X81283Y25194D01*
X81185Y25197D01*
Y25984D01*
X81283Y25987D01*
X81376Y25996D01*
X81466Y26011D01*
X81551Y26032D01*
X81632Y26058D01*
X81709Y26091D01*
X81782Y26129D01*
X81850Y26173D01*
X81914Y26223D01*
X81974Y26280D01*
Y24902D01*
D02*
G37*
G36*
X79532Y23452D02*
X79543Y23319D01*
X79563Y23200D01*
X79590Y23094D01*
X79626Y23001D01*
X79669Y22921D01*
X79720Y22855D01*
X79779Y22802D01*
X79847Y22762D01*
X79921Y22735D01*
X78347D01*
X78421Y22762D01*
X78488Y22802D01*
X78547Y22855D01*
X78598Y22921D01*
X78642Y23001D01*
X78677Y23094D01*
X78705Y23200D01*
X78724Y23319D01*
X78736Y23452D01*
X78740Y23597D01*
X79528D01*
X79532Y23452D01*
D02*
G37*
G36*
X117692Y19137D02*
X117756Y19087D01*
X117825Y19042D01*
X117897Y19004D01*
X117974Y18971D01*
X118055Y18945D01*
X118141Y18924D01*
X118230Y18910D01*
X118324Y18901D01*
X118422Y18898D01*
Y18110D01*
X118324Y18107D01*
X118230Y18098D01*
X118141Y18084D01*
X118055Y18063D01*
X117974Y18036D01*
X117897Y18004D01*
X117825Y17966D01*
X117756Y17921D01*
X117692Y17871D01*
X117632Y17815D01*
Y19193D01*
X117692Y19137D01*
D02*
G37*
G36*
X81813Y18013D02*
X81794Y17938D01*
X81790Y17858D01*
X81801Y17775D01*
X81827Y17688D01*
X81867Y17597D01*
X81923Y17503D01*
X81993Y17405D01*
X82078Y17303D01*
X82179Y17197D01*
X81622Y16640D01*
X81516Y16740D01*
X81414Y16826D01*
X81316Y16896D01*
X81221Y16952D01*
X81131Y16992D01*
X81044Y17018D01*
X80961Y17029D01*
X80881Y17025D01*
X80805Y17006D01*
X80734Y16972D01*
X81847Y18085D01*
X81813Y18013D01*
D02*
G37*
G36*
X86036Y15787D02*
X86028Y15862D01*
X86004Y15929D01*
X85965Y15988D01*
X85910Y16039D01*
X85839Y16083D01*
X85752Y16118D01*
X85650Y16146D01*
X85532Y16165D01*
X85398Y16177D01*
X85248Y16181D01*
Y16969D01*
X85398Y16972D01*
X85532Y16984D01*
X85650Y17004D01*
X85752Y17031D01*
X85839Y17067D01*
X85910Y17110D01*
X85965Y17161D01*
X86004Y17221D01*
X86028Y17287D01*
X86036Y17362D01*
Y15787D01*
D02*
G37*
G36*
X85237Y14795D02*
X85260Y14717D01*
X85289Y14640D01*
X85322Y14564D01*
X85362Y14489D01*
X85407Y14414D01*
X85457Y14341D01*
X85513Y14269D01*
X85575Y14198D01*
X85642Y14127D01*
X85203Y13452D01*
X85131Y13520D01*
X85058Y13579D01*
X84984Y13629D01*
X84910Y13670D01*
X84834Y13702D01*
X84759Y13726D01*
X84682Y13741D01*
X84605Y13747D01*
X84527Y13744D01*
X84448Y13732D01*
X85220Y14874D01*
X85237Y14795D01*
D02*
G37*
G36*
X78933Y13131D02*
X78958Y13055D01*
X78989Y12979D01*
X79025Y12905D01*
X79066Y12831D01*
X79112Y12757D01*
X79163Y12685D01*
X79282Y12542D01*
X79349Y12472D01*
X78938Y11770D01*
X78865Y11838D01*
X78792Y11897D01*
X78718Y11946D01*
X78644Y11987D01*
X78569Y12018D01*
X78494Y12040D01*
X78418Y12053D01*
X78342Y12056D01*
X78266Y12051D01*
X78188Y12037D01*
X78913Y13208D01*
X78933Y13131D01*
D02*
G37*
G36*
X33455Y31693D02*
X33373Y31690D01*
X33292Y31680D01*
X33212Y31663D01*
X33134Y31639D01*
X33056Y31608D01*
X32980Y31569D01*
X32905Y31523D01*
X32831Y31471D01*
X32759Y31411D01*
X32688Y31343D01*
X32131Y31900D01*
X32198Y31971D01*
X32258Y32044D01*
X32311Y32118D01*
X32357Y32193D01*
X32395Y32269D01*
X32426Y32346D01*
X32451Y32425D01*
X32468Y32504D01*
X32478Y32585D01*
X32480Y32667D01*
X33455Y31693D01*
D02*
G37*
G36*
X25344Y29048D02*
X25445Y28963D01*
X25548Y28888D01*
X25652Y28822D01*
X25758Y28767D01*
X25866Y28722D01*
X25976Y28687D01*
X26088Y28662D01*
X26201Y28647D01*
X26316Y28642D01*
Y27854D01*
X26201Y27849D01*
X26088Y27834D01*
X25976Y27809D01*
X25866Y27774D01*
X25758Y27729D01*
X25652Y27674D01*
X25548Y27608D01*
X25445Y27533D01*
X25344Y27448D01*
X25245Y27352D01*
Y29144D01*
X25344Y29048D01*
D02*
G37*
G36*
X24318Y26969D02*
X24180Y26966D01*
X24048Y26955D01*
X23923Y26935D01*
X23802Y26908D01*
X23688Y26871D01*
X23580Y26827D01*
X23478Y26774D01*
X23381Y26713D01*
X23290Y26644D01*
X23205Y26566D01*
X22649Y27123D01*
X22726Y27207D01*
X22796Y27298D01*
X22857Y27395D01*
X22910Y27497D01*
X22954Y27606D01*
X22990Y27720D01*
X23018Y27840D01*
X23037Y27966D01*
X23049Y28098D01*
X23051Y28235D01*
X24318Y26969D01*
D02*
G37*
G36*
X19787Y25936D02*
X20034Y25817D01*
X20155Y25769D01*
X20389Y25694D01*
X20503Y25668D01*
X20615Y25649D01*
X20725Y25638D01*
X20832Y25634D01*
X21062Y24847D01*
X20942Y24841D01*
X20829Y24824D01*
X20721Y24796D01*
X20619Y24756D01*
X20524Y24705D01*
X20434Y24643D01*
X20350Y24569D01*
X20272Y24484D01*
X20200Y24388D01*
X20134Y24280D01*
X19660Y26007D01*
X19787Y25936D01*
D02*
G37*
D10*
X106102Y31575D02*
X106968Y30709D01*
D12*
X62598Y42420D02*
X64870Y40148D01*
X77459Y27453D02*
X81596D01*
X64870Y40042D02*
X77459Y27453D01*
X64870Y40042D02*
Y40148D01*
X62598Y42420D02*
Y44882D01*
X24331Y28248D02*
X29035D01*
X33465Y32677D01*
X21323Y25240D02*
X24331Y28248D01*
X19355Y25240D02*
X21323D01*
X19016Y24902D02*
X19355Y25240D01*
X90748Y31575D02*
X91823D01*
X92925Y32677D01*
X95673D01*
X95673Y32677D01*
X96063D02*
X99213Y35827D01*
X95673Y32677D02*
X96063D01*
X80315Y25591D02*
X82677D01*
X79134Y19685D02*
Y24409D01*
X80315Y25591D01*
X82244Y16575D02*
X90748D01*
X85917Y13295D02*
X123432D01*
X84252Y14697D02*
X84516D01*
X85917Y13295D01*
X79134Y19685D02*
X82244Y16575D01*
X84685Y36575D02*
X90748D01*
X79921Y41339D02*
X84685Y36575D01*
X30995Y50787D02*
X90158D01*
X42126Y44882D02*
X46744Y49500D01*
X60417Y48213D02*
X81561D01*
X46744Y49500D02*
X87795D01*
X81561Y48213D02*
X84104Y45669D01*
X57087Y44882D02*
X60417Y48213D01*
X91823Y48909D02*
X93701Y50787D01*
X88386Y48909D02*
X91823D01*
X87795Y49500D02*
X88386Y48909D01*
X84104Y45669D02*
X92126D01*
X97244Y50787D01*
X124803Y18504D02*
X127953Y21654D01*
X116929Y18504D02*
X124803D01*
X127953Y21654D02*
Y27165D01*
X99213Y35827D02*
Y39764D01*
X90748Y36575D02*
X91102Y36220D01*
X96850D01*
X79921Y31496D02*
X90669D01*
X90748Y31575D01*
X97133Y27276D02*
X98819Y25591D01*
X97133Y27276D02*
Y27674D01*
X95673Y29134D02*
X97133Y27674D01*
X81596Y27453D02*
X83277Y29134D01*
X95673D01*
X131799Y19200D02*
Y37008D01*
X129921Y40551D02*
X131496Y42126D01*
X129921Y19784D02*
Y40551D01*
X124606Y12008D02*
X131799Y19200D01*
X123432Y13295D02*
X129921Y19784D01*
X77953Y12992D02*
X78272D01*
X79257Y12008D01*
X124606D01*
X104331Y44882D02*
X107874D01*
X99213Y39764D02*
X104331Y44882D01*
X28740Y48532D02*
X30995Y50787D01*
X28740Y44882D02*
Y48532D01*
D22*
X106102Y36575D02*
D03*
X90748D02*
D03*
X106102Y31575D02*
D03*
Y26575D02*
D03*
Y21575D02*
D03*
Y16575D02*
D03*
X90748Y31575D02*
D03*
Y26575D02*
D03*
Y21575D02*
D03*
Y16575D02*
D03*
D45*
X142520Y48819D02*
D03*
X28740Y3937D02*
D03*
X9892Y49213D02*
D03*
D47*
X115354Y40551D02*
X116142Y41339D01*
X110630Y40551D02*
X115354D01*
X106102Y36575D02*
X109331D01*
X109843Y37087D01*
Y39764D01*
X110630Y40551D01*
D50*
X20472Y9547D02*
D03*
Y43602D02*
D03*
D51*
X24331Y14862D02*
D03*
Y18209D02*
D03*
Y21555D02*
D03*
Y24902D02*
D03*
Y28248D02*
D03*
Y31594D02*
D03*
Y34941D02*
D03*
Y38287D02*
D03*
X19016Y14862D02*
D03*
Y18209D02*
D03*
Y21555D02*
D03*
Y24902D02*
D03*
Y28248D02*
D03*
Y31594D02*
D03*
Y34941D02*
D03*
Y38287D02*
D03*
D52*
X7165Y9547D02*
D03*
Y43602D02*
D03*
D53*
X69488Y13780D02*
D03*
X11811Y19685D02*
D03*
Y27559D02*
D03*
Y35433D02*
D03*
X19685Y49213D02*
D03*
X25591D02*
D03*
X98425Y19685D02*
D03*
X82677Y35433D02*
D03*
X62992Y19685D02*
D03*
X51181Y11811D02*
D03*
X3937Y19685D02*
D03*
Y27559D02*
D03*
Y35433D02*
D03*
X7874Y39370D02*
D03*
Y31496D02*
D03*
Y23622D02*
D03*
Y15748D02*
D03*
X35433Y27559D02*
D03*
X31496Y39370D02*
D03*
X66929Y43307D02*
D03*
X114173Y3937D02*
D03*
X102362D02*
D03*
X74803D02*
D03*
X66929D02*
D03*
X59055D02*
D03*
X43307D02*
D03*
X35433D02*
D03*
X15748D02*
D03*
X7874D02*
D03*
X71752Y5512D02*
D03*
X63779Y36713D02*
D03*
X57874Y40158D02*
D03*
X33465Y32677D02*
D03*
X84252Y14697D02*
D03*
X110630Y40551D02*
D03*
X42126Y44882D02*
D03*
X51272Y28740D02*
D03*
X62598Y44882D02*
D03*
X97244Y50787D02*
D03*
X85058Y47622D02*
D03*
X82677Y25591D02*
D03*
X83858Y22441D02*
D03*
X127953Y27165D02*
D03*
X96850Y36220D02*
D03*
X98032Y31496D02*
D03*
X99213Y28740D02*
D03*
X98819Y25591D02*
D03*
X131799Y37008D02*
D03*
X77953Y12992D02*
D03*
X108268Y4331D02*
D03*
X131496Y42126D02*
D03*
X107874Y44882D02*
D03*
X116929Y18504D02*
D03*
X93701Y50787D02*
D03*
X90158D02*
D03*
X57087Y44882D02*
D03*
X28740D02*
D03*
X32283D02*
D03*
X47244D02*
D03*
X68898Y19685D02*
D03*
X43701Y36614D02*
D03*
X40157D02*
D03*
X134646Y48425D02*
D03*
X51272Y26075D02*
D03*
D54*
X116142Y41339D02*
D03*
Y31496D02*
D03*
X79134Y41339D02*
D03*
Y31496D02*
D03*
Y19685D02*
D03*
M02*
