G04*
G04 #@! TF.GenerationSoftware,Altium Limited,Altium Designer,20.2.6 (244)*
G04*
G04 Layer_Color=32896*
%FSLAX25Y25*%
%MOIN*%
G70*
G04*
G04 #@! TF.SameCoordinates,1F00D8FF-E811-4F8C-9FFC-250B1BB78CBF*
G04*
G04*
G04 #@! TF.FilePolarity,Positive*
G04*
G01*
G75*
%ADD11C,0.01000*%
G36*
X121821Y32524D02*
X121843Y32517D01*
X121858Y32506D01*
X121861Y32502D01*
X121872Y32481D01*
X121879Y32452D01*
X121883Y32430D01*
Y32426D01*
Y32422D01*
Y31596D01*
X121879Y31560D01*
X121872Y31534D01*
X121869Y31520D01*
X121865Y31516D01*
X121847Y31505D01*
X121828Y31498D01*
X121810Y31494D01*
X121803D01*
X121759Y31498D01*
X121716Y31501D01*
X121701D01*
X121686Y31505D01*
X121676D01*
X121621Y31512D01*
X121566Y31516D01*
X121465D01*
X121417Y31512D01*
X121377Y31509D01*
X121344Y31505D01*
X121315Y31498D01*
X121297Y31494D01*
X121282Y31491D01*
X121279D01*
X121242Y31480D01*
X121213Y31469D01*
X121184Y31454D01*
X121162Y31443D01*
X121144Y31432D01*
X121130Y31421D01*
X121122Y31418D01*
X121119Y31414D01*
X121075Y31374D01*
X121046Y31334D01*
X121035Y31316D01*
X121028Y31305D01*
X121024Y31294D01*
Y31290D01*
X121006Y31232D01*
X120995Y31178D01*
X120991Y31156D01*
Y31137D01*
Y31123D01*
Y31119D01*
Y31079D01*
X120999Y31039D01*
X121002Y31007D01*
X121010Y30977D01*
X121017Y30955D01*
X121020Y30937D01*
X121028Y30926D01*
Y30923D01*
X121060Y30868D01*
X121075Y30846D01*
X121093Y30825D01*
X121108Y30810D01*
X121119Y30799D01*
X121126Y30792D01*
X121130Y30788D01*
X121181Y30752D01*
X121228Y30726D01*
X121250Y30719D01*
X121268Y30712D01*
X121279Y30708D01*
X121282D01*
X121348Y30697D01*
X121381Y30690D01*
X121410D01*
X121439Y30686D01*
X121515D01*
X121552Y30690D01*
X121588Y30693D01*
X121617Y30697D01*
X121639D01*
X121657Y30701D01*
X121668Y30704D01*
X121672D01*
X121727Y30719D01*
X121752Y30726D01*
X121770Y30733D01*
X121788Y30741D01*
X121799Y30744D01*
X121807Y30748D01*
X121810D01*
X121847Y30766D01*
X121876Y30781D01*
X121890Y30788D01*
X121898Y30792D01*
X121920Y30806D01*
X121934Y30810D01*
X121941Y30814D01*
X121945D01*
X121959Y30810D01*
X121963Y30806D01*
X121967D01*
X121978Y30792D01*
X121981Y30788D01*
Y30784D01*
X121985Y30773D01*
Y30763D01*
X121989Y30755D01*
Y30752D01*
Y30733D01*
Y30719D01*
Y30708D01*
Y30704D01*
Y30683D01*
Y30668D01*
Y30657D01*
Y30653D01*
X121985Y30632D01*
Y30624D01*
Y30621D01*
X121978Y30602D01*
X121974Y30599D01*
Y30595D01*
X121967Y30584D01*
X121959Y30581D01*
Y30577D01*
X121945Y30570D01*
X121927Y30559D01*
X121912Y30551D01*
X121905Y30548D01*
X121869Y30533D01*
X121832Y30522D01*
X121818Y30519D01*
X121807Y30515D01*
X121799Y30511D01*
X121796D01*
X121745Y30501D01*
X121697Y30490D01*
X121676Y30486D01*
X121661Y30482D01*
X121650Y30479D01*
X121646D01*
X121581Y30471D01*
X121552Y30468D01*
X121523D01*
X121497Y30464D01*
X121465D01*
X121403Y30468D01*
X121344Y30471D01*
X121293Y30479D01*
X121250Y30486D01*
X121210Y30493D01*
X121184Y30501D01*
X121166Y30508D01*
X121159D01*
X121108Y30526D01*
X121060Y30548D01*
X121020Y30570D01*
X120984Y30591D01*
X120958Y30610D01*
X120937Y30624D01*
X120922Y30635D01*
X120919Y30639D01*
X120882Y30672D01*
X120849Y30708D01*
X120824Y30744D01*
X120802Y30781D01*
X120784Y30810D01*
X120773Y30832D01*
X120766Y30846D01*
X120762Y30854D01*
X120744Y30905D01*
X120729Y30952D01*
X120718Y31003D01*
X120711Y31047D01*
X120707Y31087D01*
X120704Y31116D01*
Y31137D01*
Y31145D01*
Y31192D01*
X120711Y31239D01*
X120718Y31280D01*
X120726Y31316D01*
X120733Y31345D01*
X120740Y31367D01*
X120744Y31381D01*
X120747Y31385D01*
X120766Y31425D01*
X120784Y31462D01*
X120806Y31491D01*
X120827Y31520D01*
X120846Y31542D01*
X120860Y31556D01*
X120871Y31567D01*
X120875Y31571D01*
X120908Y31596D01*
X120944Y31622D01*
X120977Y31640D01*
X121013Y31658D01*
X121042Y31669D01*
X121064Y31680D01*
X121079Y31687D01*
X121086D01*
X121133Y31702D01*
X121184Y31713D01*
X121235Y31720D01*
X121279Y31727D01*
X121319D01*
X121352Y31731D01*
X121472D01*
X121486Y31727D01*
X121548D01*
X121581Y31724D01*
X121596Y31720D01*
X121606D01*
X121610Y31716D01*
X121614D01*
Y32291D01*
X120889D01*
X120871Y32295D01*
X120860Y32306D01*
X120853Y32317D01*
X120849Y32320D01*
X120838Y32350D01*
X120835Y32375D01*
X120831Y32401D01*
Y32404D01*
Y32408D01*
Y32430D01*
X120835Y32448D01*
X120838Y32459D01*
Y32462D01*
X120842Y32477D01*
X120846Y32488D01*
X120849Y32495D01*
Y32499D01*
X120860Y32517D01*
X120864Y32521D01*
X120868D01*
X120886Y32528D01*
X121792D01*
X121821Y32524D01*
D02*
G37*
G36*
X125323D02*
X125327Y32521D01*
X125330D01*
X125345Y32506D01*
X125348Y32502D01*
Y32499D01*
X125352Y32477D01*
X125356Y32466D01*
Y32462D01*
X125359Y32444D01*
Y32430D01*
Y32415D01*
Y32412D01*
Y32390D01*
X125356Y32372D01*
Y32361D01*
Y32357D01*
X125352Y32342D01*
Y32331D01*
X125348Y32324D01*
Y32320D01*
X125337Y32306D01*
X125330Y32302D01*
X125316Y32299D01*
X124733D01*
Y30530D01*
X124730Y30515D01*
Y30511D01*
Y30508D01*
X124715Y30501D01*
X124711Y30497D01*
X124708D01*
X124679Y30493D01*
X124668Y30490D01*
X124664D01*
X124642Y30486D01*
X124620Y30482D01*
X124573D01*
X124555Y30486D01*
X124540Y30490D01*
X124537D01*
X124518Y30493D01*
X124507D01*
X124500Y30497D01*
X124497D01*
X124486Y30501D01*
X124478Y30504D01*
X124471Y30508D01*
X124464Y30522D01*
Y30530D01*
Y32299D01*
X123892D01*
X123878Y32302D01*
X123871D01*
X123856Y32313D01*
X123852Y32320D01*
X123845Y32346D01*
X123841Y32353D01*
Y32357D01*
X123838Y32375D01*
Y32393D01*
Y32408D01*
Y32412D01*
Y32433D01*
Y32448D01*
X123841Y32459D01*
Y32462D01*
X123845Y32477D01*
X123849Y32488D01*
X123852Y32495D01*
Y32499D01*
X123863Y32517D01*
X123867Y32521D01*
X123871D01*
X123885Y32528D01*
X125308D01*
X125323Y32524D01*
D02*
G37*
G36*
X123467D02*
X123488Y32513D01*
X123503Y32502D01*
X123510Y32499D01*
X123528Y32473D01*
X123539Y32444D01*
X123543Y32422D01*
Y32415D01*
Y32412D01*
Y30530D01*
X123539Y30515D01*
Y30511D01*
Y30508D01*
X123525Y30501D01*
X123521Y30497D01*
X123517D01*
X123488Y30493D01*
X123477Y30490D01*
X123474D01*
X123452Y30486D01*
X123430Y30482D01*
X123383D01*
X123365Y30486D01*
X123350Y30490D01*
X123346D01*
X123328Y30493D01*
X123317D01*
X123310Y30497D01*
X123306D01*
X123295Y30501D01*
X123288Y30504D01*
X123281Y30508D01*
X123274Y30522D01*
Y30530D01*
Y31265D01*
X123044D01*
X122975Y31269D01*
X122913Y31272D01*
X122859Y31280D01*
X122811Y31287D01*
X122771Y31294D01*
X122746Y31301D01*
X122728Y31309D01*
X122720D01*
X122669Y31327D01*
X122626Y31349D01*
X122586Y31370D01*
X122553Y31392D01*
X122524Y31414D01*
X122505Y31429D01*
X122491Y31440D01*
X122487Y31443D01*
X122455Y31476D01*
X122425Y31512D01*
X122400Y31549D01*
X122378Y31582D01*
X122364Y31611D01*
X122353Y31633D01*
X122345Y31651D01*
X122342Y31654D01*
X122324Y31702D01*
X122313Y31749D01*
X122302Y31796D01*
X122298Y31840D01*
X122294Y31876D01*
X122291Y31906D01*
Y31924D01*
Y31931D01*
X122294Y32011D01*
X122302Y32048D01*
X122305Y32077D01*
X122313Y32102D01*
X122320Y32120D01*
X122324Y32135D01*
Y32138D01*
X122353Y32204D01*
X122367Y32233D01*
X122382Y32259D01*
X122396Y32277D01*
X122407Y32295D01*
X122415Y32302D01*
X122418Y32306D01*
X122466Y32357D01*
X122513Y32397D01*
X122535Y32412D01*
X122549Y32422D01*
X122560Y32426D01*
X122564Y32430D01*
X122626Y32462D01*
X122655Y32473D01*
X122680Y32481D01*
X122698Y32488D01*
X122717Y32492D01*
X122728Y32495D01*
X122731D01*
X122789Y32506D01*
X122815Y32510D01*
X122837Y32513D01*
X122851Y32517D01*
X122866Y32521D01*
X122877D01*
X122921Y32524D01*
X122960Y32528D01*
X123437D01*
X123467Y32524D01*
D02*
G37*
G36*
X74780Y20305D02*
X74783Y20301D01*
X74787D01*
X74801Y20287D01*
X74805Y20283D01*
Y20280D01*
X74809Y20258D01*
X74812Y20247D01*
Y20243D01*
X74816Y20225D01*
Y20210D01*
Y20196D01*
Y20192D01*
Y20170D01*
X74812Y20152D01*
Y20141D01*
Y20138D01*
X74809Y20123D01*
Y20112D01*
X74805Y20105D01*
Y20101D01*
X74794Y20087D01*
X74787Y20083D01*
X74772Y20079D01*
X74190D01*
Y18310D01*
X74186Y18296D01*
Y18292D01*
Y18289D01*
X74172Y18281D01*
X74168Y18278D01*
X74164D01*
X74135Y18274D01*
X74124Y18270D01*
X74121D01*
X74099Y18267D01*
X74077Y18263D01*
X74030D01*
X74012Y18267D01*
X73997Y18270D01*
X73993D01*
X73975Y18274D01*
X73964D01*
X73957Y18278D01*
X73953D01*
X73942Y18281D01*
X73935Y18285D01*
X73928Y18289D01*
X73921Y18303D01*
Y18310D01*
Y20079D01*
X73349D01*
X73335Y20083D01*
X73327D01*
X73313Y20094D01*
X73309Y20101D01*
X73302Y20127D01*
X73298Y20134D01*
Y20138D01*
X73295Y20156D01*
Y20174D01*
Y20189D01*
Y20192D01*
Y20214D01*
Y20229D01*
X73298Y20240D01*
Y20243D01*
X73302Y20258D01*
X73305Y20269D01*
X73309Y20276D01*
Y20280D01*
X73320Y20298D01*
X73324Y20301D01*
X73327D01*
X73342Y20309D01*
X74765D01*
X74780Y20305D01*
D02*
G37*
G36*
X72923D02*
X72945Y20294D01*
X72960Y20283D01*
X72967Y20280D01*
X72985Y20254D01*
X72996Y20225D01*
X73000Y20203D01*
Y20196D01*
Y20192D01*
Y18310D01*
X72996Y18296D01*
Y18292D01*
Y18289D01*
X72982Y18281D01*
X72978Y18278D01*
X72974D01*
X72945Y18274D01*
X72934Y18270D01*
X72931D01*
X72909Y18267D01*
X72887Y18263D01*
X72839D01*
X72821Y18267D01*
X72807Y18270D01*
X72803D01*
X72785Y18274D01*
X72774D01*
X72767Y18278D01*
X72763D01*
X72752Y18281D01*
X72745Y18285D01*
X72738Y18289D01*
X72730Y18303D01*
Y18310D01*
Y19046D01*
X72501D01*
X72432Y19049D01*
X72370Y19053D01*
X72315Y19060D01*
X72268Y19068D01*
X72228Y19075D01*
X72202Y19082D01*
X72184Y19089D01*
X72177D01*
X72126Y19107D01*
X72082Y19129D01*
X72042Y19151D01*
X72010Y19173D01*
X71981Y19195D01*
X71962Y19209D01*
X71948Y19220D01*
X71944Y19224D01*
X71911Y19257D01*
X71882Y19293D01*
X71857Y19330D01*
X71835Y19362D01*
X71820Y19391D01*
X71809Y19413D01*
X71802Y19432D01*
X71798Y19435D01*
X71780Y19482D01*
X71769Y19530D01*
X71758Y19577D01*
X71755Y19621D01*
X71751Y19657D01*
X71747Y19686D01*
Y19704D01*
Y19712D01*
X71751Y19792D01*
X71758Y19828D01*
X71762Y19857D01*
X71769Y19883D01*
X71777Y19901D01*
X71780Y19916D01*
Y19919D01*
X71809Y19985D01*
X71824Y20014D01*
X71838Y20039D01*
X71853Y20058D01*
X71864Y20076D01*
X71871Y20083D01*
X71875Y20087D01*
X71922Y20138D01*
X71970Y20178D01*
X71991Y20192D01*
X72006Y20203D01*
X72017Y20207D01*
X72021Y20210D01*
X72082Y20243D01*
X72111Y20254D01*
X72137Y20261D01*
X72155Y20269D01*
X72173Y20272D01*
X72184Y20276D01*
X72188D01*
X72246Y20287D01*
X72272Y20290D01*
X72294Y20294D01*
X72308Y20298D01*
X72323Y20301D01*
X72334D01*
X72377Y20305D01*
X72417Y20309D01*
X72894D01*
X72923Y20305D01*
D02*
G37*
G36*
X70637Y20316D02*
X70645D01*
X70666Y20312D01*
X70685Y20309D01*
X70699Y20305D01*
X70703D01*
X70717Y20301D01*
X70732Y20298D01*
X70739Y20294D01*
X70743Y20290D01*
X70757Y20276D01*
X70765Y20272D01*
Y20269D01*
X71493Y19031D01*
X71500Y19016D01*
X71507Y19002D01*
X71511Y18995D01*
Y18991D01*
X71522Y18966D01*
X71526Y18955D01*
Y18951D01*
X71529Y18922D01*
Y18911D01*
Y18907D01*
Y18889D01*
Y18875D01*
Y18860D01*
Y18856D01*
Y18831D01*
X71526Y18813D01*
Y18798D01*
Y18794D01*
X71522Y18780D01*
X71518Y18769D01*
X71515Y18762D01*
Y18758D01*
X71500Y18747D01*
X71493Y18744D01*
X71471Y18740D01*
X70623D01*
Y18310D01*
X70619Y18296D01*
Y18289D01*
X70605Y18278D01*
X70601Y18274D01*
X70597D01*
X70586Y18270D01*
X70572D01*
X70561Y18267D01*
X70557D01*
X70535Y18263D01*
X70466D01*
X70444Y18267D01*
X70426D01*
X70408Y18270D01*
X70397D01*
X70390Y18274D01*
X70386D01*
X70375Y18281D01*
X70368Y18285D01*
X70361Y18289D01*
X70353Y18303D01*
Y18307D01*
Y18310D01*
Y18740D01*
X70124D01*
X70106Y18744D01*
X70095Y18754D01*
X70088Y18765D01*
X70084Y18769D01*
X70073Y18794D01*
X70069Y18820D01*
X70066Y18842D01*
Y18845D01*
Y18849D01*
X70069Y18886D01*
X70073Y18911D01*
X70080Y18929D01*
X70084Y18933D01*
X70095Y18951D01*
X70109Y18958D01*
X70120Y18962D01*
X70353D01*
Y20261D01*
X70357Y20272D01*
X70361Y20280D01*
X70364Y20287D01*
X70368D01*
X70379Y20294D01*
X70393Y20298D01*
X70404Y20301D01*
X70408D01*
X70426Y20305D01*
X70448Y20309D01*
X70463Y20312D01*
X70470D01*
X70499Y20316D01*
X70528Y20320D01*
X70619D01*
X70637Y20316D01*
D02*
G37*
G36*
X70852Y32539D02*
X70885Y32535D01*
X70910Y32532D01*
X70936Y32528D01*
X70954Y32524D01*
X70965Y32521D01*
X70969D01*
X71030Y32506D01*
X71056Y32499D01*
X71078Y32492D01*
X71096Y32484D01*
X71110Y32477D01*
X71118Y32473D01*
X71121D01*
X71165Y32455D01*
X71201Y32437D01*
X71216Y32430D01*
X71227Y32423D01*
X71231Y32419D01*
X71234D01*
X71263Y32401D01*
X71282Y32386D01*
X71293Y32379D01*
X71296Y32375D01*
X71311Y32357D01*
X71318Y32353D01*
Y32350D01*
X71325Y32331D01*
X71329Y32328D01*
Y32324D01*
X71333Y32306D01*
Y32299D01*
Y32295D01*
Y32266D01*
Y32255D01*
Y32251D01*
Y32230D01*
Y32211D01*
Y32200D01*
Y32197D01*
X71329Y32182D01*
Y32171D01*
X71325Y32168D01*
Y32164D01*
X71314Y32153D01*
X71311Y32149D01*
X71296Y32146D01*
X71289D01*
X71274Y32149D01*
X71256Y32160D01*
X71245Y32168D01*
X71238Y32171D01*
X71205Y32193D01*
X71172Y32211D01*
X71162Y32219D01*
X71151Y32226D01*
X71143Y32230D01*
X71140D01*
X71092Y32251D01*
X71049Y32273D01*
X71030Y32280D01*
X71016Y32288D01*
X71005Y32291D01*
X71001D01*
X70943Y32310D01*
X70892Y32317D01*
X70870Y32320D01*
X70837D01*
X70779Y32317D01*
X70754Y32313D01*
X70732Y32310D01*
X70717Y32302D01*
X70703Y32299D01*
X70696Y32295D01*
X70692D01*
X70648Y32273D01*
X70616Y32251D01*
X70594Y32233D01*
X70586Y32230D01*
Y32226D01*
X70561Y32193D01*
X70539Y32160D01*
X70532Y32149D01*
X70528Y32138D01*
X70525Y32131D01*
Y32128D01*
X70510Y32084D01*
X70506Y32048D01*
X70503Y32029D01*
Y32018D01*
Y32011D01*
Y32008D01*
X70506Y31946D01*
X70514Y31920D01*
X70517Y31898D01*
X70525Y31877D01*
X70532Y31862D01*
X70535Y31855D01*
Y31851D01*
X70561Y31804D01*
X70590Y31764D01*
X70601Y31749D01*
X70612Y31742D01*
X70619Y31734D01*
X70623Y31731D01*
X70670Y31698D01*
X70714Y31673D01*
X70736Y31665D01*
X70750Y31658D01*
X70761Y31654D01*
X70765D01*
X70827Y31640D01*
X70856Y31636D01*
X70885Y31633D01*
X70910Y31629D01*
X71121D01*
X71140Y31625D01*
X71143Y31622D01*
X71147D01*
X71162Y31611D01*
X71165Y31607D01*
X71169Y31604D01*
X71172Y31593D01*
X71176Y31582D01*
X71180Y31574D01*
Y31571D01*
X71183Y31556D01*
Y31542D01*
Y31527D01*
Y31523D01*
Y31501D01*
X71180Y31483D01*
Y31472D01*
Y31469D01*
X71172Y31454D01*
X71169Y31443D01*
X71165Y31440D01*
Y31436D01*
X71151Y31422D01*
X71143Y31418D01*
X71125Y31414D01*
X70874D01*
X70834Y31411D01*
X70794Y31407D01*
X70761Y31400D01*
X70736Y31396D01*
X70717Y31389D01*
X70703Y31385D01*
X70699D01*
X70663Y31374D01*
X70634Y31363D01*
X70605Y31349D01*
X70579Y31338D01*
X70561Y31327D01*
X70546Y31316D01*
X70539Y31312D01*
X70535Y31309D01*
X70488Y31269D01*
X70455Y31229D01*
X70444Y31214D01*
X70437Y31199D01*
X70430Y31192D01*
Y31188D01*
X70408Y31134D01*
X70397Y31083D01*
X70393Y31065D01*
Y31047D01*
Y31036D01*
Y31032D01*
X70397Y30977D01*
X70408Y30930D01*
X70412Y30912D01*
X70419Y30897D01*
X70423Y30890D01*
Y30886D01*
X70448Y30839D01*
X70473Y30803D01*
X70488Y30788D01*
X70495Y30781D01*
X70503Y30773D01*
X70506Y30770D01*
X70550Y30737D01*
X70594Y30715D01*
X70612Y30708D01*
X70626Y30701D01*
X70637Y30697D01*
X70641D01*
X70703Y30683D01*
X70736Y30679D01*
X70765Y30675D01*
X70790Y30672D01*
X70827D01*
X70903Y30675D01*
X70939Y30679D01*
X70969Y30683D01*
X70990Y30686D01*
X71012Y30690D01*
X71023Y30694D01*
X71027D01*
X71089Y30712D01*
X71114Y30723D01*
X71136Y30730D01*
X71158Y30737D01*
X71172Y30744D01*
X71180Y30748D01*
X71183D01*
X71227Y30770D01*
X71263Y30788D01*
X71285Y30803D01*
X71289Y30806D01*
X71293D01*
X71322Y30821D01*
X71336Y30828D01*
X71347Y30832D01*
X71351D01*
X71362Y30828D01*
X71373Y30821D01*
X71376Y30810D01*
X71380Y30806D01*
X71387Y30784D01*
X71391Y30759D01*
Y30737D01*
Y30733D01*
Y30730D01*
Y30708D01*
Y30690D01*
Y30675D01*
Y30672D01*
X71387Y30657D01*
Y30646D01*
X71384Y30639D01*
Y30635D01*
X71376Y30617D01*
X71373Y30613D01*
Y30610D01*
X71362Y30595D01*
X71354Y30591D01*
Y30588D01*
X71340Y30577D01*
X71322Y30566D01*
X71307Y30555D01*
X71300Y30551D01*
X71260Y30533D01*
X71223Y30519D01*
X71209Y30512D01*
X71194Y30508D01*
X71187Y30504D01*
X71183D01*
X71129Y30490D01*
X71078Y30479D01*
X71060Y30475D01*
X71041Y30471D01*
X71030Y30468D01*
X71027D01*
X70958Y30457D01*
X70925Y30453D01*
X70896D01*
X70870Y30450D01*
X70834D01*
X70772Y30453D01*
X70717Y30457D01*
X70663Y30464D01*
X70619Y30471D01*
X70583Y30479D01*
X70554Y30482D01*
X70539Y30490D01*
X70532D01*
X70484Y30508D01*
X70441Y30526D01*
X70401Y30548D01*
X70368Y30570D01*
X70342Y30584D01*
X70321Y30599D01*
X70310Y30610D01*
X70306Y30613D01*
X70273Y30646D01*
X70244Y30679D01*
X70222Y30708D01*
X70204Y30741D01*
X70186Y30766D01*
X70175Y30788D01*
X70171Y30803D01*
X70168Y30806D01*
X70150Y30850D01*
X70139Y30894D01*
X70128Y30937D01*
X70124Y30977D01*
X70120Y31010D01*
X70117Y31036D01*
Y31054D01*
Y31061D01*
X70124Y31130D01*
X70128Y31159D01*
X70135Y31185D01*
X70142Y31207D01*
X70146Y31225D01*
X70153Y31236D01*
Y31240D01*
X70182Y31298D01*
X70201Y31323D01*
X70215Y31345D01*
X70230Y31360D01*
X70241Y31374D01*
X70248Y31381D01*
X70252Y31385D01*
X70302Y31429D01*
X70350Y31462D01*
X70368Y31476D01*
X70386Y31483D01*
X70397Y31491D01*
X70401D01*
X70466Y31516D01*
X70499Y31527D01*
X70528Y31534D01*
X70557Y31538D01*
X70575Y31542D01*
X70590Y31545D01*
X70594D01*
X70532Y31563D01*
X70503Y31574D01*
X70481Y31582D01*
X70459Y31593D01*
X70444Y31600D01*
X70437Y31607D01*
X70433D01*
X70382Y31644D01*
X70346Y31680D01*
X70332Y31694D01*
X70321Y31705D01*
X70317Y31713D01*
X70313Y31716D01*
X70281Y31767D01*
X70255Y31815D01*
X70248Y31833D01*
X70241Y31847D01*
X70237Y31858D01*
Y31862D01*
X70222Y31924D01*
X70219Y31956D01*
X70215Y31982D01*
X70211Y32008D01*
Y32026D01*
Y32037D01*
Y32040D01*
Y32080D01*
X70219Y32120D01*
X70222Y32153D01*
X70230Y32186D01*
X70237Y32208D01*
X70241Y32230D01*
X70248Y32241D01*
Y32244D01*
X70281Y32306D01*
X70299Y32335D01*
X70317Y32357D01*
X70332Y32375D01*
X70346Y32390D01*
X70353Y32397D01*
X70357Y32401D01*
X70386Y32426D01*
X70415Y32448D01*
X70473Y32481D01*
X70495Y32492D01*
X70517Y32499D01*
X70532Y32506D01*
X70535D01*
X70619Y32528D01*
X70659Y32535D01*
X70696Y32539D01*
X70728Y32543D01*
X70779D01*
X70852Y32539D01*
D02*
G37*
G36*
X74729Y32510D02*
X74732Y32506D01*
X74736D01*
X74751Y32492D01*
X74754Y32488D01*
Y32484D01*
X74758Y32462D01*
X74761Y32452D01*
Y32448D01*
X74765Y32430D01*
Y32415D01*
Y32401D01*
Y32397D01*
Y32375D01*
X74761Y32357D01*
Y32346D01*
Y32342D01*
X74758Y32328D01*
Y32317D01*
X74754Y32310D01*
Y32306D01*
X74743Y32291D01*
X74736Y32288D01*
X74721Y32284D01*
X74139D01*
Y30515D01*
X74135Y30501D01*
Y30497D01*
Y30493D01*
X74121Y30486D01*
X74117Y30482D01*
X74114D01*
X74084Y30479D01*
X74073Y30475D01*
X74070D01*
X74048Y30471D01*
X74026Y30468D01*
X73979D01*
X73961Y30471D01*
X73946Y30475D01*
X73942D01*
X73924Y30479D01*
X73913D01*
X73906Y30482D01*
X73902D01*
X73892Y30486D01*
X73884Y30490D01*
X73877Y30493D01*
X73870Y30508D01*
Y30515D01*
Y32284D01*
X73298D01*
X73284Y32288D01*
X73276D01*
X73262Y32299D01*
X73258Y32306D01*
X73251Y32331D01*
X73247Y32339D01*
Y32342D01*
X73244Y32361D01*
Y32379D01*
Y32393D01*
Y32397D01*
Y32419D01*
Y32433D01*
X73247Y32444D01*
Y32448D01*
X73251Y32462D01*
X73255Y32473D01*
X73258Y32481D01*
Y32484D01*
X73269Y32502D01*
X73273Y32506D01*
X73276D01*
X73291Y32513D01*
X74714D01*
X74729Y32510D01*
D02*
G37*
G36*
X72872D02*
X72894Y32499D01*
X72909Y32488D01*
X72916Y32484D01*
X72934Y32459D01*
X72945Y32430D01*
X72949Y32408D01*
Y32401D01*
Y32397D01*
Y30515D01*
X72945Y30501D01*
Y30497D01*
Y30493D01*
X72931Y30486D01*
X72927Y30482D01*
X72923D01*
X72894Y30479D01*
X72883Y30475D01*
X72880D01*
X72858Y30471D01*
X72836Y30468D01*
X72789D01*
X72770Y30471D01*
X72756Y30475D01*
X72752D01*
X72734Y30479D01*
X72723D01*
X72716Y30482D01*
X72712D01*
X72701Y30486D01*
X72694Y30490D01*
X72687Y30493D01*
X72679Y30508D01*
Y30515D01*
Y31250D01*
X72450D01*
X72381Y31254D01*
X72319Y31258D01*
X72264Y31265D01*
X72217Y31272D01*
X72177Y31280D01*
X72152Y31287D01*
X72133Y31294D01*
X72126D01*
X72075Y31312D01*
X72031Y31334D01*
X71991Y31356D01*
X71959Y31378D01*
X71930Y31400D01*
X71911Y31414D01*
X71897Y31425D01*
X71893Y31429D01*
X71860Y31462D01*
X71831Y31498D01*
X71806Y31534D01*
X71784Y31567D01*
X71769Y31596D01*
X71758Y31618D01*
X71751Y31636D01*
X71747Y31640D01*
X71729Y31687D01*
X71718Y31734D01*
X71707Y31782D01*
X71704Y31826D01*
X71700Y31862D01*
X71697Y31891D01*
Y31909D01*
Y31916D01*
X71700Y31997D01*
X71707Y32033D01*
X71711Y32062D01*
X71718Y32088D01*
X71726Y32106D01*
X71729Y32120D01*
Y32124D01*
X71758Y32190D01*
X71773Y32219D01*
X71788Y32244D01*
X71802Y32262D01*
X71813Y32280D01*
X71820Y32288D01*
X71824Y32291D01*
X71871Y32342D01*
X71919Y32382D01*
X71940Y32397D01*
X71955Y32408D01*
X71966Y32412D01*
X71970Y32415D01*
X72031Y32448D01*
X72061Y32459D01*
X72086Y32466D01*
X72104Y32473D01*
X72122Y32477D01*
X72133Y32481D01*
X72137D01*
X72195Y32492D01*
X72221Y32495D01*
X72243Y32499D01*
X72257Y32502D01*
X72272Y32506D01*
X72283D01*
X72326Y32510D01*
X72366Y32513D01*
X72843D01*
X72872Y32510D01*
D02*
G37*
G36*
X70859Y42372D02*
X70889Y42369D01*
X70914Y42365D01*
X70936Y42361D01*
X70954Y42358D01*
X70965Y42354D01*
X70969D01*
X71027Y42340D01*
X71056Y42332D01*
X71078Y42325D01*
X71096Y42318D01*
X71110Y42311D01*
X71121Y42307D01*
X71125D01*
X71172Y42289D01*
X71209Y42270D01*
X71223Y42263D01*
X71234Y42256D01*
X71238Y42252D01*
X71242D01*
X71271Y42234D01*
X71293Y42219D01*
X71303Y42208D01*
X71307Y42205D01*
X71318Y42194D01*
X71325Y42187D01*
X71333Y42183D01*
Y42179D01*
X71340Y42161D01*
X71343Y42158D01*
Y42154D01*
X71347Y42136D01*
Y42129D01*
Y42125D01*
Y42099D01*
Y42088D01*
Y42085D01*
Y42063D01*
Y42045D01*
Y42030D01*
Y42026D01*
X71343Y42012D01*
Y42001D01*
X71340Y41994D01*
Y41990D01*
X71329Y41976D01*
X71325Y41968D01*
X71311Y41965D01*
X71303D01*
X71285Y41968D01*
X71263Y41979D01*
X71249Y41987D01*
X71242Y41990D01*
X71209Y42008D01*
X71176Y42030D01*
X71165Y42037D01*
X71154Y42045D01*
X71147Y42048D01*
X71143D01*
X71096Y42070D01*
X71052Y42088D01*
X71034Y42096D01*
X71020Y42103D01*
X71009Y42107D01*
X71005D01*
X70943Y42125D01*
X70914Y42129D01*
X70885Y42132D01*
X70863Y42136D01*
X70827D01*
X70768Y42132D01*
X70743Y42129D01*
X70721Y42121D01*
X70703Y42118D01*
X70688Y42110D01*
X70681Y42107D01*
X70677D01*
X70634Y42085D01*
X70597Y42059D01*
X70575Y42041D01*
X70572Y42037D01*
X70568Y42034D01*
X70539Y41997D01*
X70517Y41965D01*
X70510Y41950D01*
X70506Y41939D01*
X70503Y41932D01*
Y41928D01*
X70488Y41885D01*
X70481Y41844D01*
X70477Y41826D01*
Y41812D01*
Y41805D01*
Y41801D01*
X70481Y41750D01*
X70484Y41703D01*
X70488Y41684D01*
X70492Y41670D01*
X70495Y41659D01*
Y41655D01*
X70510Y41597D01*
X70532Y41542D01*
X70543Y41517D01*
X70550Y41499D01*
X70554Y41488D01*
X70557Y41484D01*
X70575Y41448D01*
X70597Y41411D01*
X70619Y41375D01*
X70637Y41342D01*
X70659Y41317D01*
X70674Y41291D01*
X70685Y41277D01*
X70688Y41273D01*
X70721Y41229D01*
X70757Y41186D01*
X70797Y41142D01*
X70834Y41102D01*
X70863Y41069D01*
X70892Y41044D01*
X70907Y41026D01*
X70914Y41018D01*
X71322Y40600D01*
X71333Y40585D01*
X71343Y40571D01*
X71351Y40563D01*
X71354Y40560D01*
X71369Y40534D01*
X71373Y40527D01*
Y40523D01*
X71380Y40498D01*
X71384Y40487D01*
Y40483D01*
Y40465D01*
Y40447D01*
Y40436D01*
Y40429D01*
Y40403D01*
X71380Y40385D01*
Y40370D01*
Y40367D01*
X71373Y40352D01*
X71369Y40341D01*
X71362Y40338D01*
Y40334D01*
X71343Y40319D01*
X71340Y40316D01*
X71336D01*
X71311Y40312D01*
X70171D01*
X70153Y40316D01*
X70146D01*
X70131Y40330D01*
X70128Y40334D01*
Y40338D01*
X70120Y40363D01*
X70117Y40374D01*
Y40378D01*
X70113Y40396D01*
X70109Y40410D01*
Y40421D01*
Y40425D01*
Y40447D01*
X70113Y40461D01*
X70117Y40472D01*
Y40476D01*
X70120Y40490D01*
X70124Y40501D01*
X70128Y40509D01*
Y40512D01*
X70142Y40530D01*
X70146Y40534D01*
X70150D01*
X70164Y40541D01*
X71056D01*
X70736Y40876D01*
X70674Y40942D01*
X70619Y41000D01*
X70572Y41055D01*
X70528Y41102D01*
X70499Y41138D01*
X70473Y41168D01*
X70459Y41186D01*
X70455Y41193D01*
X70419Y41244D01*
X70386Y41291D01*
X70357Y41331D01*
X70335Y41368D01*
X70317Y41401D01*
X70306Y41422D01*
X70299Y41437D01*
X70295Y41440D01*
X70273Y41480D01*
X70259Y41521D01*
X70244Y41557D01*
X70233Y41590D01*
X70226Y41615D01*
X70222Y41633D01*
X70219Y41648D01*
Y41652D01*
X70208Y41724D01*
X70204Y41757D01*
Y41786D01*
X70201Y41808D01*
Y41830D01*
Y41841D01*
Y41844D01*
X70208Y41921D01*
X70211Y41957D01*
X70219Y41987D01*
X70226Y42012D01*
X70230Y42034D01*
X70237Y42045D01*
Y42048D01*
X70252Y42085D01*
X70270Y42118D01*
X70288Y42147D01*
X70306Y42172D01*
X70324Y42190D01*
X70339Y42205D01*
X70346Y42216D01*
X70350Y42219D01*
X70379Y42245D01*
X70408Y42267D01*
X70470Y42303D01*
X70495Y42314D01*
X70517Y42325D01*
X70532Y42332D01*
X70535D01*
X70579Y42347D01*
X70623Y42358D01*
X70666Y42365D01*
X70706Y42372D01*
X70739D01*
X70768Y42376D01*
X70794D01*
X70859Y42372D01*
D02*
G37*
G36*
X74736Y42343D02*
X74740Y42340D01*
X74743D01*
X74758Y42325D01*
X74761Y42321D01*
Y42318D01*
X74765Y42296D01*
X74769Y42285D01*
Y42281D01*
X74772Y42263D01*
Y42249D01*
Y42234D01*
Y42230D01*
Y42208D01*
X74769Y42190D01*
Y42179D01*
Y42176D01*
X74765Y42161D01*
Y42150D01*
X74761Y42143D01*
Y42139D01*
X74751Y42125D01*
X74743Y42121D01*
X74729Y42118D01*
X74146D01*
Y40349D01*
X74143Y40334D01*
Y40330D01*
Y40327D01*
X74128Y40319D01*
X74124Y40316D01*
X74121D01*
X74092Y40312D01*
X74081Y40308D01*
X74077D01*
X74055Y40305D01*
X74033Y40301D01*
X73986D01*
X73968Y40305D01*
X73953Y40308D01*
X73950D01*
X73931Y40312D01*
X73921D01*
X73913Y40316D01*
X73910D01*
X73899Y40319D01*
X73892Y40323D01*
X73884Y40327D01*
X73877Y40341D01*
Y40349D01*
Y42118D01*
X73305D01*
X73291Y42121D01*
X73284D01*
X73269Y42132D01*
X73265Y42139D01*
X73258Y42165D01*
X73255Y42172D01*
Y42176D01*
X73251Y42194D01*
Y42212D01*
Y42227D01*
Y42230D01*
Y42252D01*
Y42267D01*
X73255Y42278D01*
Y42281D01*
X73258Y42296D01*
X73262Y42307D01*
X73265Y42314D01*
Y42318D01*
X73276Y42336D01*
X73280Y42340D01*
X73284D01*
X73298Y42347D01*
X74721D01*
X74736Y42343D01*
D02*
G37*
G36*
X72880D02*
X72901Y42332D01*
X72916Y42321D01*
X72923Y42318D01*
X72941Y42292D01*
X72952Y42263D01*
X72956Y42241D01*
Y42234D01*
Y42230D01*
Y40349D01*
X72952Y40334D01*
Y40330D01*
Y40327D01*
X72938Y40319D01*
X72934Y40316D01*
X72931D01*
X72901Y40312D01*
X72891Y40308D01*
X72887D01*
X72865Y40305D01*
X72843Y40301D01*
X72796D01*
X72778Y40305D01*
X72763Y40308D01*
X72759D01*
X72741Y40312D01*
X72730D01*
X72723Y40316D01*
X72719D01*
X72708Y40319D01*
X72701Y40323D01*
X72694Y40327D01*
X72687Y40341D01*
Y40349D01*
Y41084D01*
X72457D01*
X72388Y41087D01*
X72326Y41091D01*
X72272Y41098D01*
X72224Y41106D01*
X72184Y41113D01*
X72159Y41120D01*
X72141Y41127D01*
X72133D01*
X72082Y41146D01*
X72039Y41168D01*
X71999Y41189D01*
X71966Y41211D01*
X71937Y41233D01*
X71919Y41248D01*
X71904Y41258D01*
X71900Y41262D01*
X71868Y41295D01*
X71838Y41331D01*
X71813Y41368D01*
X71791Y41401D01*
X71777Y41430D01*
X71766Y41451D01*
X71758Y41470D01*
X71755Y41473D01*
X71737Y41521D01*
X71726Y41568D01*
X71715Y41615D01*
X71711Y41659D01*
X71707Y41695D01*
X71704Y41724D01*
Y41743D01*
Y41750D01*
X71707Y41830D01*
X71715Y41866D01*
X71718Y41895D01*
X71726Y41921D01*
X71733Y41939D01*
X71737Y41954D01*
Y41957D01*
X71766Y42023D01*
X71780Y42052D01*
X71795Y42077D01*
X71809Y42096D01*
X71820Y42114D01*
X71828Y42121D01*
X71831Y42125D01*
X71879Y42176D01*
X71926Y42216D01*
X71948Y42230D01*
X71962Y42241D01*
X71973Y42245D01*
X71977Y42249D01*
X72039Y42281D01*
X72068Y42292D01*
X72093Y42300D01*
X72111Y42307D01*
X72130Y42311D01*
X72141Y42314D01*
X72144D01*
X72202Y42325D01*
X72228Y42329D01*
X72250Y42332D01*
X72264Y42336D01*
X72279Y42340D01*
X72290D01*
X72334Y42343D01*
X72374Y42347D01*
X72850D01*
X72880Y42343D01*
D02*
G37*
G36*
X121293Y42365D02*
X121319D01*
X121326Y42361D01*
X121330D01*
X121348Y42358D01*
X121352Y42354D01*
X121355D01*
X121366Y42351D01*
X121370Y42347D01*
X121836Y42048D01*
X121854Y42037D01*
X121858Y42034D01*
X121861Y42030D01*
X121869Y42016D01*
X121872Y42012D01*
Y42008D01*
X121876Y41997D01*
Y41987D01*
X121879Y41979D01*
Y41976D01*
Y41947D01*
Y41936D01*
Y41932D01*
Y41906D01*
X121876Y41888D01*
Y41874D01*
Y41870D01*
X121872Y41855D01*
X121869Y41844D01*
X121861Y41841D01*
Y41837D01*
X121850Y41830D01*
X121832D01*
X121818Y41834D01*
X121803Y41841D01*
X121788Y41848D01*
X121785Y41852D01*
X121392Y42085D01*
Y40538D01*
X121818D01*
X121832Y40534D01*
X121836Y40530D01*
X121839D01*
X121854Y40516D01*
X121858Y40512D01*
Y40509D01*
X121865Y40487D01*
X121869Y40476D01*
Y40472D01*
X121872Y40458D01*
Y40443D01*
Y40429D01*
Y40425D01*
Y40403D01*
X121869Y40389D01*
Y40378D01*
Y40374D01*
X121861Y40352D01*
X121858Y40345D01*
Y40341D01*
X121843Y40327D01*
X121839Y40323D01*
X121825Y40319D01*
X120755D01*
X120740Y40323D01*
X120733D01*
X120718Y40334D01*
X120715Y40341D01*
X120707Y40363D01*
X120704Y40370D01*
Y40374D01*
X120700Y40392D01*
X120696Y40407D01*
Y40421D01*
Y40425D01*
Y40443D01*
X120700Y40461D01*
X120704Y40469D01*
Y40472D01*
X120707Y40487D01*
X120711Y40498D01*
X120715Y40505D01*
Y40509D01*
X120726Y40527D01*
X120729Y40530D01*
X120733D01*
X120747Y40538D01*
X121122D01*
Y42321D01*
X121126Y42336D01*
X121130Y42340D01*
X121133Y42347D01*
X121141Y42351D01*
X121144Y42354D01*
X121148D01*
X121159Y42358D01*
X121173Y42361D01*
X121184Y42365D01*
X121188D01*
X121210Y42369D01*
X121282D01*
X121293Y42365D01*
D02*
G37*
G36*
X125330Y42351D02*
X125334Y42347D01*
X125337D01*
X125352Y42332D01*
X125356Y42329D01*
Y42325D01*
X125359Y42303D01*
X125363Y42292D01*
Y42289D01*
X125367Y42270D01*
Y42256D01*
Y42241D01*
Y42238D01*
Y42216D01*
X125363Y42198D01*
Y42187D01*
Y42183D01*
X125359Y42169D01*
Y42158D01*
X125356Y42150D01*
Y42147D01*
X125345Y42132D01*
X125337Y42129D01*
X125323Y42125D01*
X124741D01*
Y40356D01*
X124737Y40341D01*
Y40338D01*
Y40334D01*
X124722Y40327D01*
X124719Y40323D01*
X124715D01*
X124686Y40319D01*
X124675Y40316D01*
X124671D01*
X124650Y40312D01*
X124628Y40308D01*
X124580D01*
X124562Y40312D01*
X124548Y40316D01*
X124544D01*
X124526Y40319D01*
X124515D01*
X124507Y40323D01*
X124504D01*
X124493Y40327D01*
X124486Y40330D01*
X124478Y40334D01*
X124471Y40349D01*
Y40356D01*
Y42125D01*
X123900D01*
X123885Y42129D01*
X123878D01*
X123863Y42139D01*
X123860Y42147D01*
X123852Y42172D01*
X123849Y42179D01*
Y42183D01*
X123845Y42201D01*
Y42219D01*
Y42234D01*
Y42238D01*
Y42259D01*
Y42274D01*
X123849Y42285D01*
Y42289D01*
X123852Y42303D01*
X123856Y42314D01*
X123860Y42321D01*
Y42325D01*
X123871Y42343D01*
X123874Y42347D01*
X123878D01*
X123892Y42354D01*
X125316D01*
X125330Y42351D01*
D02*
G37*
G36*
X123474D02*
X123496Y42340D01*
X123510Y42329D01*
X123517Y42325D01*
X123536Y42300D01*
X123547Y42270D01*
X123550Y42249D01*
Y42241D01*
Y42238D01*
Y40356D01*
X123547Y40341D01*
Y40338D01*
Y40334D01*
X123532Y40327D01*
X123528Y40323D01*
X123525D01*
X123496Y40319D01*
X123485Y40316D01*
X123481D01*
X123459Y40312D01*
X123437Y40308D01*
X123390D01*
X123372Y40312D01*
X123357Y40316D01*
X123354D01*
X123335Y40319D01*
X123325D01*
X123317Y40323D01*
X123314D01*
X123303Y40327D01*
X123295Y40330D01*
X123288Y40334D01*
X123281Y40349D01*
Y40356D01*
Y41091D01*
X123052D01*
X122982Y41095D01*
X122921Y41098D01*
X122866Y41106D01*
X122819Y41113D01*
X122778Y41120D01*
X122753Y41127D01*
X122735Y41135D01*
X122728D01*
X122677Y41153D01*
X122633Y41175D01*
X122593Y41197D01*
X122560Y41219D01*
X122531Y41240D01*
X122513Y41255D01*
X122498Y41266D01*
X122495Y41269D01*
X122462Y41302D01*
X122433Y41339D01*
X122407Y41375D01*
X122385Y41408D01*
X122371Y41437D01*
X122360Y41459D01*
X122353Y41477D01*
X122349Y41480D01*
X122331Y41528D01*
X122320Y41575D01*
X122309Y41622D01*
X122305Y41666D01*
X122302Y41703D01*
X122298Y41732D01*
Y41750D01*
Y41757D01*
X122302Y41837D01*
X122309Y41874D01*
X122313Y41903D01*
X122320Y41928D01*
X122327Y41947D01*
X122331Y41961D01*
Y41965D01*
X122360Y42030D01*
X122374Y42059D01*
X122389Y42085D01*
X122404Y42103D01*
X122415Y42121D01*
X122422Y42129D01*
X122425Y42132D01*
X122473Y42183D01*
X122520Y42223D01*
X122542Y42238D01*
X122556Y42249D01*
X122567Y42252D01*
X122571Y42256D01*
X122633Y42289D01*
X122662Y42300D01*
X122687Y42307D01*
X122706Y42314D01*
X122724Y42318D01*
X122735Y42321D01*
X122739D01*
X122797Y42332D01*
X122822Y42336D01*
X122844Y42340D01*
X122859Y42343D01*
X122873Y42347D01*
X122884D01*
X122928Y42351D01*
X122968Y42354D01*
X123445D01*
X123474Y42351D01*
D02*
G37*
G36*
X97353Y42405D02*
X97372D01*
X97378Y42402D01*
X97380D01*
X97394Y42400D01*
X97397Y42397D01*
X97399D01*
X97408Y42394D01*
X97410Y42391D01*
X97760Y42168D01*
X97773Y42159D01*
X97776Y42157D01*
X97779Y42154D01*
X97784Y42143D01*
X97787Y42140D01*
Y42138D01*
X97790Y42129D01*
Y42121D01*
X97792Y42116D01*
Y42113D01*
Y42091D01*
Y42083D01*
Y42080D01*
Y42061D01*
X97790Y42048D01*
Y42037D01*
Y42034D01*
X97787Y42023D01*
X97784Y42015D01*
X97779Y42012D01*
Y42009D01*
X97771Y42004D01*
X97757D01*
X97746Y42006D01*
X97735Y42012D01*
X97724Y42017D01*
X97721Y42020D01*
X97427Y42195D01*
Y41035D01*
X97746D01*
X97757Y41032D01*
X97760Y41029D01*
X97762D01*
X97773Y41018D01*
X97776Y41015D01*
Y41013D01*
X97781Y40996D01*
X97784Y40988D01*
Y40986D01*
X97787Y40975D01*
Y40964D01*
Y40953D01*
Y40950D01*
Y40934D01*
X97784Y40923D01*
Y40914D01*
Y40912D01*
X97779Y40895D01*
X97776Y40890D01*
Y40887D01*
X97765Y40876D01*
X97762Y40874D01*
X97751Y40871D01*
X96949D01*
X96938Y40874D01*
X96933D01*
X96922Y40882D01*
X96919Y40887D01*
X96913Y40904D01*
X96911Y40909D01*
Y40912D01*
X96908Y40925D01*
X96905Y40936D01*
Y40947D01*
Y40950D01*
Y40964D01*
X96908Y40977D01*
X96911Y40983D01*
Y40986D01*
X96913Y40996D01*
X96916Y41005D01*
X96919Y41010D01*
Y41013D01*
X96927Y41026D01*
X96930Y41029D01*
X96933D01*
X96943Y41035D01*
X97225D01*
Y42372D01*
X97227Y42383D01*
X97230Y42386D01*
X97233Y42391D01*
X97238Y42394D01*
X97241Y42397D01*
X97244D01*
X97252Y42400D01*
X97263Y42402D01*
X97271Y42405D01*
X97274D01*
X97290Y42408D01*
X97345D01*
X97353Y42405D01*
D02*
G37*
G36*
X100116Y42413D02*
X100168Y42408D01*
X100214Y42400D01*
X100255Y42389D01*
X100290Y42378D01*
X100315Y42370D01*
X100331Y42364D01*
X100334Y42361D01*
X100337D01*
X100381Y42340D01*
X100421Y42315D01*
X100457Y42288D01*
X100490Y42263D01*
X100514Y42239D01*
X100533Y42219D01*
X100544Y42209D01*
X100550Y42203D01*
X100580Y42162D01*
X100607Y42118D01*
X100632Y42077D01*
X100651Y42037D01*
X100667Y42001D01*
X100678Y41974D01*
X100681Y41963D01*
X100683Y41955D01*
X100686Y41952D01*
Y41949D01*
X100703Y41892D01*
X100714Y41835D01*
X100722Y41777D01*
X100727Y41725D01*
X100730Y41682D01*
Y41662D01*
X100733Y41646D01*
Y41633D01*
Y41622D01*
Y41616D01*
Y41613D01*
X100730Y41545D01*
X100724Y41485D01*
X100719Y41428D01*
X100711Y41381D01*
X100703Y41340D01*
X100700Y41324D01*
X100694Y41310D01*
X100692Y41300D01*
Y41291D01*
X100689Y41289D01*
Y41286D01*
X100670Y41234D01*
X100648Y41188D01*
X100626Y41147D01*
X100607Y41114D01*
X100588Y41084D01*
X100572Y41062D01*
X100561Y41051D01*
X100558Y41046D01*
X100525Y41013D01*
X100490Y40983D01*
X100457Y40958D01*
X100424Y40936D01*
X100397Y40923D01*
X100375Y40909D01*
X100361Y40904D01*
X100356Y40901D01*
X100310Y40885D01*
X100263Y40874D01*
X100217Y40863D01*
X100176Y40857D01*
X100140Y40854D01*
X100110Y40852D01*
X100086D01*
X100026Y40854D01*
X99998Y40857D01*
X99974Y40860D01*
X99955Y40863D01*
X99941Y40865D01*
X99930Y40868D01*
X99927D01*
X99875Y40879D01*
X99854Y40885D01*
X99835Y40890D01*
X99821Y40895D01*
X99810Y40901D01*
X99802Y40904D01*
X99799D01*
X99761Y40923D01*
X99731Y40936D01*
X99720Y40945D01*
X99712Y40947D01*
X99709Y40953D01*
X99706D01*
X99682Y40969D01*
X99668Y40980D01*
X99660Y40986D01*
X99657Y40988D01*
X99649Y40996D01*
X99643Y41005D01*
X99641Y41007D01*
Y41010D01*
X99635Y41021D01*
X99632Y41026D01*
X99627Y41043D01*
Y41048D01*
Y41051D01*
X99624Y41065D01*
Y41076D01*
Y41084D01*
Y41087D01*
Y41106D01*
Y41119D01*
X99627Y41127D01*
Y41130D01*
X99630Y41144D01*
Y41152D01*
X99632Y41155D01*
Y41157D01*
X99635Y41166D01*
X99638Y41168D01*
X99641Y41171D01*
X99643D01*
X99651Y41177D01*
X99657D01*
X99671Y41174D01*
X99687Y41166D01*
X99701Y41155D01*
X99703Y41152D01*
X99706D01*
X99731Y41136D01*
X99758Y41119D01*
X99769Y41114D01*
X99777Y41108D01*
X99783Y41103D01*
X99785D01*
X99823Y41084D01*
X99859Y41067D01*
X99875Y41062D01*
X99889Y41056D01*
X99897Y41054D01*
X99900D01*
X99955Y41040D01*
X99979Y41037D01*
X100004Y41035D01*
X100026Y41032D01*
X100058D01*
X100099Y41035D01*
X100135Y41037D01*
X100168Y41043D01*
X100195Y41051D01*
X100219Y41059D01*
X100236Y41065D01*
X100249Y41067D01*
X100252Y41070D01*
X100282Y41087D01*
X100310Y41103D01*
X100334Y41122D01*
X100356Y41141D01*
X100372Y41157D01*
X100386Y41171D01*
X100394Y41179D01*
X100397Y41182D01*
X100416Y41212D01*
X100435Y41242D01*
X100451Y41272D01*
X100462Y41302D01*
X100473Y41330D01*
X100481Y41349D01*
X100484Y41362D01*
X100487Y41368D01*
X100498Y41411D01*
X100503Y41455D01*
X100509Y41499D01*
X100514Y41537D01*
Y41572D01*
X100517Y41600D01*
Y41611D01*
Y41619D01*
Y41622D01*
Y41624D01*
X100514Y41679D01*
X100512Y41728D01*
X100506Y41772D01*
X100501Y41810D01*
X100495Y41840D01*
X100492Y41865D01*
X100487Y41878D01*
Y41884D01*
X100473Y41925D01*
X100460Y41963D01*
X100443Y41996D01*
X100427Y42023D01*
X100416Y42048D01*
X100405Y42064D01*
X100397Y42075D01*
X100394Y42077D01*
X100370Y42105D01*
X100348Y42129D01*
X100323Y42151D01*
X100301Y42168D01*
X100282Y42181D01*
X100266Y42189D01*
X100255Y42195D01*
X100252Y42198D01*
X100219Y42211D01*
X100187Y42222D01*
X100157Y42228D01*
X100127Y42233D01*
X100102Y42236D01*
X100083Y42239D01*
X100031D01*
X100001Y42236D01*
X99974Y42230D01*
X99949Y42228D01*
X99930Y42222D01*
X99916Y42217D01*
X99908Y42214D01*
X99905D01*
X99859Y42198D01*
X99840Y42189D01*
X99823Y42181D01*
X99810Y42173D01*
X99799Y42168D01*
X99793Y42165D01*
X99791Y42162D01*
X99758Y42143D01*
X99736Y42127D01*
X99720Y42116D01*
X99714Y42113D01*
X99695Y42099D01*
X99679Y42094D01*
X99671Y42091D01*
X99668D01*
X99654Y42094D01*
X99651D01*
X99643Y42105D01*
X99641Y42107D01*
Y42110D01*
X99635Y42129D01*
X99632Y42138D01*
Y42140D01*
X99630Y42154D01*
Y42165D01*
Y42176D01*
Y42178D01*
Y42192D01*
Y42206D01*
X99632Y42211D01*
Y42214D01*
X99635Y42225D01*
Y42233D01*
X99638Y42239D01*
Y42241D01*
X99643Y42255D01*
X99646Y42260D01*
X99649Y42269D01*
X99657Y42277D01*
X99663Y42282D01*
X99665Y42285D01*
X99682Y42299D01*
X99701Y42312D01*
X99717Y42323D01*
X99720Y42326D01*
X99722D01*
X99755Y42342D01*
X99785Y42356D01*
X99799Y42361D01*
X99810Y42367D01*
X99815Y42370D01*
X99818D01*
X99859Y42383D01*
X99894Y42394D01*
X99911Y42397D01*
X99922Y42400D01*
X99930Y42402D01*
X99933D01*
X99979Y42411D01*
X100001Y42413D01*
X100020D01*
X100037Y42416D01*
X100061D01*
X100116Y42413D01*
D02*
G37*
G36*
X98349Y42397D02*
X98352D01*
X98366Y42394D01*
X98377Y42391D01*
X98382Y42389D01*
X98385D01*
X98396Y42380D01*
X98401Y42378D01*
Y42375D01*
X98404Y42367D01*
Y42364D01*
Y42361D01*
Y41532D01*
Y41463D01*
Y41431D01*
Y41401D01*
Y41376D01*
Y41354D01*
Y41343D01*
Y41338D01*
Y41300D01*
Y41264D01*
Y41231D01*
X98401Y41204D01*
Y41179D01*
Y41160D01*
Y41149D01*
Y41144D01*
X98404D01*
X98423Y41185D01*
X98442Y41220D01*
X98448Y41237D01*
X98453Y41248D01*
X98458Y41253D01*
Y41256D01*
X98478Y41297D01*
X98497Y41332D01*
X98505Y41346D01*
X98510Y41357D01*
X98513Y41362D01*
X98516Y41365D01*
X98538Y41406D01*
X98557Y41444D01*
X98565Y41458D01*
X98571Y41469D01*
X98573Y41477D01*
X98576Y41480D01*
X98598Y41523D01*
X98609Y41545D01*
X98620Y41564D01*
X98628Y41581D01*
X98633Y41592D01*
X98636Y41600D01*
X98639Y41603D01*
X98999Y42271D01*
X99013Y42296D01*
X99026Y42315D01*
X99035Y42329D01*
X99037Y42331D01*
X99051Y42348D01*
X99062Y42359D01*
X99070Y42367D01*
X99073Y42370D01*
X99086Y42378D01*
X99103Y42383D01*
X99111Y42389D01*
X99116D01*
X99136Y42394D01*
X99152Y42397D01*
X99272D01*
X99294Y42394D01*
X99313Y42386D01*
X99327Y42378D01*
X99332Y42375D01*
X99346Y42356D01*
X99354Y42334D01*
X99357Y42318D01*
Y42312D01*
Y42310D01*
Y40898D01*
X99354Y40887D01*
Y40885D01*
Y40882D01*
X99343Y40876D01*
X99340Y40874D01*
X99338D01*
X99329Y40871D01*
X99318D01*
X99310Y40868D01*
X99308D01*
X99291Y40865D01*
X99275Y40863D01*
X99239D01*
X99223Y40865D01*
X99212Y40868D01*
X99209D01*
X99196Y40871D01*
X99187D01*
X99182Y40874D01*
X99179D01*
X99171Y40876D01*
X99166Y40879D01*
X99160Y40882D01*
X99155Y40893D01*
Y40898D01*
Y41821D01*
Y41886D01*
Y41914D01*
Y41941D01*
X99157Y41963D01*
Y41982D01*
Y41993D01*
Y41996D01*
Y42061D01*
Y42091D01*
Y42116D01*
X99160Y42138D01*
Y42157D01*
Y42168D01*
Y42170D01*
X99157D01*
X99133Y42118D01*
X99122Y42094D01*
X99111Y42072D01*
X99103Y42053D01*
X99095Y42039D01*
X99092Y42028D01*
X99089Y42026D01*
X99062Y41974D01*
X99048Y41949D01*
X99037Y41927D01*
X99029Y41911D01*
X99021Y41897D01*
X99018Y41889D01*
X99015Y41886D01*
X98549Y41018D01*
X98532Y40986D01*
X98516Y40964D01*
X98505Y40947D01*
X98502Y40945D01*
Y40942D01*
X98486Y40923D01*
X98472Y40906D01*
X98464Y40898D01*
X98461Y40895D01*
X98445Y40885D01*
X98428Y40879D01*
X98418Y40874D01*
X98415D01*
X98396Y40871D01*
X98379Y40868D01*
X98281D01*
X98270Y40871D01*
X98262D01*
X98251Y40876D01*
X98240Y40882D01*
X98235Y40885D01*
X98232Y40887D01*
X98216Y40906D01*
X98213Y40912D01*
X98210Y40914D01*
X98205Y40928D01*
X98202Y40939D01*
Y40950D01*
Y40953D01*
Y42361D01*
X98205Y42372D01*
X98207Y42375D01*
X98218Y42386D01*
X98221Y42389D01*
X98224D01*
X98235Y42391D01*
X98243Y42394D01*
X98254Y42397D01*
X98256D01*
X98273Y42400D01*
X98338D01*
X98349Y42397D01*
D02*
G37*
%LPC*%
G36*
X123274Y32306D02*
X123022D01*
X122971Y32302D01*
X122924Y32299D01*
X122906Y32295D01*
X122891D01*
X122884Y32291D01*
X122880D01*
X122826Y32280D01*
X122782Y32262D01*
X122764Y32255D01*
X122749Y32248D01*
X122742Y32244D01*
X122739Y32240D01*
X122713Y32222D01*
X122691Y32204D01*
X122655Y32164D01*
X122640Y32146D01*
X122629Y32131D01*
X122626Y32120D01*
X122622Y32117D01*
X122607Y32084D01*
X122593Y32048D01*
X122586Y32015D01*
X122582Y31982D01*
X122578Y31953D01*
X122575Y31931D01*
Y31916D01*
Y31909D01*
X122578Y31844D01*
X122582Y31815D01*
X122589Y31789D01*
X122593Y31767D01*
X122600Y31753D01*
X122604Y31742D01*
Y31738D01*
X122629Y31683D01*
X122658Y31644D01*
X122669Y31625D01*
X122680Y31614D01*
X122687Y31607D01*
X122691Y31603D01*
X122735Y31567D01*
X122778Y31538D01*
X122797Y31531D01*
X122811Y31523D01*
X122822Y31516D01*
X122826D01*
X122859Y31505D01*
X122891Y31498D01*
X122924Y31494D01*
X122957Y31491D01*
X122986Y31487D01*
X123274D01*
Y32306D01*
D02*
G37*
G36*
X72730Y20087D02*
X72479D01*
X72428Y20083D01*
X72381Y20079D01*
X72363Y20076D01*
X72348D01*
X72341Y20072D01*
X72337D01*
X72283Y20061D01*
X72239Y20043D01*
X72221Y20036D01*
X72206Y20028D01*
X72199Y20025D01*
X72195Y20021D01*
X72170Y20003D01*
X72148Y19985D01*
X72111Y19945D01*
X72097Y19927D01*
X72086Y19912D01*
X72082Y19901D01*
X72079Y19897D01*
X72064Y19865D01*
X72050Y19828D01*
X72042Y19795D01*
X72039Y19763D01*
X72035Y19734D01*
X72031Y19712D01*
Y19697D01*
Y19690D01*
X72035Y19624D01*
X72039Y19595D01*
X72046Y19570D01*
X72050Y19548D01*
X72057Y19533D01*
X72061Y19523D01*
Y19519D01*
X72086Y19464D01*
X72115Y19424D01*
X72126Y19406D01*
X72137Y19395D01*
X72144Y19388D01*
X72148Y19384D01*
X72192Y19348D01*
X72235Y19319D01*
X72254Y19311D01*
X72268Y19304D01*
X72279Y19297D01*
X72283D01*
X72315Y19286D01*
X72348Y19279D01*
X72381Y19275D01*
X72414Y19271D01*
X72443Y19268D01*
X72730D01*
Y20087D01*
D02*
G37*
G36*
X70626Y20079D02*
X70623D01*
Y18962D01*
X71285D01*
X70626Y20079D01*
D02*
G37*
G36*
X72679Y32291D02*
X72428D01*
X72377Y32288D01*
X72330Y32284D01*
X72312Y32280D01*
X72297D01*
X72290Y32277D01*
X72286D01*
X72232Y32266D01*
X72188Y32248D01*
X72170Y32241D01*
X72155Y32233D01*
X72148Y32230D01*
X72144Y32226D01*
X72119Y32208D01*
X72097Y32190D01*
X72061Y32149D01*
X72046Y32131D01*
X72035Y32117D01*
X72031Y32106D01*
X72028Y32102D01*
X72013Y32069D01*
X71999Y32033D01*
X71991Y32000D01*
X71988Y31967D01*
X71984Y31938D01*
X71981Y31916D01*
Y31902D01*
Y31895D01*
X71984Y31829D01*
X71988Y31800D01*
X71995Y31775D01*
X71999Y31753D01*
X72006Y31738D01*
X72010Y31727D01*
Y31724D01*
X72035Y31669D01*
X72064Y31629D01*
X72075Y31611D01*
X72086Y31600D01*
X72093Y31593D01*
X72097Y31589D01*
X72141Y31552D01*
X72184Y31523D01*
X72202Y31516D01*
X72217Y31509D01*
X72228Y31501D01*
X72232D01*
X72264Y31491D01*
X72297Y31483D01*
X72330Y31480D01*
X72363Y31476D01*
X72392Y31472D01*
X72679D01*
Y32291D01*
D02*
G37*
G36*
X72687Y42125D02*
X72435D01*
X72385Y42121D01*
X72337Y42118D01*
X72319Y42114D01*
X72304D01*
X72297Y42110D01*
X72294D01*
X72239Y42099D01*
X72195Y42081D01*
X72177Y42074D01*
X72162Y42067D01*
X72155Y42063D01*
X72152Y42059D01*
X72126Y42041D01*
X72104Y42023D01*
X72068Y41983D01*
X72053Y41965D01*
X72042Y41950D01*
X72039Y41939D01*
X72035Y41936D01*
X72021Y41903D01*
X72006Y41866D01*
X71999Y41834D01*
X71995Y41801D01*
X71991Y41772D01*
X71988Y41750D01*
Y41735D01*
Y41728D01*
X71991Y41662D01*
X71995Y41633D01*
X72002Y41608D01*
X72006Y41586D01*
X72013Y41572D01*
X72017Y41561D01*
Y41557D01*
X72042Y41502D01*
X72071Y41462D01*
X72082Y41444D01*
X72093Y41433D01*
X72101Y41426D01*
X72104Y41422D01*
X72148Y41386D01*
X72192Y41357D01*
X72210Y41350D01*
X72224Y41342D01*
X72235Y41335D01*
X72239D01*
X72272Y41324D01*
X72304Y41317D01*
X72337Y41313D01*
X72370Y41309D01*
X72399Y41306D01*
X72687D01*
Y42125D01*
D02*
G37*
G36*
X123281Y42132D02*
X123030D01*
X122979Y42129D01*
X122931Y42125D01*
X122913Y42121D01*
X122899D01*
X122891Y42118D01*
X122888D01*
X122833Y42107D01*
X122789Y42088D01*
X122771Y42081D01*
X122757Y42074D01*
X122749Y42070D01*
X122746Y42067D01*
X122720Y42048D01*
X122698Y42030D01*
X122662Y41990D01*
X122648Y41972D01*
X122637Y41957D01*
X122633Y41947D01*
X122629Y41943D01*
X122615Y41910D01*
X122600Y41874D01*
X122593Y41841D01*
X122589Y41808D01*
X122586Y41779D01*
X122582Y41757D01*
Y41743D01*
Y41735D01*
X122586Y41670D01*
X122589Y41641D01*
X122597Y41615D01*
X122600Y41593D01*
X122607Y41579D01*
X122611Y41568D01*
Y41564D01*
X122637Y41510D01*
X122666Y41470D01*
X122677Y41451D01*
X122687Y41440D01*
X122695Y41433D01*
X122698Y41430D01*
X122742Y41393D01*
X122786Y41364D01*
X122804Y41357D01*
X122819Y41350D01*
X122829Y41342D01*
X122833D01*
X122866Y41331D01*
X122899Y41324D01*
X122931Y41320D01*
X122964Y41317D01*
X122993Y41313D01*
X123281D01*
Y42132D01*
D02*
G37*
%LPD*%
D11*
X113425Y36575D02*
G03*
X113425Y36575I-500J0D01*
G01*
X91673Y40079D02*
X105177D01*
X91673Y13071D02*
X105177D01*
M02*
