G04*
G04 #@! TF.GenerationSoftware,Altium Limited,Altium Designer,20.2.6 (244)*
G04*
G04 Layer_Color=8421504*
%FSLAX25Y25*%
%MOIN*%
G70*
G04*
G04 #@! TF.SameCoordinates,1F00D8FF-E811-4F8C-9FFC-250B1BB78CBF*
G04*
G04*
G04 #@! TF.FilePolarity,Positive*
G04*
G01*
G75*
%ADD14R,0.03347X0.02165*%
%ADD15R,0.02047X0.02047*%
G04:AMPARAMS|DCode=16|XSize=47.24mil|YSize=70.87mil|CornerRadius=11.81mil|HoleSize=0mil|Usage=FLASHONLY|Rotation=0.000|XOffset=0mil|YOffset=0mil|HoleType=Round|Shape=RoundedRectangle|*
%AMROUNDEDRECTD16*
21,1,0.04724,0.04724,0,0,0.0*
21,1,0.02362,0.07087,0,0,0.0*
1,1,0.02362,0.01181,-0.02362*
1,1,0.02362,-0.01181,-0.02362*
1,1,0.02362,-0.01181,0.02362*
1,1,0.02362,0.01181,0.02362*
%
%ADD16ROUNDEDRECTD16*%
%ADD17R,0.01772X0.02165*%
%ADD18R,0.03150X0.02165*%
%ADD19R,0.02165X0.01772*%
%ADD20R,0.04921X0.00984*%
%ADD21R,0.00984X0.04921*%
%ADD22R,0.09449X0.02992*%
%ADD23R,0.02047X0.02047*%
%ADD24R,0.04724X0.03937*%
%ADD25R,0.03150X0.03150*%
D14*
X37008Y17520D02*
D03*
Y13780D02*
D03*
Y10039D02*
D03*
X47047D02*
D03*
Y17520D02*
D03*
D15*
X113779Y43701D02*
D03*
Y40551D02*
D03*
X71653Y18898D02*
D03*
Y15748D02*
D03*
Y22244D02*
D03*
Y25394D02*
D03*
Y28740D02*
D03*
Y31890D02*
D03*
X32283Y14567D02*
D03*
Y11417D02*
D03*
Y18110D02*
D03*
Y21260D02*
D03*
D16*
X65354Y30512D02*
D03*
Y14764D02*
D03*
X55905Y30512D02*
D03*
Y14764D02*
D03*
D17*
X73425Y8071D02*
D03*
X76968D02*
D03*
X131693Y48425D02*
D03*
X128150D02*
D03*
X123425Y16142D02*
D03*
X119882D02*
D03*
X63189Y8071D02*
D03*
X59645D02*
D03*
X70079D02*
D03*
X66535D02*
D03*
X55413Y36811D02*
D03*
X51870D02*
D03*
X55315Y40157D02*
D03*
X51772D02*
D03*
D18*
X46949Y32874D02*
D03*
Y36615D02*
D03*
Y40355D02*
D03*
X36909D02*
D03*
Y36615D02*
D03*
Y32874D02*
D03*
D19*
X71653Y35236D02*
D03*
Y38780D02*
D03*
X28634Y50591D02*
D03*
Y47047D02*
D03*
X62492Y50591D02*
D03*
Y47047D02*
D03*
X47138Y50591D02*
D03*
Y47047D02*
D03*
X32177Y50591D02*
D03*
Y47047D02*
D03*
D20*
X78051Y37402D02*
D03*
Y35433D02*
D03*
Y33465D02*
D03*
Y31496D02*
D03*
Y29528D02*
D03*
Y27559D02*
D03*
Y25591D02*
D03*
Y23622D02*
D03*
Y21654D02*
D03*
Y19685D02*
D03*
Y17717D02*
D03*
Y15748D02*
D03*
X110531D02*
D03*
Y17717D02*
D03*
Y19685D02*
D03*
Y21654D02*
D03*
Y23622D02*
D03*
Y25591D02*
D03*
Y27559D02*
D03*
Y29528D02*
D03*
Y31496D02*
D03*
Y33465D02*
D03*
Y35433D02*
D03*
Y37402D02*
D03*
D21*
X83465Y10335D02*
D03*
X85433D02*
D03*
X87402D02*
D03*
X89370D02*
D03*
X91339D02*
D03*
X93307D02*
D03*
X95276D02*
D03*
X97244D02*
D03*
X99213D02*
D03*
X101181D02*
D03*
X103150D02*
D03*
X105118D02*
D03*
Y42815D02*
D03*
X103150D02*
D03*
X101181D02*
D03*
X99213D02*
D03*
X97244D02*
D03*
X95276D02*
D03*
X93307D02*
D03*
X91339D02*
D03*
X89370D02*
D03*
X87402D02*
D03*
X85433D02*
D03*
X83465D02*
D03*
D22*
X137598Y22284D02*
D03*
X122244D02*
D03*
X137598Y27283D02*
D03*
Y32283D02*
D03*
Y37284D02*
D03*
Y42283D02*
D03*
X122244Y27283D02*
D03*
Y32283D02*
D03*
Y37284D02*
D03*
Y42283D02*
D03*
D23*
X140551Y16142D02*
D03*
X137402D02*
D03*
X82677Y47638D02*
D03*
X79528D02*
D03*
X108268Y7087D02*
D03*
X111417D02*
D03*
X47638Y26075D02*
D03*
X44488D02*
D03*
X47638Y22441D02*
D03*
X44488D02*
D03*
D24*
X118898Y10236D02*
D03*
Y3543D02*
D03*
X140945D02*
D03*
Y10236D02*
D03*
D25*
X72531Y48819D02*
D03*
X66626D02*
D03*
X42110D02*
D03*
X36205D02*
D03*
X57177D02*
D03*
X51272D02*
D03*
M02*
